{
.appVersion = "3222";
.formatVersion = 3;
.storedFormatVersion = 1;
DisplayStrings = (
"/dotaccentcomb/adotmacron",
"/hturned",
"/Upsilon-latin",
"o/upsilon-latin oo",
"¨",
";",
";"
);
axes = (
{
name = Weight;
tag = wght;
}
);
classes = (
{
automatic = 1;

glyphs = (
{
color = 10;
glyphname = A;
lastChange = "2023-10-18 16:45:24 +0000";
layers = (
{
anchors = (
{
name = bottom;
pos = (343,0);
},
{
name = ogonek;
pos = (617,10);
},
{
name = top;
pos = (341,735);
}
);
background = {
shapes = (
{
closed = 1;
nodes = (
(339,748,l),
(-16,0,l),
(109,0,l),
(172,144,l),
(509,144,l),
(572,0,l),
(701,0,l),
(344,748,l)
);
},
{
closed = 1;
nodes = (
(342,518,l),
(465,245,l),
(217,245,l)
);
}
);
};
layerId = "12ECCE5E-04E9-4725-8BD5-31F21F15BB81";
shapes = (
{
closed = 1;
nodes = (
(-16,0,l),
(109,0,l),
(172,144,l),
(509,144,l),
(572,0,l),
(701,0,l),
(347,736,l),
(336,736,l)
);
},
{
closed = 1;
nodes = (
(343,523,l),
(386,422,l),
(465,245,l),
(217,245,l),
(297,423,l),
(341,523,l)
);
}
);
width = 685;
}
);
metricRight = "=|";
unicode = 65;
userData = {
com.typemytype.robofont.mark = (
0.656,
1,
0.6,
1
);
};
changeCount = 1;
},
{
glyphname = Aogonek;
lastChange = "2019-11-08 02:32:23 +0000";
layers = (
{
.lastUpdate = 719340325.812;
layerId = "12ECCE5E-04E9-4725-8BD5-31F21F15BB81";
shapes = (
{
closed = 1;
nodes = (
(658,-264,o),
(676,-261,o),
(688,-259,c),
(688,-166,l),
(681,-167,o),
(664,-168,o),
(655,-168,cs),
(603,-168,o),
(585,-135,o),
(585,-108,cs),
(585,-45,o),
(652,-13,o),
(697,0,c),
(644,30,l),
(597,13,l),
(563,-6,o),
(488,-51,o),
(488,-130,cs),
(488,-227,o),
(551,-264,o),
(639,-264,cs)
);
},
{
ref = A;
}
);
width = 685;
}
);
metricLeft = A;
metricRight = A;
unicode = 260;
userData = {
com.typemytype.robofont.mark = (
0.967,
0.6,
1,
1
);
};
},
{
glyphname = AE;
lastChange = "2023-10-15 02:03:19 +0000";
layers = (
{
anchors = (
{
name = bottom;
pos = (408,0);
},
{
name = top;
pos = (514,735);
}
);
layerId = "12ECCE5E-04E9-4725-8BD5-31F21F15BB81";
shapes = (
{
closed = 1;
nodes = (
(94,0,l),
(212,186,l),
(450,186,l),
(450,0,l),
(780,0,l),
(780,99,l),
(559,99,l),
(559,335,l),
(716,335,l),
(716,438,l),
(559,438,l),
(559,637,l),
(757,637,l),
(757,735,l),
(450,735,l),
(450,734,l),
(-43,0,l)
);
},
{
closed = 1;
nodes = (
(416,511,l),
(450,572,l),
(450,281,l),
(273,281,l)
);
}
);
width = 815;
}
);
metricRight = E;
unicode = 198;
userData = {
com.typemytype.robofont.mark = (
0.656,
1,
0.6,
1
);
};
},
{
glyphname = B;
lastChange = "2023-10-18 16:45:24 +0000";
layers = (
{
anchors = (
{
name = bottom;
pos = (313,0);
},
{
name = center;
pos = (313,368);
},
{
name = top;
pos = (297,735);
}
);
layerId = "12ECCE5E-04E9-4725-8BD5-31F21F15BB81";
shapes = (
{
closed = 1;
nodes = (
(288,0,ls),
(543,0,o),
(573,119,o),
(573,224,cs),
(573,300,o),
(535,368,o),
(435,393,c),
(504,425,o),
(527,495,o),
(527,554,cs),
(527,625,o),
(504,735,o),
(265,735,cs),
(78,735,l),
(78,0,l)
);
},
{
closed = 1;
nodes = (
(188,334,l),
(312,334,ls),
(412,334,o),
(457,292,o),
(457,223,cs),
(457,165,o),
(439,94,o),
(303,94,cs),
(188,94,l)
);
},
{
closed = 1;
nodes = (
(188,640,l),
(278,640,ls),
(386,640,o),
(414,596,o),
(414,545,cs),
(414,483,o),
(386,423,o),
(283,423,cs),
(188,423,l)
);
}
);
width = 626;
}
);
unicode = 66;
userData = {
com.typemytype.robofont.mark = (
0.656,
1,
0.6,
1
);
};
changeCount = 1;
},
{
glyphname = Bhook;
lastChange = "2023-10-15 01:54:50 +0000";
layers = (
{
layerId = "12ECCE5E-04E9-4725-8BD5-31F21F15BB81";
shapes = (
{
closed = 1;
nodes = (
(439,0,ls),
(694,0,o),
(724,119,o),
(724,224,cs),
(724,300,o),
(686,368,o),
(586,393,c),
(655,425,o),
(678,495,o),
(678,554,cs),
(678,625,o),
(655,735,o),
(416,735,cs),
(229,735,l),
(229,0,l)
);
},
{
closed = 1;
nodes = (
(339,334,l),
(463,334,ls),
(563,334,o),
(608,292,o),
(608,223,cs),
(608,165,o),
(590,94,o),
(454,94,cs),
(339,94,l)
);
},
{
closed = 1;
nodes = (
(339,640,l),
(429,640,ls),
(537,640,o),
(565,596,o),
(565,545,cs),
(565,483,o),
(537,423,o),
(434,423,cs),
(339,423,l)
);
},
{
closed = 1;
nodes = (
(229,735,l),
(91,735,o),
(20,678,o),
(20,564,cs),
(20,528,o),
(35,496,o),
(39,487,c),
(158,508,l),
(150,515,o),
(135,536,o),
(135,561,cs),
(135,589,o),
(133,628,o),
(230,629,c),
(276,682,l)
);
}
);
width = 777;
}
);
metricRight = B;
unicode = 385;
},
{
glyphname = C;
lastChange = "2023-10-18 16:45:24 +0000";
layers = (
{
anchors = (
{
name = bottom;
pos = (408,0);
},
{
name = top;
pos = (419,735);
}
);
layerId = "12ECCE5E-04E9-4725-8BD5-31F21F15BB81";
shapes = (
{
closed = 1;
nodes = (
(498,-7,o),
(585,26,o),
(611,50,c),
(578,145,l),
(519,109,o),
(465,95,o),
(408,95,cs),
(252,95,o),
(165,217,o),
(165,367,cs),
(165,536,o),
(271,644,o),
(410,644,cs),
(481,644,o),
(533,622,o),
(569,590,c),
(618,690,l),
(603,705,o),
(527,747,o),
(419,747,cs),
(197,747,o),
(43,589,o),
(43,369,cs),
(43,167,o),
(177,-7,o),
(412,-7,cs)
);
}
);
width = 649;
}
);
unicode = 67;
userData = {
com.typemytype.robofont.mark = (
0.656,
1,
0.6,
1
);
};
changeCount = 1;
},
{
glyphname = D;
lastChange = "2023-10-18 16:45:24 +0000";
layers = (
{
anchors = (
{
name = bottom;
pos = (344,0);
},
{
name = center;
pos = (344,368);
},
{
name = top;
pos = (341,735);
}
);
layerId = "12ECCE5E-04E9-4725-8BD5-31F21F15BB81";
shapes = (
{
closed = 1;
nodes = (
(261,0,ls),
(561,0,o),
(654,196,o),
(654,380,cs),
(654,534,o),
(584,735,o),
(255,735,cs),
(78,735,l),
(78,0,l)
);
},
{
closed = 1;
nodes = (
(190,637,l),
(273,637,ls),
(468,637,o),
(536,516,o),
(536,375,cs),
(536,235,o),
(471,99,o),
(273,99,cs),
(190,99,l)
);
}
);
width = 688;
}
);
unicode = 68;
userData = {
com.typemytype.robofont.mark = (
0.656,
1,
0.6,
1
);
};
changeCount = 1;
},
{
glyphname = Dcroat;
lastChange = "2018-06-22 18:32:31 +0000";
layers = (
{
layerId = "12ECCE5E-04E9-4725-8BD5-31F21F15BB81";
shapes = (
{
closed = 1;
nodes = (
(233,0,ls),
(574,0,o),
(677,160,o),
(677,377,cs),
(677,559,o),
(582,735,o),
(233,735,cs),
(98,735,l),
(98,431,l),
(20,431,l),
(20,329,l),
(98,329,l),
(98,0,l)
);
},
{
closed = 1;
nodes = (
(210,329,l),
(352,329,l),
(352,431,l),
(210,431,l),
(210,637,l),
(264,637,ls),
(474,637,o),
(560,535,o),
(560,369,cs),
(560,205,o),
(488,99,o),
(264,99,cs),
(210,99,l)
);
}
);
width = 736;
}
);
unicode = 272;
userData = {
com.typemytype.robofont.mark = (
0.967,
0.6,
1,
1
);
};
},
{
glyphname = Dhook;
lastChange = "2023-10-15 01:55:23 +0000";
layers = (
{
anchors = (
{
name = center;
pos = (495,368);
}
);
layerId = "12ECCE5E-04E9-4725-8BD5-31F21F15BB81";
shapes = (
{
closed = 1;
nodes = (
(412,0,ls),
(712,0,o),
(805,196,o),
(805,380,cs),
(805,534,o),
(735,735,o),
(406,735,cs),
(229,735,l),
(229,0,l)
);
},
{
closed = 1;
nodes = (
(341,637,l),
(424,637,ls),
(619,637,o),
(687,516,o),
(687,375,cs),
(687,235,o),
(622,99,o),
(424,99,cs),
(341,99,l)
);
},
{
closed = 1;
nodes = (
(229,735,l),
(91,735,o),
(20,678,o),
(20,564,cs),
(20,528,o),
(35,496,o),
(39,487,c),
(158,508,l),
(150,515,o),
(135,536,o),
(135,561,cs),
(135,589,o),
(133,628,o),
(230,629,c),
(276,682,l)
);
}
);
width = 839;
}
);
metricRight = D;
unicode = 394;
},
{
glyphname = Eth;
lastChange = "2018-06-22 18:32:31 +0000";
layers = (
{
layerId = "12ECCE5E-04E9-4725-8BD5-31F21F15BB81";
shapes = (
{
closed = 1;
nodes = (
(233,0,ls),
(574,0,o),
(677,160,o),
(677,377,cs),
(677,559,o),
(582,735,o),
(233,735,cs),
(98,735,l),
(98,431,l),
(20,431,l),
(20,329,l),
(98,329,l),
(98,0,l)
);
},
{
closed = 1;
nodes = (
(210,329,l),
(352,329,l),
(352,431,l),
(210,431,l),
(210,637,l),
(264,637,ls),
(474,637,o),
(560,535,o),
(560,369,cs),
(560,205,o),
(488,99,o),
(264,99,cs),
(210,99,l)
);
}
);
width = 736;
}
);
unicode = 208;
userData = {
com.typemytype.robofont.mark = (
0.656,
1,
0.6,
1
);
};
},
{
glyphname = E;
lastChange = "2023-10-18 16:45:24 +0000";
layers = (
{
anchors = (
{
name = bottom;
pos = (234,0);
},
{
name = ogonek;
pos = (420,10);
},
{
name = top;
pos = (256,735);
},
{
name = topleft;
pos = (20,735);
}
);
layerId = "12ECCE5E-04E9-4725-8BD5-31F21F15BB81";
shapes = (
{
closed = 1;
nodes = (
(432,0,l),
(432,99,l),
(188,99,l),
(188,334,l),
(358,334,l),
(358,434,l),
(188,434,l),
(188,637,l),
(399,637,l),
(399,735,l),
(77,735,l),
(77,0,l)
);
}
);
width = 467;
}
);
metricLeft = H;
unicode = 69;
userData = {
com.typemytype.robofont.mark = (
0.656,
1,
0.6,
1
);
};
changeCount = 1;
},
{
glyphname = Eogonek;
lastChange = "2019-11-08 02:33:16 +0000";
layers = (
{
.lastUpdate = 719340007.924;
layerId = "12ECCE5E-04E9-4725-8BD5-31F21F15BB81";
shapes = (
{
closed = 1;
nodes = (
(403,-264,o),
(411,-261,o),
(423,-259,c),
(423,-166,l),
(416,-167,o),
(399,-168,o),
(390,-168,cs),
(338,-168,o),
(320,-135,o),
(320,-108,cs),
(320,-45,o),
(388,-8,o),
(433,0,c),
(380,30,l),
(333,13,l),
(299,-1,o),
(223,-51,o),
(223,-130,cs),
(223,-227,o),
(296,-264,o),
(384,-264,cs)
);
},
{
ref = E;
}
);
width = 468;
}
);
metricLeft = E;
metricRight = E;
unicode = 280;
userData = {
com.typemytype.robofont.mark = (
0.967,
0.6,
1,
1
);
};
},
{
glyphname = Ereversed;
lastChange = "2023-10-15 03:25:38 +0000";
layers = (
{
anchors = (
{
name = bottom;
pos = (234,0);
},
{
name = top;
pos = (234,735);
}
);
layerId = "12ECCE5E-04E9-4725-8BD5-31F21F15BB81";
shapes = (
{
closed = 1;
nodes = (
(390,735,l),
(68,735,l),
(68,637,l),
(279,637,l),
(279,434,l),
(109,434,l),
(109,334,l),
(279,334,l),
(279,99,l),
(35,99,l),
(35,0,l),
(390,0,l)
);
}
);
width = 467;
}
);
unicode = 398;
},
{
color = 9;
glyphname = Esh;
lastChange = "2023-10-15 03:27:33 +0000";
layers = (
{
layerId = "12ECCE5E-04E9-4725-8BD5-31F21F15BB81";
shapes = (
{
closed = 1;
nodes = (
(482,0,l),
(482,92,l),
(218,92,l),
(388,367,l),
(210,643,l),
(482,643,l),
(482,735,l),
(30,735,l),
(271,367,l),
(30,0,l)
);
}
);
width = 517;
}
);
metricLeft = T;
metricRight = E;
unicode = 425;
},
{
glyphname = Schwa;
lastChange = "2023-10-15 03:30:07 +0000";
layers = (
{
anchors = (
{
name = top;
pos = (387,725);
}
);
layerId = "12ECCE5E-04E9-4725-8BD5-31F21F15BB81";
shapes = (
{
closed = 1;
nodes = (
(570,-10,o),
(696,152,o),
(696,369,c),
(696,587,o),
(539,746,o),
(323,746,cs),
(191,746,o),
(110,701,o),
(90,688,c),
(133,594,l),
(149,604,o),
(215,643,o),
(327,643,cs),
(479,643,o),
(576,523,o),
(576,375,cs),
(576,207,o),
(497,93,o),
(347,93,cs),
(260,93,o),
(169,142,o),
(169,295,c),
(606,295,l),
(606,384,l),
(41,384,l),
(41,43,o),
(215,-10,o),
(349,-10,cs)
);
}
);
width = 743;
}
);
metricRight = O;
unicode = 399;
userData = {
com.typemytype.robofont.mark = (
0.967,
0.6,
1,
1
);
};
},
{
glyphname = Ezh;
lastChange = "2023-10-15 03:35:31 +0000";
layers = (
{
anchors = (
{
name = bottom;
pos = (309,0);
},
{
name = top;
pos = (309,735);
}
);
layerId = "12ECCE5E-04E9-4725-8BD5-31F21F15BB81";
shapes = (
{
closed = 1;
nodes = (
(461,-15,o),
(565,92,o),
(565,234,cs),
(565,344,o),
(483,433,o),
(353,438,c),
(561,735,l),
(86,735,l),
(86,637,l),
(362,637,l),
(178,351,l),
(203,355,o),
(239,357,o),
(271,357,cs),
(376,357,o),
(443,305,o),
(443,226,cs),
(443,115,o),
(360,87,o),
(272,87,cs),
(203,87,o),
(137,119,o),
(102,146,c),
(55,51,l),
(95,12,o),
(194,-15,o),
(277,-15,cs)
);
}
);
width = 618;
}
);
metricRight = B;
unicode = 439;
},
{
glyphname = F;
lastChange = "2023-10-18 16:45:24 +0000";
layers = (
{
anchors = (
{
name = bottom;
pos = (234,0);
},
{
name = top;
pos = (258,735);
}
);
layerId = "12ECCE5E-04E9-4725-8BD5-31F21F15BB81";
shapes = (
{
closed = 1;
nodes = (
(188,0,l),
(188,332,l),
(370,332,l),
(370,430,l),
(188,430,l),
(188,638,l),
(422,638,l),
(422,735,l),
(77,735,l),
(77,0,l)
);
}
);
width = 467;
}
);
metricLeft = E;
unicode = 70;
userData = {
com.typemytype.robofont.mark = (
0.656,
1,
0.6,
1
);
};
changeCount = 1;
},
{
glyphname = G;
lastChange = "2023-10-18 16:45:24 +0000";
layers = (
{
anchors = (
{
name = bottom;
pos = (415,0);
},
{
name = top;
pos = (424,735);
}
);
layerId = "12ECCE5E-04E9-4725-8BD5-31F21F15BB81";
shapes = (
{
closed = 1;
nodes = (
(555,-10,o),
(653,40,o),
(697,96,c),
(697,384,l),
(435,384,l),
(435,281,l),
(586,281,l),
(586,139,l),
(544,104,o),
(480,91,o),
(423,91,cs),
(272,91,o),
(162,209,o),
(162,380,cs),
(162,526,o),
(258,644,o),
(422,644,cs),
(539,644,o),
(590,606,o),
(605,594,c),
(649,688,l),
(632,703,o),
(554,746,o),
(424,746,cs),
(202,746,o),
(43,589,o),
(43,374,cs),
(43,154,o),
(199,-10,o),
(421,-10,cs)
);
}
);
width = 744;
}
);
unicode = 71;
userData = {
com.typemytype.robofont.mark = (
0.656,
1,
0.6,
1
);
};
changeCount = 1;
},
{
glyphname = Gstroke;
lastChange = "2023-10-15 03:34:52 +0000";
layers = (
{
anchors = (
{
name = bottom;
pos = (415,0);
},
{
name = top;
pos = (424,735);
}
);
layerId = "12ECCE5E-04E9-4725-8BD5-31F21F15BB81";
shapes = (
{
closed = 1;
nodes = (
(555,-10,o),
(653,40,o),
(697,96,c),
(697,384,l),
(435,384,l),
(435,281,l),
(586,281,l),
(586,139,l),
(544,104,o),
(480,91,o),
(423,91,cs),
(272,91,o),
(162,209,o),
(162,380,cs),
(162,526,o),
(258,644,o),
(422,644,cs),
(539,644,o),
(590,606,o),
(605,594,c),
(649,688,l),
(632,703,o),
(554,746,o),
(424,746,cs),
(202,746,o),
(43,589,o),
(43,374,cs),
(43,154,o),
(199,-10,o),
(421,-10,cs)
);
},
{
closed = 1;
nodes = (
(746,157,l),
(746,253,l),
(403,253,l),
(403,157,l)
);
}
);
width = 744;
}
);
unicode = 484;
},
{
glyphname = H;
lastChange = "2023-10-18 16:45:24 +0000";
layers = (
{
anchors = (
{
name = bottom;
pos = (319,0);
},
{
name = center;
pos = (319,368);
},
{
name = top;
pos = (318,725);
},
{
name = topleft;
pos = (20,735);
}
);
layerId = "12ECCE5E-04E9-4725-8BD5-31F21F15BB81";
shapes = (
{
closed = 1;
nodes = (
(189,0,l),
(189,341,l),
(448,341,l),
(448,0,l),
(560,0,l),
(560,735,l),
(448,735,l),
(448,435,l),
(189,435,l),
(189,735,l),
(77,735,l),
(77,0,l)
);
}
);
width = 637;
}
);
metricRight = "=|";
unicode = 72;
userData = {
com.typemytype.robofont.mark = (
0.656,
1,
0.6,
1
);
};
changeCount = 1;
},
{
glyphname = Hbar;
lastChange = "2023-10-15 03:30:08 +0000";
layers = (
{
anchors = (
{
name = top;
pos = (326,725);
}
);
background = {
shapes = (
{
pos = (9,0);
ref = H;
}
);
};
layerId = "12ECCE5E-04E9-4725-8BD5-31F21F15BB81";
shapes = (
{
closed = 1;
nodes = (
(198,0,l),
(198,267,l),
(457,267,l),
(457,0,l),
(569,0,l),
(569,735,l),
(457,735,l),
(457,361,l),
(198,361,l),
(198,735,l),
(86,735,l),
(86,0,l)
);
},
{
closed = 1;
nodes = (
(619,449,l),
(619,527,l),
(36,527,l),
(36,449,l)
);
}
);
width = 655;
}
);
unicode = 294;
userData = {
com.typemytype.robofont.mark = (
0.967,
0.6,
1,
1
);
};
},
{
glyphname = I;
lastChange = "2023-10-15 03:30:08 +0000";
layers = (
{
anchors = (
{
name = bottom;
pos = (147,0);
},
{
name = ogonek;
pos = (265,10);
},
{
name = top;
pos = (147,735);
},
{
name = topleft;
pos = (20,735);
}
);
layerId = "12ECCE5E-04E9-4725-8BD5-31F21F15BB81";
shapes = (
{
closed = 1;
nodes = (
(203,0,l),
(203,735,l),
(91,735,l),
(91,0,l)
);
}
);
width = 294;
}
);
unicode = 73;
userData = {
com.typemytype.robofont.mark = (
0.656,
1,
0.6,
1
);
};
},
{
glyphname = Iogonek;
lastChange = "2018-06-22 22:17:12 +0000";
layers = (
{
.lastUpdate = 719340320.263;
layerId = "12ECCE5E-04E9-4725-8BD5-31F21F15BB81";
shapes = (
{
closed = 1;
nodes = (
(173,-264,o),
(191,-261,o),
(203,-259,c),
(203,-166,l),
(196,-167,o),
(179,-168,o),
(170,-168,cs),
(118,-168,o),
(100,-135,o),
(100,-108,cs),
(100,-45,o),
(158,-13,o),
(203,0,c),
(150,30,l),
(103,13,l),
(69,-6,o),
(3,-51,o),
(3,-130,cs),
(3,-227,o),
(66,-264,o),
(154,-264,cs)
);
},
{
ref = I;
}
);
width = 294;
}
);
unicode = 302;
userData = {
com.typemytype.robofont.mark = (
0.967,
0.6,
1,
1
);
};
},
{
glyphname = J;
lastChange = "2023-10-18 16:45:24 +0000";
layers = (
{
anchors = (
{
name = top;
pos = (320,735);
}
);
layerId = "12ECCE5E-04E9-4725-8BD5-31F21F15BB81";
shapes = (
{
closed = 1;
nodes = (
(292,-10,o),
(376,43,o),
(376,203,cs),
(376,735,l),
(265,735,l),
(265,231,l),
(265,121,o),
(236,97,o),
(177,97,cs),
(132,97,o),
(104,112,o),
(81,139,c),
(36,36,l),
(79,-1,o),
(147,-10,o),
(193,-10,cs)
);
}
);
width = 461;
}
);
unicode = 74;
userData = {
com.typemytype.robofont.mark = (
0.656,
1,
0.6,
1
);
};
changeCount = 1;
},
{
glyphname = K;
lastChange = "2023-10-18 16:45:24 +0000";
layers = (
{
anchors = (
{
name = bottom;
pos = (298,0);
},
{
name = top;
pos = (303,735);
}
);
layerId = "12ECCE5E-04E9-4725-8BD5-31F21F15BB81";
shapes = (
{
closed = 1;
nodes = (
(610,0,l),
(306,433,l),
(313,402,l),
(574,735,l),
(440,735,l),
(174,389,l),
(174,238,l),
(256,339,l),
(228,358,l),
(473,0,l)
);
},
{
closed = 1;
nodes = (
(188,0,l),
(188,735,l),
(78,735,l),
(78,0,l)
);
}
);
width = 595;
}
);
unicode = 75;
userData = {
com.typemytype.robofont.mark = (
0.656,
1,
0.6,
1
);
};
changeCount = 1;
},
{
glyphname = Khook;
lastChange = "2023-10-15 02:08:15 +0000";
layers = (
{
anchors = (
{
name = bottom;
pos = (298,0);
},
{
name = top;
pos = (319,735);
}
);
layerId = "12ECCE5E-04E9-4725-8BD5-31F21F15BB81";
shapes = (
{
closed = 1;
nodes = (
(610,0,l),
(320,413,l),
(413,545,ls),
(457,605,o),
(484,652,o),
(533,652,cs),
(559,652,o),
(580,637,o),
(587,629,c),
(608,731,l),
(599,735,o),
(580,750,o),
(530,750,cs),
(433,750,o),
(375,676,o),
(347,636,cs),
(188,408,l),
(188,735,l),
(78,735,l),
(78,0,l),
(188,0,l),
(188,255,l),
(248,329,l),
(473,0,l)
);
}
);
width = 595;
}
);
unicode = 408;
},
{
glyphname = L;
lastChange = "2023-10-18 16:45:24 +0000";
layers = (
{
anchors = (
{
name = bottom;
pos = (236,0);
},
{
name = car;
pos = (320,725);
},
{
name = center;
pos = (216,368);
},
{
name = top;
pos = (135,735);
},
{
name = topright;
pos = (412,735);
}
);
layerId = "12ECCE5E-04E9-4725-8BD5-31F21F15BB81";
shapes = (
{
closed = 1;
nodes = (
(402,0,l),
(402,100,l),
(191,100,l),
(191,735,l),
(78,735,l),
(78,0,l)
);
}
);
width = 432;
}
);
unicode = 76;
userData = {
com.typemytype.robofont.mark = (
0.656,
1,
0.6,
1
);
};
changeCount = 1;
},
{
glyphname = Lslash;
lastChange = "2018-06-22 18:32:31 +0000";
layers = (
{
layerId = "12ECCE5E-04E9-4725-8BD5-31F21F15BB81";
shapes = (
{
closed = 1;
nodes = (
(432,0,l),
(432,99,l),
(221,99,l),
(221,319,l),
(349,373,l),
(349,467,l),
(221,413,l),
(221,735,l),
(109,735,l),
(109,361,l),
(30,324,l),
(30,231,l),
(109,268,l),
(109,0,l)
);
}
);
width = 462;
}
);
metricRight = L;
unicode = 321;
userData = {
com.typemytype.robofont.mark = (
0.967,
0.6,
1,
1
);
};
},
{
color = 10;
glyphname = M;
lastChange = "2023-10-18 16:45:24 +0000";
layers = (
{
anchors = (
{
name = bottom;
pos = (448,0);
},
{
name = top;
pos = (447,735);
}
);
background = {
shapes = (
{
closed = 1;
nodes = (
(628,342,l),
(668,444,l),
(690,342,l),
(764,0,l),
(874,0,l),
(713,757,l),
(507,337,l),
(447,207,l),
(387,337,l),
(176,757,l),
(21,0,l),
(132,0,l),
(200,342,l),
(221,444,l),
(267,342,l),
(447,-8,l)
);
}
);
};
layerId = "12ECCE5E-04E9-4725-8BD5-31F21F15BB81";
shapes = (
{
closed = 1;
nodes = (
(450,0,l),
(628,343,l),
(668,447,l),
(690,343,l),
(764,0,l),
(874,0,l),
(716,735,l),
(705,735,l),
(507,338,l),
(447,205,l),
(387,338,l),
(185,735,l),
(173,735,l),
(21,0,l),
(132,0,l),
(200,343,l),
(221,447,l),
(267,343,l),
(444,0,l)
);
}
);
width = 895;
}
);
unicode = 77;
userData = {
com.typemytype.robofont.mark = (
0.656,
1,
0.6,
1
);
};
changeCount = 1;
},
{
glyphname = Mturned;
lastChange = "2023-10-15 01:29:00 +0000";
layers = (
{
layerId = "12ECCE5E-04E9-4725-8BD5-31F21F15BB81";
shapes = (
{
closed = 1;
nodes = (
(711,735,l),
(711,231,ls),
(711,146,o),
(648,77,o),
(578,77,cs),
(494,77,o),
(494,126,o),
(494,212,cs),
(494,735,l),
(386,735,l),
(386,231,ls),
(386,143,o),
(346,77,o),
(258,77,cs),
(193,77,o),
(178,125,o),
(178,228,cs),
(178,735,l),
(69,735,l),
(69,229,ls),
(69,76,o),
(90,-12,o),
(240,-12,cs),
(305,-12,o),
(370,21,o),
(399,73,c),
(416,23,o),
(459,-11,o),
(550,-12,cs),
(621,-12,o),
(682,18,o),
(712,83,c),
(712,0,l),
(820,0,l),
(820,735,l)
);
}
);
width = 897;
}
);
metricLeft = U;
metricRight = H;
unicode = 412;
},
{
color = 10;
glyphname = N;
lastChange = "2023-10-15 03:30:08 +0000";
layers = (
{
anchors = (
{
name = bottom;
pos = (355,0);
},
{
name = top;
pos = (348,735);
}
);
background = {
shapes = (
{
closed = 1;
nodes = (
(632,735,l),
(520,735,l),
(520,338,l),
(523,258,l),
(78,753,l),
(78,0,l),
(190,0,l),
(190,396,l),
(187,473,l),
(632,-18,l)
);
}
);
};
layerId = "12ECCE5E-04E9-4725-8BD5-31F21F15BB81";
shapes = (
{
closed = 1;
nodes = (
(632,0,l),
(632,735,l),
(520,735,l),
(520,338,l),
(524,254,l),
(92,736,l),
(78,736,l),
(78,0,l),
(190,0,l),
(190,396,l),
(187,476,l),
(617,0,l)
);
}
);
width = 710;
}
);
unicode = 78;
userData = {
com.typemytype.robofont.guides = (
{
angle = 0;
isGlobal = 0;
magnetic = 5;
x = 0;
y = 1146;
}
);
com.typemytype.robofont.mark = (
0.656,
1,
0.6,
1
);
};
},
{
color = 3;
glyphname = Eng;
lastChange = "2023-10-15 01:47:15 +0000";
layers = (
{
background = {
shapes = (
{
closed = 1;
nodes = (
(83,741,l),
(83,-1,l),
(196,-1,l),
(196,461,l),
(518,109,l),
(518,-17,ls),
(518,-106,o),
(487,-143,o),
(429,-143,cs),
(389,-143,o),
(348,-124,o),
(322,-101,c),
(274,-206,l),
(320,-236,o),
(386,-247,o),
(447,-247,cs),
(535,-247,o),
(635,-202,o),
(635,-44,cs),
(635,-19,l),
(635,-18,l),
(635,734,l),
(522,734,l),
(522,266,l),
(93,741,l)
);
}
);
};
layerId = "12ECCE5E-04E9-4725-8BD5-31F21F15BB81";
shapes = (
{
closed = 1;
nodes = (
(518,-17,ls),
(518,-106,o),
(487,-143,o),
(429,-143,cs),
(389,-143,o),
(348,-124,o),
(322,-101,c),
(274,-206,l),
(320,-236,o),
(386,-247,o),
(447,-247,cs),
(535,-247,o),
(635,-202,o),
(635,-44,cs),
(635,497,ls),
(635,650,o),
(578,747,o),
(401,747,cs),
(309,747,o),
(208,705,o),
(184,594,c),
(183,735,l),
(77,735,l),
(77,0,l),
(185,0,l),
(185,447,ls),
(185,546,o),
(260,658,o),
(385,658,cs),
(515,658,o),
(518,560,o),
(518,494,cs)
);
}
);
width = 704;
}
);
metricLeft = H;
metricRight = U;
unicode = 330;
userData = {
com.typemytype.robofont.mark = (
0.967,
0.6,
1,
1
);
};
},
{
glyphname = O;
lastChange = "2023-10-18 16:45:24 +0000";
layers = (
{
anchors = (
{
name = bottom;
pos = (416,0);
},
{
name = center;
pos = (416,368);
},
{
name = ogonek;
pos = (749,10);
},
{
name = top;
pos = (416,735);
},
{
name = topleft;
pos = (20,735);
},
{
name = topright;
pos = (812,735);
}
);
layerId = "12ECCE5E-04E9-4725-8BD5-31F21F15BB81";
shapes = (
{
closed = 1;
nodes = (
(615,-10,o),
(785,134,o),
(785,369,cs),
(785,606,o),
(614,747,o),
(416,747,cs),
(218,747,o),
(47,606,o),
(47,369,cs),
(47,134,o),
(217,-10,o),
(416,-10,cs)
);
},
{
closed = 1;
nodes = (
(284,91,o),
(166,188,o),
(166,368,cs),
(166,549,o),
(278,645,o),
(416,645,cs),
(553,645,o),
(666,549,o),
(666,368,cs),
(666,188,o),
(552,91,o),
(416,91,cs)
);
}
);
width = 832;
}
);
metricRight = "=|";
unicode = 79;
userData = {
com.typemytype.robofont.guides = (
{
angle = 0;
isGlobal = 0;
magnetic = 5;
x = 0;
y = 368;
}
);
com.typemytype.robofont.mark = (
0.656,
1,
0.6,
1
);
};
changeCount = 1;
},
{
glyphname = Ohorn;
lastChange = "2023-10-15 03:30:08 +0000";
layers = (
{
.lastUpdate = 719340325.933;
anchors = (
{
name = top;
pos = (416,725);
}
);
layerId = "12ECCE5E-04E9-4725-8BD5-31F21F15BB81";
shapes = (
{
closed = 1;
nodes = (
(745,649,o),
(808,717,o),
(808,781,cs),
(808,822,o),
(806,837,o),
(801,853,c),
(707,853,l),
(713,838,o),
(715,823,o),
(715,796,cs),
(715,735,o),
(655,698,o),
(585,698,c),
(669,649,l)
);
},
{
ref = O;
}
);
width = 832;
}
);
unicode = 416;
userData = {
com.typemytype.robofont.mark = (
1,
0.6,
0.6,
1
);
};
},
{
glyphname = Oogonek;
lastChange = "2018-06-22 22:17:12 +0000";
layers = (
{
.lastUpdate = 719340325.93;
layerId = "12ECCE5E-04E9-4725-8BD5-31F21F15BB81";
shapes = (
{
closed = 1;
nodes = (
(467,-264,o),
(485,-261,o),
(497,-259,c),
(497,-166,l),
(490,-167,o),
(473,-168,o),
(464,-168,cs),
(412,-168,o),
(394,-135,o),
(394,-108,cs),
(394,-45,o),
(452,-13,o),
(497,0,c),
(444,30,l),
(397,13,l),
(363,-6,o),
(297,-51,o),
(297,-130,cs),
(297,-227,o),
(360,-264,o),
(448,-264,cs)
);
},
{
ref = O;
}
);
width = 832;
}
);
metricLeft = O;
metricWidth = O;
unicode = 490;
},
{
color = 4;
glyphname = Oopen;
lastChange = "2023-10-15 03:30:08 +0000";
layers = (
{
anchors = (
{
name = bottom;
pos = (324,0);
},
{
name = top;
pos = (256,725);
}
);
layerId = "12ECCE5E-04E9-4725-8BD5-31F21F15BB81";
shapes = (
{
closed = 1;
nodes = (
(472,-7,o),
(606,167,o),
(606,369,cs),
(606,589,o),
(452,747,o),
(230,747,cs),
(122,747,o),
(46,705,o),
(31,690,c),
(80,590,l),
(116,622,o),
(168,644,o),
(239,644,cs),
(378,644,o),
(484,536,o),
(484,367,cs),
(484,217,o),
(397,95,o),
(241,95,cs),
(184,95,o),
(130,109,o),
(71,145,c),
(38,50,l),
(64,26,o),
(151,-7,o),
(237,-7,cs)
);
}
);
width = 649;
}
);
unicode = 390;
},
{
glyphname = Oslash;
lastChange = "2023-10-15 03:30:08 +0000";
layers = (
{
.lastUpdate = 719340325.924;
anchors = (
{
name = top;
pos = (416,725);
}
);
layerId = "12ECCE5E-04E9-4725-8BD5-31F21F15BB81";
shapes = (
{
closed = 1;
nodes = (
(646,803,l),
(590,828,l),
(178,-83,l),
(235,-109,l)
);
},
{
pos = (-1,0);
ref = O;
}
);
width = 829;
}
);
unicode = 216;
userData = {
com.typemytype.robofont.mark = (
0.656,
1,
0.6,
1
);
};
},
{
glyphname = OE;
lastChange = "2018-06-22 22:17:12 +0000";
layers = (
{
layerId = "12ECCE5E-04E9-4725-8BD5-31F21F15BB81";
shapes = (
{
closed = 1;
nodes = (
(515,-21,o),
(609,14,o),
(679,76,c),
(679,0,l),
(1009,0,l),
(1009,99,l),
(792,99,l),
(792,335,l),
(961,335,l),
(961,438,l),
(792,438,l),
(792,637,l),
(991,637,l),
(991,735,l),
(679,735,l),
(679,638,l),
(609,701,o),
(515,735,o),
(421,735,cs),
(230,735,o),
(47,599,o),
(47,360,cs),
(47,122,o),
(229,-21,o),
(421,-21,cs)
);
},
{
closed = 1;
nodes = (
(290,86,o),
(170,187,o),
(170,360,cs),
(170,533,o),
(290,630,o),
(421,630,cs),
(547,630,o),
(671,538,o),
(679,375,c),
(679,340,l),
(671,179,o),
(548,86,o),
(421,86,cs)
);
}
);
width = 1044;
}
);
metricLeft = O;
metricRight = E;
unicode = 338;
userData = {
com.typemytype.robofont.mark = (
0.656,
1,
0.6,
1
);
};
},
{
glyphname = P;
lastChange = "2023-10-15 03:30:08 +0000";
layers = (
{
anchors = (
{
name = bottom;
pos = (265,0);
},
{
name = top;
pos = (259,735);
}
);
layerId = "12ECCE5E-04E9-4725-8BD5-31F21F15BB81";
shapes = (
{
closed = 1;
nodes = (
(191,0,l),
(191,272,l),
(230,272,ls),
(414,272,o),
(504,360,o),
(504,516,cs),
(504,644,o),
(431,735,o),
(240,735,cs),
(78,735,l),
(78,0,l)
);
},
{
closed = 1;
nodes = (
(191,637,l),
(243,637,ls),
(359,637,o),
(391,573,o),
(391,504,cs),
(391,446,o),
(364,371,o),
(233,371,cs),
(191,371,l)
);
}
);
width = 530;
}
);
unicode = 80;
userData = {
com.typemytype.robofont.mark = (
0.656,
1,
0.6,
1
);
};
},
{
glyphname = Thorn;
lastChange = "2023-10-15 03:30:08 +0000";
layers = (
{
anchors = (
{
name = top;
pos = (324,725);
}
);
layerId = "12ECCE5E-04E9-4725-8BD5-31F21F15BB81";
shapes = (
{
closed = 1;
nodes = (
(215,0,l),
(215,135,l),
(234,135,ls),
(439,135,o),
(534,222,o),
(534,378,cs),
(534,505,o),
(447,598,o),
(236,598,cs),
(217,598,l),
(217,736,l),
(103,736,l),
(103,0,l)
);
},
{
closed = 1;
nodes = (
(215,499,l),
(258,499,ls),
(387,499,o),
(416,435,o),
(416,366,cs),
(416,308,o),
(391,234,o),
(256,234,cs),
(215,234,l)
);
}
);
width = 554;
}
);
unicode = 222;
userData = {
com.typemytype.robofont.mark = (
0.656,
1,
0.6,
1
);
};
},
{
glyphname = Q;
lastChange = "2023-10-15 03:30:08 +0000";
layers = (
{
.lastUpdate = 719340325.876;
anchors = (
{
name = top;
pos = (417,725);
}
);
layerId = "12ECCE5E-04E9-4725-8BD5-31F21F15BB81";
shapes = (
{
closed = 1;
nodes = (
(709,-94,l),
(605,67,l),
(605,67,o),
(574,117,o),
(574,117,c),
(519,206,l),
(407,206,l),
(490,72,l),
(490,72,o),
(523,21,o),
(523,21,c),
(598,-94,l)
);
},
{
ref = O;
}
);
width = 832;
}
);
metricLeft = O;
metricRight = O;
unicode = 81;
userData = {
com.typemytype.robofont.mark = (
0.656,
1,
0.6,
1
);
};
},
{
glyphname = R;
lastChange = "2023-10-18 16:45:24 +0000";
layers = (
{
anchors = (
{
name = top;
pos = (307,735);
}
);
layerId = "12ECCE5E-04E9-4725-8BD5-31F21F15BB81";
shapes = (
{
closed = 1;
nodes = (
(187,0,l),
(187,276,l),
(215,276,ls),
(240,276,o),
(285,277,o),
(307,279,c),
(390,298,l),
(488,336,o),
(536,412,o),
(536,512,cs),
(536,681,o),
(395,735,o),
(245,735,cs),
(78,735,l),
(78,0,l)
);
},
{
closed = 1;
nodes = (
(574,0,l),
(388,320,l),
(287,298,l),
(445,0,l)
);
},
{
closed = 1;
nodes = (
(187,642,l),
(254,642,ls),
(356,642,o),
(429,609,o),
(429,511,cs),
(429,451,o),
(404,367,o),
(258,367,cs),
(187,367,l)
);
}
);
width = 610;
}
);
unicode = 82;
userData = {
com.typemytype.robofont.mark = (
0.656,
1,
0.6,
1
);
};
changeCount = 1;
},
{
glyphname = S;
lastChange = "2023-10-18 16:45:24 +0000";
layers = (
{
anchors = (
{
name = bottom;
pos = (263,0);
},
{
name = top;
pos = (278,735);
}
);
layerId = "12ECCE5E-04E9-4725-8BD5-31F21F15BB81";
shapes = (
{
closed = 1;
nodes = (
(380,-10,o),
(483,62,o),
(483,199,cs),
(483,259,o),
(454,308,o),
(418,340,cs),
(329,422,o),
(166,451,o),
(166,556,cs),
(166,615,o),
(207,645,o),
(273,645,cs),
(329,645,o),
(377,620,o),
(400,596,c),
(453,687,l),
(426,709,o),
(373,746,o),
(278,746,cs),
(158,746,o),
(56,683,o),
(56,550,cs),
(56,459,o),
(101,405,o),
(153,370,cs),
(244,311,o),
(367,287,o),
(367,187,cs),
(367,126,o),
(315,93,o),
(247,93,cs),
(185,93,o),
(117,134,o),
(96,153,c),
(43,58,l),
(75,26,o),
(162,-10,o),
(247,-10,cs)
);
}
);
width = 525;
}
);
unicode = 83;
userData = {
com.typemytype.robofont.guides = (
{
angle = 0;
isGlobal = 0;
magnetic = 5;
x = 0;
y = 205;
}
);
com.typemytype.robofont.mark = (
0.656,
1,
0.6,
1
);
};
changeCount = 1;
},
{
color = 4;
glyphname = Germandbls;
lastChange = "2019-11-08 02:29:40 +0000";
layers = (
{
layerId = "12ECCE5E-04E9-4725-8BD5-31F21F15BB81";
shapes = (
{
closed = 1;
nodes = (
(186,0,l),
(186,642,l),
(431,642,l),
(272,415,l),
(272,340,l),
(324,340,l),
(421,340,o),
(473,294,o),
(473,224,cs),
(473,148,o),
(420,98,o),
(319,98,cs),
(272,98,l),
(272,0,l),
(318,0,ls),
(517,0,o),
(589,111,o),
(589,232,cs),
(589,316,o),
(511,419,o),
(391,419,c),
(556,648,l),
(556,735,l),
(77,735,l),
(77,0,l)
);
}
);
width = 642;
}
);
metricLeft = H;
metricRight = B;
unicode = 7838;
userData = {
com.typemytype.robofont.mark = (
0.967,
0.6,
1,
1
);
};
},
{
color = 8;
glyphname = T;
lastChange = "2023-10-18 16:45:24 +0000";
layers = (
{
anchors = (
{
name = bottom;
pos = (275,0);
},
{
name = center;
pos = (275,368);
},
{
name = top;
pos = (274,735);
}
);
layerId = "12ECCE5E-04E9-4725-8BD5-31F21F15BB81";
shapes = (
{
closed = 1;
nodes = (
(329,0,l),
(329,637,l),
(519,637,l),
(519,735,l),
(30,735,l),
(30,637,l),
(218,637,l),
(218,0,l)
);
}
);
width = 549;
}
);
unicode = 84;
userData = {
com.typemytype.robofont.mark = (
0.656,
1,
0.6,
1
);
};
changeCount = 1;
},
{
color = 4;
glyphname = Tbar;
lastChange = "2019-11-08 02:27:39 +0000";
layers = (
{
.lastUpdate = 719340325.943;
layerId = "12ECCE5E-04E9-4725-8BD5-31F21F15BB81";
shapes = (
{
closed = 1;
nodes = (
(445,361,l),
(445,444,l),
(105,444,l),
(105,361,l)
);
},
{
ref = T;
}
);
width = 549;
}
);
metricLeft = T;
metricRight = T;
unicode = 358;
userData = {
com.typemytype.robofont.mark = (
0.967,
0.6,
1,
1
);
};
},
{
glyphname = U;
lastChange = "2023-10-18 16:45:24 +0000";
layers = (
{
anchors = (
{
name = bottom;
pos = (331,0);
},
{
name = ogonek;
pos = (596,10);
},
{
name = top;
pos = (335,735);
},
{
name = topright;
pos = (642,735);
}
);
layerId = "12ECCE5E-04E9-4725-8BD5-31F21F15BB81";
shapes = (
{
closed = 1;
nodes = (
(509,-10,o),
(593,108,o),
(593,314,cs),
(593,735,l),
(480,735,l),
(480,312,ls),
(480,152,o),
(436,94,o),
(331,94,cs),
(225,94,o),
(181,156,o),
(181,312,cs),
(181,735,l),
(69,735,l),
(69,314,ls),
(69,113,o),
(140,-10,o),
(331,-10,cs)
);
}
);
width = 662;
}
);
unicode = 85;
userData = {
com.typemytype.robofont.mark = (
0.656,
1,
0.6,
1
);
};
changeCount = 1;
},
{
glyphname = Uhorn;
lastChange = "2018-06-22 21:14:20 +0000";
layers = (
{
.lastUpdate = 719340325.909;
layerId = "12ECCE5E-04E9-4725-8BD5-31F21F15BB81";
shapes = (
{
closed = 1;
nodes = (
(600,686,o),
(677,717,o),
(677,781,cs),
(677,822,o),
(675,837,o),
(670,853,c),
(576,853,l),
(582,838,o),
(584,823,o),
(584,796,cs),
(584,735,o),
(497,735,o),
(480,735,c),
(564,686,l)
);
},
{
ref = U;
}
);
width = 656;
}
);
metricLeft = U;
unicode = 431;
userData = {
com.typemytype.robofont.mark = (
1,
0.6,
0.6,
1
);
};
},
{
glyphname = Uogonek;
lastChange = "2018-06-22 22:17:12 +0000";
layers = (
{
.lastUpdate = 719340325.838;
layerId = "12ECCE5E-04E9-4725-8BD5-31F21F15BB81";
shapes = (
{
closed = 1;
nodes = (
(377,-264,o),
(395,-261,o),
(407,-259,c),
(407,-166,l),
(400,-167,o),
(383,-168,o),
(374,-168,cs),
(322,-168,o),
(304,-135,o),
(304,-108,cs),
(304,-45,o),
(362,-13,o),
(407,0,c),
(354,30,l),
(307,13,l),
(273,-6,o),
(207,-51,o),
(207,-130,cs),
(207,-227,o),
(270,-264,o),
(358,-264,cs)
);
},
{
ref = U;
}
);
width = 662;
}
);
metricLeft = U;
metricRight = U;
unicode = 370;
userData = {
com.typemytype.robofont.mark = (
0.967,
0.6,
1,
1
);
};
},
{
glyphname = "Upsilon-latin";
lastChange = "2023-10-18 16:40:25 +0000";
layers = (
{
.lastUpdate = 719340025.295;
layerId = "12ECCE5E-04E9-4725-8BD5-31F21F15BB81";
shapes = (
{
closed = 1;
nodes = (
(521,735,l),
(521,656,l),
(631,555,o),
(678,445,o),
(678,341,cs),
(678,194,o),
(613,94,o),
(462,94,cs),
(310,94,o),
(245,194,o),
(245,341,cs),
(245,445,o),
(272,555,o),
(402,656,c),
(402,735,l),
(106,735,l),
(106,636,l),
(265,636,l),
(193,571,o),
(124,471,o),
(124,341,cs),
(124,105,o),
(286,-12,o),
(462,-12,cs),
(636,-12,o),
(799,105,o),
(799,341,cs),
(799,471,o),
(729,571,o),
(657,636,c),
(817,636,l),
(817,735,l)
);
}
);
width = 923;
}
);
unicode = 433;
},
{
color = 10;
glyphname = V;
lastChange = "2023-10-18 16:45:24 +0000";
layers = (
{
anchors = (
{
name = bottom;
pos = (331,0);
},
{
name = top;
pos = (331,735);
}
);
background = {
shapes = (
{
closed = 1;
nodes = (
(678,735,l),
(552,735,l),
(331,231,l),
(111,735,l),
(-16,735,l),
(332,-14,l)
);
},
{
closed = 1;
nodes = (
(678,735,l),
(552,735,l),
(331,231,l),
(111,735,l),
(-16,735,l),
(331,-14,l),
(332,-14,l)
);
}
);
};
layerId = "12ECCE5E-04E9-4725-8BD5-31F21F15BB81";
shapes = (
{
closed = 1;
nodes = (
(339,0,l),
(678,735,l),
(552,735,l),
(331,230,l),
(111,735,l),
(-16,735,l),
(324,0,l)
);
}
);
width = 662;
}
);
unicode = 86;
userData = {
com.typemytype.robofont.mark = (
0.656,
1,
0.6,
1
);
};
changeCount = 1;
},
{
glyphname = Vturned;
lastChange = "2023-10-15 01:25:28 +0000";
layers = (
{
layerId = "12ECCE5E-04E9-4725-8BD5-31F21F15BB81";
shapes = (
{
closed = 1;
nodes = (
(-16,0,l),
(111,0,l),
(331,505,l),
(552,0,l),
(678,0,l),
(339,735,l),
(324,735,l)
);
}
);
width = 662;
}
);
unicode = 581;
},
{
color = 10;
glyphname = W;
lastChange = "2023-10-18 16:45:24 +0000";
layers = (
{
anchors = (
{
name = bottom;
pos = (492,0);
},
{
name = top;
pos = (492,735);
}
);
background = {
shapes = (
{
closed = 1;
nodes = (
(491,478,l),
(698,-14,l),
(991,735,l),
(872,735,l),
(696,269,l),
(492,750,l),
(287,269,l),
(111,735,l),
(-8,735,l),
(285,-14,l)
);
},
{
closed = 1;
nodes = (
(491,478,l),
(697,-14,l),
(698,-14,l),
(991,735,l),
(872,735,l),
(696,269,l),
(492,750,l),
(287,269,l),
(111,735,l),
(-8,735,l),
(285,-14,l),
(286,-14,l)
);
}
);
};
layerId = "12ECCE5E-04E9-4725-8BD5-31F21F15BB81";
shapes = (
{
closed = 1;
nodes = (
(489,739,l),
(287,262,l),
(111,735,l),
(-8,735,l),
(278,1,l),
(292,1,l),
(491,476,l),
(691,0,l),
(705,0,l),
(991,735,l),
(872,735,l),
(696,262,l),
(495,739,l)
);
}
);
width = 983;
}
);
unicode = 87;
userData = {
com.typemytype.robofont.guides = (
{
angle = 90;
isGlobal = 0;
magnetic = 5;
x = 492;
y = 0;
}
);
com.typemytype.robofont.mark = (
0.656,
1,
0.6,
1
);
};
changeCount = 1;
},
{
glyphname = X;
lastChange = "2023-10-18 16:45:24 +0000";
layers = (
{
anchors = (
{
name = top;
pos = (302,735);
}
);
layerId = "12ECCE5E-04E9-4725-8BD5-31F21F15BB81";
shapes = (
{
closed = 1;
nodes = (
(139,0,l),
(298,291,l),
(460,0,l),
(593,0,l),
(359,385,l),
(572,735,l),
(440,735,l),
(297,478,l),
(158,735,l),
(23,735,l),
(235,383,l),
(10,0,l)
);
}
);
width = 603;
}
);
unicode = 88;
userData = {
com.typemytype.robofont.mark = (
0.656,
1,
0.6,
1
);
};
changeCount = 1;
},
{
glyphname = Y;
lastChange = "2023-10-18 16:45:24 +0000";
layers = (
{
anchors = (
{
name = bottom;
pos = (295,0);
},
{
name = top;
pos = (295,735);
},
{
name = topleft;
pos = (20,735);
}
);
layerId = "12ECCE5E-04E9-4725-8BD5-31F21F15BB81";
shapes = (
{
closed = 1;
nodes = (
(351,0,l),
(351,341,l),
(605,735,l),
(472,735,l),
(295,445,l),
(118,735,l),
(-16,735,l),
(239,343,l),
(239,0,l)
);
}
);
width = 589;
}
);
unicode = 89;
userData = {
com.typemytype.robofont.guides = (
{
angle = 0;
isGlobal = 0;
magnetic = 5;
x = 0;
y = 361;
},
{
angle = 90;
isGlobal = 0;
magnetic = 5;
x = 295;
y = 0;
}
);
com.typemytype.robofont.mark = (
0.656,
1,
0.6,
1
);
};
changeCount = 1;
},
{
glyphname = Yhook;
lastChange = "2023-10-15 02:09:08 +0000";
layers = (
{
anchors = (
{
name = bottom;
pos = (295,0);
},
{
name = top;
pos = (295,735);
},
{
name = topleft;
pos = (20,735);
}
);
layerId = "12ECCE5E-04E9-4725-8BD5-31F21F15BB81";
shapes = (
{
closed = 1;
nodes = (
(351,0,l),
(351,341,l),
(478,545,ls),
(517,608,o),
(549,652,o),
(598,652,cs),
(624,652,o),
(645,637,o),
(652,629,c),
(673,731,l),
(664,735,o),
(635,750,o),
(585,750,cs),
(478,750,o),
(438,678,o),
(412,636,cs),
(295,445,l),
(118,735,l),
(-16,735,l),
(239,343,l),
(239,0,l)
);
}
);
width = 673;
}
);
metricLeft = Y;
unicode = 435;
},
{
color = 8;
glyphname = Z;
lastChange = "2023-10-18 16:45:24 +0000";
layers = (
{
anchors = (
{
name = bottom;
pos = (290,0);
},
{
name = center;
pos = (290,368);
},
{
name = top;
pos = (293,725);
}
);
layerId = "12ECCE5E-04E9-4725-8BD5-31F21F15BB81";
shapes = (
{
closed = 1;
nodes = (
(537,0,l),
(537,98,l),
(189,98,l),
(552,735,l),
(55,735,l),
(55,639,l),
(376,639,l),
(8,0,l)
);
}
);
width = 580;
}
);
unicode = 90;
userData = {
com.typemytype.robofont.mark = (
0.656,
1,
0.6,
1
);
};
changeCount = 1;
},
{
glyphname = Saltillo;
lastChange = "2023-10-15 01:23:01 +0000";
layers = (
{
layerId = "12ECCE5E-04E9-4725-8BD5-31F21F15BB81";
shapes = (
{
closed = 1;
nodes = (
(203,341,l),
(203,735,l),
(91,735,l),
(91,341,l)
);
}
);
width = 294;
}
);
unicode = 42891;
},
{
glyphname = Eng.loclNSM;
lastChange = "2023-10-15 01:45:33 +0000";
layers = (
{
layerId = "12ECCE5E-04E9-4725-8BD5-31F21F15BB81";
shapes = (
{
closed = 1;
nodes = (
(77,735,l),
(77,-1,l),
(190,-1,l),
(190,461,l),
(512,109,l),
(512,-17,ls),
(512,-106,o),
(481,-143,o),
(423,-143,cs),
(383,-143,o),
(342,-124,o),
(316,-101,c),
(268,-206,l),
(314,-236,o),
(380,-247,o),
(441,-247,cs),
(529,-247,o),
(629,-202,o),
(629,-44,cs),
(629,-19,l),
(629,-18,l),
(629,734,l),
(516,734,l),
(516,266,l),
(87,735,l)
);
}
);
width = 706;
}
);
},
{
glyphname = a;
lastChange = "2023-10-15 03:30:10 +0000";
layers = (
{
anchors = (
{
name = bottom;
pos = (308,0);
},
{
name = ogonek;
pos = (554,10);
},
{
name = top;
pos = (303,459);
}
);
layerId = "12ECCE5E-04E9-4725-8BD5-31F21F15BB81";
shapes = (
{
closed = 1;
nodes = (
(354,-10,o),
(416,37,o),
(437,81,c),
(439,0,l),
(541,0,l),
(541,459,l),
(438,459,l),
(436,382,l),
(420,420,o),
(354,471,o),
(270,471,cs),
(130,471,o),
(44,375,o),
(44,231,cs),
(44,81,o),
(151,-10,o),
(274,-10,cs)
);
},
{
closed = 1;
nodes = (
(202,80,o),
(158,144,o),
(158,230,cs),
(158,314,o),
(203,379,o),
(292,379,cs),
(366,379,o),
(427,319,o),
(427,230,cs),
(427,223,ls),
(427,135,o),
(365,80,o),
(292,80,cs)
);
}
);
width = 615;
}
);
unicode = 97;
userData = {
com.typemytype.robofont.guides = (
{
angle = 0;
isGlobal = 0;
magnetic = 5;
x = 0;
y = 399;
}
);
com.typemytype.robofont.mark = (
0.656,
1,
0.6,
1
);
};
},
{
color = 4;
glyphname = aogonek;
lastChange = "2019-11-08 02:16:29 +0000";
layers = (
{
.lastUpdate = 719340318.244;
layerId = "12ECCE5E-04E9-4725-8BD5-31F21F15BB81";
shapes = (
{
closed = 1;
nodes = (
(507,-253,o),
(525,-250,o),
(537,-248,c),
(537,-165,l),
(530,-166,o),
(513,-167,o),
(504,-167,cs),
(452,-167,o),
(434,-134,o),
(434,-107,cs),
(434,-44,o),
(492,-13,o),
(537,0,c),
(484,31,l),
(442,14,l),
(408,-5,o),
(337,-50,o),
(337,-129,cs),
(337,-216,o),
(400,-253,o),
(488,-253,cs)
);
},
{
ref = a;
}
);
width = 615;
}
);
metricLeft = a;
metricRight = a;
unicode = 261;
userData = {
com.typemytype.robofont.mark = (
0.967,
0.6,
1,
1
);
};
},
{
color = 8;
glyphname = ae;
lastChange = "2023-10-15 03:30:10 +0000";
layers = (
{
anchors = (
{
name = bottom;
pos = (448,0);
},
{
name = top;
pos = (461,459);
}
);
background = {
shapes = (
{
closed = 1;
nodes = (
(558,50,o),
(598,-10,o),
(723,-10,cs),
(813,-10,o),
(867,12,o),
(895,30,c),
(862,107,l),
(835,93,o),
(798,77,o),
(726,77,cs),
(651,77,o),
(599,120,o),
(592,192,c),
(922,192,l),
(924,211,o),
(925,230,o),
(925,248,cs),
(925,384,o),
(861,471,o),
(716,471,cs),
(614,471,o),
(562,419,o),
(527,332,c),
(527,130,l)
);
},
{
closed = 1;
nodes = (
(598,347,o),
(646,380,o),
(713,380,cs),
(777,380,o),
(821,354,o),
(820,267,c),
(591,267,l)
);
}
);
};
layerId = "12ECCE5E-04E9-4725-8BD5-31F21F15BB81";
shapes = (
{
closed = 1;
nodes = (
(334,-10,o),
(393,44,o),
(408,123,c),
(428,0,l),
(500,0,l),
(500,459,l),
(418,459,l),
(416,356,l),
(390,420,o),
(334,471,o),
(250,471,cs),
(131,471,o),
(44,375,o),
(44,231,cs),
(44,81,o),
(131,-10,o),
(254,-10,cs)
);
},
{
closed = 1;
nodes = (
(192,80,o),
(158,144,o),
(158,230,cs),
(158,314,o),
(193,379,o),
(272,379,cs),
(346,379,o),
(407,325,o),
(407,248,cs),
(407,241,ls),
(407,153,o),
(345,80,o),
(272,80,cs)
);
},
{
closed = 1;
nodes = (
(741,-10,o),
(796,12,o),
(823,30,c),
(790,107,l),
(763,93,o),
(726,77,o),
(654,77,cs),
(579,77,o),
(535,109,o),
(520,192,c),
(850,192,l),
(852,211,o),
(853,230,o),
(853,248,cs),
(853,384,o),
(789,471,o),
(644,471,cs),
(552,471,o),
(462,396,o),
(462,247,cs),
(462,178,o),
(493,-10,o),
(651,-10,cs)
);
},
{
closed = 1;
nodes = (
(531,347,o),
(574,380,o),
(641,380,cs),
(705,380,o),
(749,354,o),
(748,267,c),
(520,267,l)
);
}
);
width = 895;
}
);
metricLeft = a;
metricRight = e;
unicode = 230;
userData = {
com.typemytype.robofont.mark = (
0.656,
1,
0.6,
1
);
};
},
{
glyphname = b;
lastChange = "2023-10-15 03:30:10 +0000";
layers = (
{
anchors = (
{
name = bottom;
pos = (309,0);
},
{
name = center;
pos = (309,230);
},
{
name = top;
pos = (128,725);
}
);
layerId = "12ECCE5E-04E9-4725-8BD5-31F21F15BB81";
shapes = (
{
closed = 1;
nodes = (
(466,-10,o),
(573,79,o),
(573,229,cs),
(573,373,o),
(488,471,o),
(350,471,cs),
(270,471,o),
(198,425,o),
(176,374,c),
(181,452,l),
(181,735,l),
(75,735,l),
(75,0,l),
(179,0,l),
(181,81,l),
(202,37,o),
(263,-10,o),
(343,-10,cs)
);
},
{
closed = 1;
nodes = (
(251,80,o),
(191,140,o),
(190,229,cs),
(190,236,ls),
(190,324,o),
(252,379,o),
(325,379,cs),
(416,379,o),
(460,315,o),
(460,229,c),
(460,145,o),
(415,80,o),
(325,80,cs)
);
}
);
width = 617;
}
);
unicode = 98;
userData = {
com.typemytype.robofont.mark = (
0.656,
1,
0.6,
1
);
};
},
{
color = 3;
glyphname = bhook;
lastChange = "2023-10-15 01:59:47 +0000";
layers = (
{
anchors = (
{
name = bottom;
pos = (322,0);
},
{
name = center;
pos = (324,230);
},
{
name = top;
pos = (128,725);
}
);
layerId = "12ECCE5E-04E9-4725-8BD5-31F21F15BB81";
shapes = (
{
closed = 1;
nodes = (
(466,-10,o),
(573,79,o),
(573,229,cs),
(573,373,o),
(488,471,o),
(350,471,cs),
(270,471,o),
(198,425,o),
(176,374,c),
(181,452,l),
(181,542,ls),
(181,622,o),
(221,649,o),
(269,649,cs),
(314,649,o),
(335,634,o),
(342,626,c),
(363,728,l),
(354,732,o),
(322,747,o),
(266,747,cs),
(132,747,o),
(75,659,o),
(75,538,cs),
(75,0,l),
(179,0,l),
(181,81,l),
(202,37,o),
(263,-10,o),
(343,-10,cs)
);
},
{
closed = 1;
nodes = (
(251,80,o),
(191,140,o),
(190,229,cs),
(190,236,ls),
(190,324,o),
(252,379,o),
(325,379,cs),
(416,379,o),
(460,315,o),
(460,229,cs),
(460,145,o),
(415,80,o),
(325,80,cs)
);
}
);
width = 617;
}
);
unicode = 595;
},
{
color = 4;
glyphname = bilabialclick;
lastChange = "2023-10-15 01:12:35 +0000";
layers = (
{
layerId = "12ECCE5E-04E9-4725-8BD5-31F21F15BB81";
shapes = (
{
closed = 1;
nodes = (
(615,-10,o),
(785,134,o),
(785,369,cs),
(785,606,o),
(614,747,o),
(416,747,cs),
(218,747,o),
(47,606,o),
(47,369,cs),
(47,134,o),
(217,-10,o),
(416,-10,cs)
);
},
{
closed = 1;
nodes = (
(284,91,o),
(166,188,o),
(166,368,cs),
(166,549,o),
(278,645,o),
(416,645,cs),
(553,645,o),
(666,549,o),
(666,368,cs),
(666,188,o),
(552,91,o),
(416,91,cs)
);
},
{
closed = 1;
nodes = (
(458,297,o),
(490,328,o),
(490,370,cs),
(490,410,o),
(458,441,o),
(416,441,cs),
(375,441,o),
(345,410,o),
(345,370,cs),
(345,328,o),
(376,297,o),
(416,297,cs)
);
}
);
width = 832;
}
);
unicode = 664;
},
{
glyphname = c;
lastChange = "2023-10-18 16:45:24 +0000";
layers = (
{
anchors = (
{
name = bottom;
pos = (233,0);
},
{
name = top;
pos = (261,459);
}
);
layerId = "12ECCE5E-04E9-4725-8BD5-31F21F15BB81";
shapes = (
{
closed = 1;
nodes = (
(356,-10,o),
(410,15,o),
(434,34,c),
(395,110,l),
(375,95,o),
(333,80,o),
(289,80,cs),
(206,80,o),
(158,138,o),
(158,236,cs),
(158,320,o),
(201,379,o),
(289,379,cs),
(344,379,o),
(375,346,o),
(384,337,c),
(432,424,l),
(407,446,o),
(357,471,o),
(280,471,cs),
(139,471,o),
(44,379,o),
(44,235,cs),
(44,80,o),
(151,-10,o),
(285,-10,cs)
);
}
);
width = 466;
}
);
unicode = 99;
userData = {
com.typemytype.robofont.mark = (
0.656,
1,
0.6,
1
);
};
changeCount = 1;
},
{
glyphname = d;
lastChange = "2023-10-18 16:45:24 +0000";
layers = (
{
anchors = (
{
name = bottom;
pos = (307,0);
},
{
name = car;
pos = (613,725);
},
{
name = center;
pos = (307,230);
},
{
name = top;
pos = (226,725);
},
{
name = topright;
pos = (594,1100);
}
);
layerId = "12ECCE5E-04E9-4725-8BD5-31F21F15BB81";
shapes = (
{
closed = 1;
nodes = (
(354,-10,o),
(416,37,o),
(437,81,c),
(439,0,l),
(542,0,l),
(542,735,l),
(436,735,l),
(436,452,l),
(441,374,l),
(419,425,o),
(350,471,o),
(270,471,cs),
(130,471,o),
(44,376,o),
(44,231,cs),
(44,81,o),
(151,-10,o),
(274,-10,cs)
);
},
{
closed = 1;
nodes = (
(202,81,o),
(158,145,o),
(158,231,cs),
(158,315,o),
(203,380,o),
(292,380,cs),
(366,380,o),
(427,320,o),
(427,231,cs),
(427,224,ls),
(427,136,o),
(365,81,o),
(292,81,cs)
);
}
);
width = 614;
}
);
unicode = 100;
userData = {
com.typemytype.robofont.guides = (
{
angle = 90;
isGlobal = 0;
magnetic = 5;
x = 436;
y = 0;
}
);
com.typemytype.robofont.mark = (
0.656,
1,
0.6,
1
);
};
changeCount = 1;
},
{
color = 4;
glyphname = dcroat;
lastChange = "2019-11-08 02:19:51 +0000";
layers = (
{
.lastUpdate = 719340325.908;
layerId = "12ECCE5E-04E9-4725-8BD5-31F21F15BB81";
shapes = (
{
closed = 1;
nodes = (
(612,562,l),
(612,633,l),
(333,633,l),
(333,562,l)
);
},
{
ref = d;
}
);
width = 614;
}
);
metricLeft = d;
metricWidth = d;
unicode = 273;
userData = {
com.typemytype.robofont.mark = (
0.967,
0.6,
1,
1
);
};
},
{
glyphname = dhook;
lastChange = "2023-10-15 01:58:03 +0000";
layers = (
{
anchors = (
{
name = bottom;
pos = (292,0);
},
{
name = car;
pos = (613,725);
},
{
name = center;
pos = (292,230);
},
{
name = top;
pos = (270,699);
},
{
name = topright;
pos = (594,1100);
}
);
layerId = "12ECCE5E-04E9-4725-8BD5-31F21F15BB81";
shapes = (
{
closed = 1;
nodes = (
(354,-10,o),
(416,37,o),
(437,81,c),
(439,0,l),
(542,0,l),
(541,562,ls),
(542,639,o),
(571,649,o),
(599,649,cs),
(618,649,o),
(639,634,o),
(646,626,c),
(667,728,l),
(658,736,o),
(626,747,o),
(596,747,cs),
(492,747,o),
(436,676,o),
(436,558,cs),
(436,452,l),
(441,374,l),
(419,425,o),
(350,471,o),
(270,471,cs),
(130,471,o),
(44,376,o),
(44,231,cs),
(44,81,o),
(151,-10,o),
(274,-10,cs)
);
},
{
closed = 1;
nodes = (
(202,81,o),
(158,145,o),
(158,231,cs),
(158,315,o),
(203,380,o),
(292,380,cs),
(366,380,o),
(427,320,o),
(427,231,cs),
(427,224,ls),
(427,136,o),
(365,81,o),
(292,81,cs)
);
}
);
width = 687;
}
);
unicode = 599;
},
{
glyphname = eth;
lastChange = "2018-06-22 22:17:12 +0000";
layers = (
{
layerId = "12ECCE5E-04E9-4725-8BD5-31F21F15BB81";
shapes = (
{
closed = 1;
nodes = (
(423,-9,o),
(523,75,o),
(523,281,cs),
(523,451,o),
(433,584,o),
(330,659,c),
(386,722,l),
(333,774,l),
(272,705,l),
(236,730,o),
(200,753,o),
(164,772,c),
(118,713,l),
(157,691,o),
(186,670,o),
(219,642,c),
(159,582,l),
(211,530,l),
(272,597,l),
(340,540,o),
(383,479,o),
(408,411,c),
(380,434,o),
(337,451,o),
(273,451,cs),
(147,451,o),
(44,365,o),
(44,219,cs),
(44,83,o),
(150,-9,o),
(287,-9,cs)
);
},
{
closed = 1;
nodes = (
(217,83,o),
(159,122,o),
(159,219,cs),
(159,316,o),
(202,359,o),
(278,359,cs),
(336,359,o),
(370,352,o),
(408,314,c),
(415,289,o),
(419,252,o),
(419,231,cs),
(419,136,o),
(354,83,o),
(287,83,cs)
);
}
);
width = 565;
}
);
metricLeft = o;
unicode = 240;
userData = {
com.typemytype.robofont.mark = (
0.656,
1,
0.6,
1
);
};
},
{
glyphname = e;
lastChange = "2023-10-18 16:45:24 +0000";
layers = (
{
anchors = (
{
name = bottom;
pos = (266,0);
},
{
name = ogonek;
pos = (479,10);
},
{
name = top;
pos = (272,459);
}
);
layerId = "12ECCE5E-04E9-4725-8BD5-31F21F15BB81";
shapes = (
{
closed = 1;
nodes = (
(378,-10,o),
(433,12,o),
(460,30,c),
(427,107,l),
(400,93,o),
(363,77,o),
(291,77,cs),
(216,77,o),
(172,109,o),
(157,192,c),
(487,192,l),
(489,211,o),
(490,230,o),
(490,248,cs),
(490,384,o),
(426,471,o),
(281,471,cs),
(144,471,o),
(44,378,o),
(44,229,cs),
(44,104,o),
(116,-10,o),
(288,-10,cs)
);
},
{
closed = 1;
nodes = (
(168,347,o),
(211,380,o),
(278,380,cs),
(342,380,o),
(386,354,o),
(385,267,c),
(157,267,l)
);
}
);
width = 532;
}
);
unicode = 101;
userData = {
com.typemytype.robofont.mark = (
0.656,
1,
0.6,
1
);
};
changeCount = 1;
},
{
color = 4;
glyphname = eogonek;
lastChange = "2019-11-08 02:15:56 +0000";
layers = (
{
.lastUpdate = 719340325.89;
layerId = "12ECCE5E-04E9-4725-8BD5-31F21F15BB81";
shapes = (
{
closed = 1;
nodes = (
(384,-244,o),
(402,-241,o),
(414,-239,c),
(414,-156,l),
(407,-157,o),
(390,-158,o),
(381,-158,cs),
(329,-158,o),
(311,-125,o),
(311,-98,cs),
(311,-35,o),
(369,-3,o),
(414,10,c),
(361,40,l),
(314,23,l),
(280,4,o),
(214,-41,o),
(214,-120,cs),
(214,-207,o),
(277,-244,o),
(365,-244,cs)
);
},
{
ref = e;
}
);
width = 532;
}
);
metricLeft = e;
metricWidth = e;
unicode = 281;
userData = {
com.typemytype.robofont.mark = (
0.967,
0.6,
1,
1
);
};
},
{
glyphname = esh;
lastChange = "2023-10-15 03:25:08 +0000";
layers = (
{
layerId = "12ECCE5E-04E9-4725-8BD5-31F21F15BB81";
shapes = (
{
closed = 1;
nodes = (
(154,-92,ls),
(155,-168,o),
(117,-180,o),
(80,-180,cs),
(49,-180,o),
(33,-167,o),
(18,-159,c),
(0,-258,l),
(9,-262,o),
(42,-277,o),
(82,-277,cs),
(203,-277,o),
(264,-210,o),
(262,-91,cs),
(253,562,ls),
(252,638,o),
(290,650,o),
(327,650,cs),
(358,650,o),
(374,637,o),
(389,629,c),
(407,728,l),
(398,732,o),
(365,747,o),
(325,747,cs),
(204,747,o),
(143,680,o),
(145,561,cs)
);
}
);
width = 407;
}
);
metricRight = f;
unicode = 643;
},
{
glyphname = ezh;
lastChange = "2023-10-15 03:36:25 +0000";
layers = (
{
anchors = (
{
name = bottom;
pos = (263,0);
},
{
name = top;
pos = (263,459);
}
);
layerId = "12ECCE5E-04E9-4725-8BD5-31F21F15BB81";
shapes = (
{
closed = 1;
nodes = (
(390,-281,o),
(482,-184,o),
(482,-32,cs),
(482,88,o),
(409,177,o),
(294,182,c),
(478,459,l),
(57,459,l),
(57,361,l),
(302,361,l),
(139,95,l),
(161,99,o),
(193,101,o),
(221,101,cs),
(315,101,o),
(374,59,o),
(374,-40,cs),
(374,-131,o),
(300,-179,o),
(222,-179,cs),
(161,-179,o),
(103,-147,o),
(72,-120,c),
(30,-215,l),
(65,-254,o),
(153,-281,o),
(227,-281,cs)
);
}
);
width = 526;
}
);
metricLeft = t;
metricRight = b;
unicode = 658;
},
{
color = 4;
glyphname = f;
lastChange = "2023-10-18 16:45:24 +0000";
layers = (
{
anchors = (
{
name = bottom;
pos = (181,0);
},
{
name = top;
pos = (173,680);
}
);
layerId = "12ECCE5E-04E9-4725-8BD5-31F21F15BB81";
shapes = (
{
closed = 1;
nodes = (
(220,0,l),
(220,373,l),
(328,373,l),
(328,459,l),
(220,459,l),
(220,562,l),
(221,639,o),
(260,649,o),
(288,649,cs),
(313,649,o),
(334,634,o),
(341,626,c),
(362,728,l),
(353,732,o),
(321,747,o),
(285,747,cs),
(171,747,o),
(114,676,o),
(114,558,cs),
(114,459,l),
(40,459,l),
(40,373,l),
(114,373,l),
(114,0,l)
);
}
);
width = 362;
}
);
unicode = 102;
userData = {
com.typemytype.robofont.mark = (
0.656,
1,
0.6,
1
);
};
changeCount = 1;
},
{
glyphname = g;
lastChange = "2023-10-18 16:45:24 +0000";
layers = (
{
anchors = (
{
name = bottom;
pos = (304,-275);
},
{
name = top;
pos = (290,459);
}
);
layerId = "12ECCE5E-04E9-4725-8BD5-31F21F15BB81";
shapes = (
{
closed = 1;
nodes = (
(466,-240,o),
(540,-148,o),
(540,3,c),
(540,459,l),
(438,459,l),
(436,382,l),
(420,420,o),
(353,471,o),
(269,471,cs),
(130,471,o),
(44,373,o),
(44,232,cs),
(44,83,o),
(142,-10,o),
(262,-10,cs),
(341,-10,o),
(407,31,o),
(434,81,c),
(434,-1,l),
(433,-127,o),
(352,-143,o),
(291,-143,cs),
(224,-143,o),
(179,-121,o),
(147,-100,c),
(123,-200,l),
(141,-210,o),
(216,-240,o),
(294,-240,cs)
);
},
{
closed = 1;
nodes = (
(202,81,o),
(158,145,o),
(158,231,cs),
(158,315,o),
(203,380,o),
(292,380,cs),
(366,380,o),
(427,320,o),
(427,231,cs),
(427,224,ls),
(427,136,o),
(365,81,o),
(292,81,cs)
);
}
);
width = 607;
}
);
unicode = 103;
userData = {
com.typemytype.robofont.mark = (
0.656,
1,
0.6,
1
);
};
changeCount = 1;
},
{
glyphname = gstroke;
lastChange = "2023-10-15 03:34:45 +0000";
layers = (
{
anchors = (
{
name = bottom;
pos = (304,-275);
},
{
name = top;
pos = (290,459);
}
);
layerId = "12ECCE5E-04E9-4725-8BD5-31F21F15BB81";
shapes = (
{
closed = 1;
nodes = (
(466,-283,o),
(540,-191,o),
(540,-40,c),
(540,459,l),
(438,459,l),
(436,382,l),
(420,420,o),
(353,471,o),
(269,471,cs),
(130,471,o),
(44,373,o),
(44,232,cs),
(44,83,o),
(142,-10,o),
(262,-10,cs),
(341,-10,o),
(407,31,o),
(434,81,c),
(434,-44,l),
(433,-170,o),
(352,-186,o),
(291,-186,cs),
(224,-186,o),
(179,-164,o),
(147,-143,c),
(123,-243,l),
(141,-253,o),
(216,-283,o),
(294,-283,cs)
);
},
{
closed = 1;
nodes = (
(202,81,o),
(158,145,o),
(158,231,cs),
(158,315,o),
(203,380,o),
(292,380,cs),
(366,380,o),
(427,320,o),
(427,231,cs),
(427,224,ls),
(427,136,o),
(365,81,o),
(292,81,cs)
);
},
{
closed = 1;
nodes = (
(605,-134,l),
(605,-38,l),
(322,-38,l),
(322,-134,l)
);
}
);
width = 607;
}
);
unicode = 485;
},
{
glyphname = h;
lastChange = "2023-10-18 16:45:24 +0000";
layers = (
{
anchors = (
{
name = bottom;
pos = (288,0);
},
{
name = center;
pos = (288,1100);
},
{
name = top;
pos = (130,725);
}
);
layerId = "12ECCE5E-04E9-4725-8BD5-31F21F15BB81";
shapes = (
{
closed = 1;
nodes = (
(182,0,l),
(182,228,ls),
(182,327,o),
(256,380,o),
(313,380,cs),
(389,380,o),
(402,328,o),
(402,222,cs),
(402,0,l),
(509,0,l),
(509,221,ls),
(509,374,o),
(484,471,o),
(336,471,cs),
(259,471,o),
(201,428,o),
(177,374,c),
(181,459,l),
(181,735,l),
(76,735,l),
(76,0,l)
);
}
);
width = 575;
}
);
unicode = 104;
userData = {
com.typemytype.robofont.mark = (
0.656,
1,
0.6,
1
);
};
changeCount = 1;
},
{
color = 4;
glyphname = hbar;
lastChange = "2019-11-08 02:19:10 +0000";
layers = (
{
.lastUpdate = 719340325.904;
layerId = "12ECCE5E-04E9-4725-8BD5-31F21F15BB81";
shapes = (
{
closed = 1;
nodes = (
(296,562,l),
(296,633,l),
(17,633,l),
(17,562,l)
);
},
{
ref = h;
}
);
width = 575;
}
);
metricRight = h;
metricWidth = h;
unicode = 295;
userData = {
com.typemytype.robofont.mark = (
0.967,
0.6,
1,
1
);
};
},
{
glyphname = hturned;
lastChange = "2023-10-18 16:38:41 +0000";
layers = (
{
.lastUpdate = 719339921.579;
anchors = (
{
name = bottom;
pos = (445,-266);
},
{
name = center;
pos = (287,-641);
},
{
name = top;
pos = (287,459);
}
);
layerId = "12ECCE5E-04E9-4725-8BD5-31F21F15BB81";
shapes = (
{
closed = 1;
nodes = (
(393,459,l),
(393,231,ls),
(393,132,o),
(319,79,o),
(262,79,cs),
(186,79,o),
(173,131,o),
(173,237,cs),
(173,459,l),
(66,459,l),
(66,238,ls),
(66,85,o),
(91,-12,o),
(239,-12,cs),
(316,-12,o),
(374,31,o),
(398,85,c),
(394,0,l),
(394,-276,l),
(499,-276,l),
(499,459,l)
);
}
);
width = 575;
}
);
unicode = 613;
},
{
glyphname = idotless;
lastChange = "2023-10-15 03:30:12 +0000";
layers = (
{
anchors = (
{
name = bottom;
pos = (135,0);
},
{
name = ogonek;
pos = (191,0);
},
{
name = top;
pos = (135,459);
}
);
layerId = "12ECCE5E-04E9-4725-8BD5-31F21F15BB81";
shapes = (
{
closed = 1;
nodes = (
(191,0,l),
(191,459,l),
(79,459,l),
(79,0,l)
);
}
);
width = 270;
}
);
unicode = 305;
userData = {
com.typemytype.robofont.guides = (
{
angle = 90;
isGlobal = 0;
magnetic = 5;
x = 135;
y = 0;
}
);
com.typemytype.robofont.mark = (
0.656,
1,
0.6,
1
);
};
},
{
color = 4;
glyphname = iogonek;
lastChange = "2019-11-08 02:17:46 +0000";
layers = (
{
.lastUpdate = 719340325.935;
layerId = "12ECCE5E-04E9-4725-8BD5-31F21F15BB81";
shapes = (
{
closed = 1;
nodes = (
(161,-253,o),
(179,-250,o),
(191,-248,c),
(191,-165,l),
(184,-166,o),
(167,-167,o),
(158,-167,cs),
(106,-167,o),
(88,-134,o),
(88,-107,cs),
(88,-44,o),
(146,-13,o),
(191,0,c),
(138,31,l),
(96,14,l),
(62,-5,o),
(-9,-50,o),
(-9,-129,cs),
(-9,-216,o),
(54,-253,o),
(142,-253,cs)
);
},
{
ref = i;
}
);
width = 270;
}
);
unicode = 303;
userData = {
com.typemytype.robofont.mark = (
0.967,
0.6,
1,
1
);
};
},
{
glyphname = jdotless;
lastChange = "2023-10-15 01:21:49 +0000";
layers = (
{
anchors = (
{
name = bottom;
pos = (140,-275);
},
{
name = top;
pos = (144,459);
}
);
layerId = "12ECCE5E-04E9-4725-8BD5-31F21F15BB81";
shapes = (
{
closed = 1;
nodes = (
(136,-244,o),
(200,-182,o),
(200,-65,cs),
(200,459,l),
(92,459,l),
(92,-60,ls),
(92,-139,o),
(69,-151,o),
(30,-151,cs),
(10,-151,o),
(-5,-145,o),
(-29,-136,c),
(-52,-233,l),
(-21,-241,o),
(2,-244,o),
(28,-244,cs)
);
}
);
width = 279;
}
);
unicode = 567;
},
{
glyphname = k;
lastChange = "2023-10-18 16:45:24 +0000";
layers = (
{
anchors = (
{
name = bottom;
pos = (271,0);
},
{
name = top;
pos = (125,734);
}
);
layerId = "12ECCE5E-04E9-4725-8BD5-31F21F15BB81";
shapes = (
{
closed = 1;
nodes = (
(180,0,l),
(180,136,l),
(255,217,l),
(233,214,l),
(266,150,l),
(359,0,l),
(486,0,l),
(303,280,l),
(300,254,l),
(485,459,l),
(352,459,l),
(177,254,l),
(179,332,l),
(179,735,l),
(76,735,l),
(76,0,l)
);
}
);
width = 501;
}
);
unicode = 107;
userData = {
com.typemytype.robofont.mark = (
0.656,
1,
0.6,
1
);
};
changeCount = 1;
},
{
glyphname = kgreenlandic;
lastChange = "2018-06-22 18:32:31 +0000";
layers = (
{
layerId = "12ECCE5E-04E9-4725-8BD5-31F21F15BB81";
shapes = (
{
closed = 1;
nodes = (
(181,0,l),
(181,129,l),
(227,177,l),
(361,0,l),
(501,0,l),
(300,252,l),
(500,459,l),
(360,459,l),
(181,264,l),
(181,459,l),
(71,459,l),
(71,0,l)
);
}
);
width = 516;
}
);
metricLeft = n;
metricRight = k;
unicode = 312;
userData = {
com.typemytype.robofont.mark = (
0.967,
0.6,
1,
1
);
};
},
{
color = 3;
glyphname = khook;
lastChange = "2023-10-15 01:59:26 +0000";
layers = (
{
anchors = (
{
name = bottom;
pos = (271,0);
},
{
name = top;
pos = (125,734);
}
);
layerId = "12ECCE5E-04E9-4725-8BD5-31F21F15BB81";
shapes = (
{
closed = 1;
nodes = (
(180,0,l),
(180,136,l),
(240,201,l),
(266,150,l),
(359,0,l),
(486,0,l),
(312,267,l),
(485,459,l),
(352,459,l),
(177,254,l),
(179,332,l),
(179,542,ls),
(179,622,o),
(219,649,o),
(267,649,cs),
(312,649,o),
(333,634,o),
(340,626,c),
(361,728,l),
(352,732,o),
(320,747,o),
(264,747,cs),
(130,747,o),
(76,659,o),
(76,538,cs),
(76,0,l)
);
}
);
width = 501;
}
);
unicode = 409;
},
{
glyphname = l;
lastChange = "2023-10-18 16:45:24 +0000";
layers = (
{
anchors = (
{
name = bottom;
pos = (134,0);
},
{
name = car;
pos = (267,725);
},
{
name = center;
pos = (134,1100);
},
{
name = top;
pos = (135,725);
},
{
name = topright;
pos = (248,1100);
}
);
layerId = "12ECCE5E-04E9-4725-8BD5-31F21F15BB81";
shapes = (
{
closed = 1;
nodes = (
(187,0,l),
(187,735,l),
(80,735,l),
(80,0,l)
);
}
);
width = 268;
}
);
unicode = 108;
userData = {
com.typemytype.robofont.mark = (
0.656,
1,
0.6,
1
);
};
changeCount = 1;
},
{
glyphname = lslash;
lastChange = "2018-06-22 18:32:31 +0000";
layers = (
{
layerId = "12ECCE5E-04E9-4725-8BD5-31F21F15BB81";
shapes = (
{
closed = 1;
nodes = (
(197,3,l),
(197,337,l),
(289,377,l),
(289,471,l),
(197,431,l),
(197,739,l),
(89,739,l),
(89,382,l),
(0,343,l),
(0,250,l),
(89,289,l),
(89,3,l)
);
}
);
width = 289;
}
);
unicode = 322;
userData = {
com.typemytype.robofont.mark = (
0.967,
0.6,
1,
1
);
};
},
{
glyphname = m;
lastChange = "2023-10-15 03:30:14 +0000";
layers = (
{
anchors = (
{
name = bottom;
pos = (445,0);
},
{
name = top;
pos = (452,459);
}
);
layerId = "12ECCE5E-04E9-4725-8BD5-31F21F15BB81";
shapes = (
{
closed = 1;
nodes = (
(180,0,l),
(180,228,ls),
(180,313,o),
(243,382,o),
(313,382,cs),
(397,382,o),
(397,333,o),
(397,247,cs),
(397,0,l),
(505,0,l),
(505,228,ls),
(505,316,o),
(545,382,o),
(633,382,cs),
(698,382,o),
(713,334,o),
(713,231,cs),
(713,0,l),
(822,0,l),
(822,230,ls),
(822,383,o),
(801,471,o),
(651,471,cs),
(586,471,o),
(521,438,o),
(492,386,c),
(475,436,o),
(432,470,o),
(341,471,cs),
(270,471,o),
(209,441,o),
(179,376,c),
(179,459,l),
(71,459,l),
(71,0,l)
);
}
);
width = 889;
}
);
unicode = 109;
userData = {
com.typemytype.robofont.mark = (
0.656,
1,
0.6,
1
);
};
},
{
color = 4;
glyphname = mturned;
lastChange = "2023-10-15 01:21:14 +0000";
layers = (
{
layerId = "12ECCE5E-04E9-4725-8BD5-31F21F15BB81";
shapes = (
{
closed = 1;
nodes = (
(709,459,l),
(709,231,ls),
(709,146,o),
(646,77,o),
(576,77,cs),
(492,77,o),
(492,126,o),
(492,212,cs),
(492,459,l),
(384,459,l),
(384,231,ls),
(384,143,o),
(344,77,o),
(256,77,cs),
(191,77,o),
(176,125,o),
(176,228,cs),
(176,459,l),
(67,459,l),
(67,229,ls),
(67,76,o),
(88,-12,o),
(238,-12,cs),
(303,-12,o),
(368,21,o),
(397,73,c),
(414,23,o),
(457,-11,o),
(548,-12,cs),
(619,-12,o),
(680,18,o),
(710,83,c),
(710,0,l),
(818,0,l),
(818,459,l)
);
}
);
width = 889;
}
);
unicode = 623;
},
{
glyphname = n;
lastChange = "2023-10-15 03:30:14 +0000";
layers = (
{
anchors = (
{
name = bottom;
pos = (288,0);
},
{
name = top;
pos = (308,459);
}
);
layerId = "12ECCE5E-04E9-4725-8BD5-31F21F15BB81";
shapes = (
{
closed = 1;
nodes = (
(179,0,l),
(179,228,ls),
(179,327,o),
(254,382,o),
(312,382,cs),
(387,382,o),
(399,324,o),
(399,218,cs),
(399,0,l),
(507,0,l),
(507,221,ls),
(507,374,o),
(482,471,o),
(334,471,cs),
(258,471,o),
(202,429,o),
(178,375,c),
(177,459,l),
(71,459,l),
(71,0,l)
);
}
);
width = 575;
}
);
unicode = 110;
userData = {
com.typemytype.robofont.mark = (
0.656,
1,
0.6,
1
);
};
},
{
glyphname = eng;
lastChange = "2018-06-22 22:17:12 +0000";
layers = (
{
layerId = "12ECCE5E-04E9-4725-8BD5-31F21F15BB81";
shapes = (
{
closed = 1;
nodes = (
(505,-255,o),
(542,-184,o),
(542,-67,cs),
(542,242,ls),
(542,370,o),
(522,471,o),
(370,471,cs),
(283,471,o),
(227,425,o),
(201,377,c),
(201,459,l),
(93,459,l),
(93,0,l),
(201,0,l),
(201,228,ls),
(201,333,o),
(273,376,o),
(335,376,cs),
(408,376,o),
(434,327,o),
(434,243,cs),
(434,-73,ls),
(434,-135,o),
(414,-162,o),
(372,-162,cs),
(354,-162,o),
(330,-156,o),
(303,-146,c),
(282,-243,l),
(290,-248,o),
(321,-255,o),
(369,-255,cs)
);
}
);
width = 628;
}
);
unicode = 331;
userData = {
com.typemytype.robofont.mark = (
0.967,
0.6,
1,
1
);
};
},
{
glyphname = o;
lastChange = "2023-10-18 16:45:24 +0000";
layers = (
{
anchors = (
{
name = bottom;
pos = (285,0);
},
{
name = center;
pos = (285,230);
},
{
name = ogonek;
pos = (512,10);
},
{
name = top;
pos = (285,459);
},
{
name = topright;
pos = (549,459);
}
);
layerId = "12ECCE5E-04E9-4725-8BD5-31F21F15BB81";
shapes = (
{
closed = 1;
nodes = (
(431,-10,o),
(525,96,o),
(525,231,cs),
(525,363,o),
(433,471,o),
(285,471,cs),
(137,471,o),
(44,363,o),
(44,231,cs),
(44,96,o),
(140,-10,o),
(285,-10,cs)
);
},
{
closed = 1;
nodes = (
(210,78,o),
(156,145,o),
(156,229,cs),
(156,314,o),
(204,383,o),
(282,383,cs),
(362,383,o),
(413,314,o),
(413,229,cs),
(413,145,o),
(368,78,o),
(288,78,cs)
);
}
);
width = 569;
}
);
metricRight = "=|";
unicode = 111;
userData = {
com.typemytype.robofont.mark = (
0.656,
1,
0.6,
1
);
};
changeCount = 1;
},
{
glyphname = ohorn;
lastChange = "2023-10-15 03:30:15 +0000";
layers = (
{
anchors = (
{
name = bottom;
pos = (285,0);
},
{
name = center;
pos = (285,230);
},
{
name = ogonek;
pos = (512,10);
},
{
name = top;
pos = (285,459);
},
{
name = topright;
pos = (549,459);
}
);
layerId = "12ECCE5E-04E9-4725-8BD5-31F21F15BB81";
shapes = (
{
closed = 1;
nodes = (
(481,410,o),
(588,441,o),
(588,505,cs),
(588,546,o),
(586,561,o),
(581,577,c),
(487,577,l),
(493,562,o),
(495,547,o),
(495,520,cs),
(495,459,o),
(378,459,o),
(361,459,c),
(445,410,l)
);
},
{
closed = 1;
nodes = (
(431,-10,o),
(525,96,o),
(525,231,cs),
(525,363,o),
(433,471,o),
(285,471,cs),
(137,471,o),
(44,363,o),
(44,231,cs),
(44,96,o),
(140,-10,o),
(285,-10,cs)
);
},
{
closed = 1;
nodes = (
(210,78,o),
(156,145,o),
(156,229,cs),
(156,314,o),
(204,383,o),
(282,383,cs),
(362,383,o),
(413,314,o),
(413,229,cs),
(413,145,o),
(368,78,o),
(288,78,cs)
);
}
);
width = 569;
}
);
unicode = 417;
userData = {
com.typemytype.robofont.mark = (
1,
0.6,
0.6,
1
);
};
},
{
glyphname = oogonek;
lastChange = "2023-10-15 03:30:15 +0000";
layers = (
{
.lastUpdate = 719340325.851;
layerId = "12ECCE5E-04E9-4725-8BD5-31F21F15BB81";
shapes = (
{
closed = 1;
nodes = (
(349,-264,o),
(367,-261,o),
(379,-259,c),
(379,-166,l),
(372,-167,o),
(355,-168,o),
(346,-168,cs),
(294,-168,o),
(276,-135,o),
(276,-108,cs),
(276,-35,o),
(334,-3,o),
(379,10,c),
(326,40,l),
(279,23,l),
(245,4,o),
(179,-51,o),
(179,-130,cs),
(179,-227,o),
(242,-264,o),
(330,-264,cs)
);
},
{
ref = o;
}
);
width = 569;
}
);
unicode = 491;
},
{
color = 4;
glyphname = oopen;
lastChange = "2023-10-15 03:30:15 +0000";
layers = (
{
anchors = (
{
name = bottom;
pos = (233,0);
},
{
name = top;
pos = (205,725);
}
);
layerId = "12ECCE5E-04E9-4725-8BD5-31F21F15BB81";
shapes = (
{
closed = 1;
nodes = (
(315,-10,o),
(422,80,o),
(422,235,cs),
(422,379,o),
(327,471,o),
(186,471,cs),
(109,471,o),
(59,446,o),
(34,424,c),
(82,337,l),
(91,346,o),
(122,379,o),
(177,379,cs),
(265,379,o),
(308,320,o),
(308,236,cs),
(308,138,o),
(260,80,o),
(177,80,cs),
(133,80,o),
(91,95,o),
(71,110,c),
(32,34,l),
(56,15,o),
(110,-10,o),
(181,-10,cs)
);
}
);
width = 466;
}
);
unicode = 596;
},
{
glyphname = oslash;
lastChange = "2018-06-22 22:17:12 +0000";
layers = (
{
.lastUpdate = 719340325.946;
layerId = "12ECCE5E-04E9-4725-8BD5-31F21F15BB81";
shapes = (
{
closed = 1;
nodes = (
(468,543,l),
(412,569,l),
(115,-84,l),
(172,-110,l)
);
},
{
pos = (2,0);
ref = o;
}
);
width = 575;
}
);
unicode = 248;
userData = {
com.typemytype.robofont.mark = (
0.656,
1,
0.6,
1
);
};
},
{
glyphname = oe;
lastChange = "2018-06-22 22:17:12 +0000";
layers = (
{
layerId = "12ECCE5E-04E9-4725-8BD5-31F21F15BB81";
shapes = (
{
closed = 1;
nodes = (
(364,-9,o),
(428,22,o),
(469,73,c),
(512,21,o),
(582,-9,o),
(675,-9,cs),
(760,-9,o),
(808,7,o),
(844,27,c),
(807,109,l),
(780,96,o),
(740,81,o),
(670,81,cs),
(594,81,o),
(534,112,o),
(529,196,c),
(866,196,l),
(868,215,o),
(869,232,o),
(869,249,cs),
(869,386,o),
(807,471,o),
(663,471,cs),
(583,471,o),
(514,442,o),
(470,387,c),
(429,438,o),
(365,471,o),
(284,471,cs),
(136,471,o),
(44,363,o),
(44,231,cs),
(44,96,o),
(138,-9,o),
(284,-9,cs)
);
},
{
closed = 1;
nodes = (
(205,80,o),
(154,145,o),
(154,229,cs),
(154,314,o),
(205,381,o),
(283,381,cs),
(363,381,o),
(414,314,o),
(414,229,cs),
(414,145,o),
(363,80,o),
(283,80,cs)
);
},
{
closed = 1;
nodes = (
(543,351,o),
(590,380,o),
(654,380,cs),
(724,380,o),
(756,355,o),
(763,276,c),
(529,276,l)
);
}
);
width = 913;
}
);
unicode = 339;
userData = {
com.typemytype.robofont.mark = (
0.656,
1,
0.6,
1
);
};
},
{
glyphname = p;
lastChange = "2023-10-18 16:45:24 +0000";
layers = (
{
anchors = (
{
name = bottom;
pos = (325,0);
},
{
name = top;
pos = (325,459);
}
);
layerId = "12ECCE5E-04E9-4725-8BD5-31F21F15BB81";
shapes = (
{
closed = 1;
nodes = (
(178,-243,l),
(177,69,l),
(209,19,o),
(265,-10,o),
(344,-10,cs),
(467,-10,o),
(566,84,o),
(566,232,cs),
(566,393,o),
(472,471,o),
(349,471,cs),
(261,471,o),
(208,429,o),
(177,374,c),
(177,459,l),
(73,459,l),
(73,-243,l)
);
},
{
closed = 1;
nodes = (
(246,81,o),
(183,139,o),
(183,228,cs),
(183,235,ls),
(183,324,o),
(247,378,o),
(319,378,cs),
(410,378,o),
(454,316,o),
(454,229,c),
(454,146,o),
(409,81,o),
(319,81,cs)
);
}
);
width = 610;
}
);
unicode = 112;
userData = {
com.typemytype.robofont.mark = (
0.656,
1,
0.6,
1
);
};
changeCount = 1;
},
{
glyphname = thorn;
lastChange = "2023-10-15 03:30:15 +0000";
layers = (
{
.lastUpdate = 719340325.885;
anchors = (
{
name = top;
pos = (364,725);
}
);
layerId = "12ECCE5E-04E9-4725-8BD5-31F21F15BB81";
shapes = (
{
closed = 1;
nodes = (
(177,-243,l),
(177,75,l),
(208,24,o),
(253,-9,o),
(354,-9,cs),
(467,-9,o),
(567,92,o),
(567,232,cs),
(567,388,o),
(475,471,o),
(354,471,cs),
(265,471,o),
(207,427,o),
(177,375,c),
(177,736,l),
(74,736,l),
(74,-243,l)
);
},
{
closed = 1;
nodes = (
(249,80,o),
(183,140,o),
(183,229,cs),
(183,236,ls),
(183,324,o),
(250,379,o),
(323,379,cs),
(414,379,o),
(454,315,o),
(454,229,cs),
(454,145,o),
(413,80,o),
(323,80,cs)
);
},
{
ref = p;
}
);
width = 611;
}
);
metricRight = p;
unicode = 254;
userData = {
com.typemytype.robofont.mark = (
0.656,
1,
0.6,
1
);
};
},
{
glyphname = q;
lastChange = "2023-10-15 03:30:15 +0000";
layers = (
{
anchors = (
{
name = bottom;
pos = (307,0);
},
{
name = top;
pos = (261,725);
}
);
layerId = "12ECCE5E-04E9-4725-8BD5-31F21F15BB81";
shapes = (
{
closed = 1;
nodes = (
(541,-243,l),
(541,459,l),
(437,459,l),
(436,375,l),
(405,431,o),
(354,471,o),
(267,471,cs),
(146,471,o),
(44,393,o),
(44,232,cs),
(44,84,o),
(144,-10,o),
(267,-10,cs),
(346,-10,o),
(404,19,o),
(436,69,c),
(435,-243,l)
);
},
{
closed = 1;
nodes = (
(202,80,o),
(158,144,o),
(158,230,cs),
(158,314,o),
(203,379,o),
(292,379,cs),
(366,379,o),
(427,319,o),
(427,230,cs),
(427,223,ls),
(427,135,o),
(365,80,o),
(292,80,cs)
);
}
);
width = 613;
}
);
unicode = 113;
userData = {
com.typemytype.robofont.mark = (
0.656,
1,
0.6,
1
);
};
},
{
glyphname = r;
lastChange = "2023-10-18 16:45:24 +0000";
layers = (
{
anchors = (
{
name = bottom;
pos = (180,0);
},
{
name = top;
pos = (210,459);
}
);
layerId = "12ECCE5E-04E9-4725-8BD5-31F21F15BB81";
shapes = (
{
closed = 1;
nodes = (
(176,0,l),
(176,236,ls),
(176,334,o),
(250,362,o),
(300,362,cs),
(319,362,o),
(333,360,o),
(339,356,c),
(354,465,l),
(348,468,o),
(330,471,o),
(310,471,cs),
(247,471,o),
(197,429,o),
(176,369,c),
(176,459,l),
(68,459,l),
(68,0,l)
);
}
);
width = 359;
}
);
unicode = 114;
userData = {
com.typemytype.robofont.mark = (
0.656,
1,
0.6,
1
);
};
changeCount = 1;
},
{
glyphname = s;
lastChange = "2023-10-18 16:45:24 +0000";
layers = (
{
anchors = (
{
name = bottom;
pos = (226,0);
},
{
name = top;
pos = (226,459);
}
);
layerId = "12ECCE5E-04E9-4725-8BD5-31F21F15BB81";
shapes = (
{
closed = 1;
nodes = (
(327,-10,o),
(411,33,o),
(411,128,cs),
(411,197,o),
(366,235,o),
(285,267,cs),
(225,290,o),
(173,299,o),
(173,342,cs),
(173,370,o),
(195,385,o),
(244,385,cs),
(294,385,o),
(333,369,o),
(349,353,c),
(388,439,l),
(361,457,o),
(303,471,o),
(247,471,cs),
(138,471,o),
(65,423,o),
(65,337,cs),
(65,256,o),
(128,218,o),
(195,191,cs),
(263,164,o),
(306,158,o),
(306,120,cs),
(306,96,o),
(289,75,o),
(229,75,cs),
(161,75,o),
(115,101,o),
(92,117,c),
(56,32,l),
(85,10,o),
(165,-10,o),
(229,-10,cs)
);
}
);
width = 452;
}
);
unicode = 115;
userData = {
com.typemytype.robofont.mark = (
0.656,
1,
0.6,
1
);
};
changeCount = 1;
},
{
color = 4;
glyphname = germandbls;
lastChange = "2019-11-08 02:14:19 +0000";
layers = (
{
layerId = "12ECCE5E-04E9-4725-8BD5-31F21F15BB81";
shapes = (
{
closed = 1;
nodes = (
(192,-92,l),
(192,430,ls),
(192,586,o),
(233,655,o),
(318,655,cs),
(386,655,o),
(401,605,o),
(401,559,cs),
(401,505,o),
(365,433,o),
(272,434,c),
(272,355,l),
(297,355,l),
(378,355,o),
(443,301,o),
(443,221,cs),
(443,165,o),
(411,93,o),
(299,93,cs),
(252,93,l),
(252,0,l),
(288,0,ls),
(487,0,o),
(553,114,o),
(553,220,cs),
(553,323,o),
(481,416,o),
(351,410,c),
(361,386,l),
(448,414,o),
(508,482,o),
(508,567,cs),
(508,653,o),
(469,747,o),
(322,747,cs),
(146,747,o),
(85,605,o),
(85,477,cs),
(85,-92,l)
);
},
{
closed = 1;
nodes = (
(37,371,l),
(125,371,l),
(125,459,l),
(37,459,l)
);
}
);
width = 593;
}
);
unicode = 223;
userData = {
com.typemytype.robofont.mark = (
0.656,
1,
0.6,
1
);
};
},
{
color = 7;
glyphname = t;
lastChange = "2023-10-18 16:45:24 +0000";
layers = (
{
anchors = (
{
name = bottom;
pos = (172,0);
},
{
name = car;
pos = (302,725);
},
{
name = center;
pos = (172,230);
},
{
name = top;
pos = (171,646);
}
);
layerId = "12ECCE5E-04E9-4725-8BD5-31F21F15BB81";
shapes = (
{
closed = 1;
nodes = (
(220,0,l),
(220,371,l),
(326,371,l),
(326,459,l),
(220,459,l),
(220,670,l),
(111,646,l),
(111,459,l),
(30,459,l),
(30,371,l),
(111,371,l),
(111,0,l)
);
}
);
width = 343;
}
);
unicode = 116;
userData = {
com.typemytype.robofont.mark = (
0.656,
1,
0.6,
1
);
};
changeCount = 1;
},
{
color = 7;
glyphname = tbar;
lastChange = "2018-06-22 20:37:17 +0000";
layers = (
{
layerId = "12ECCE5E-04E9-4725-8BD5-31F21F15BB81";
shapes = (
{
closed = 1;
nodes = (
(221,0,l),
(221,187,l),
(326,187,l),
(326,269,l),
(221,269,l),
(221,368,l),
(326,368,l),
(326,460,l),
(221,460,l),
(221,685,l),
(113,662,l),
(113,460,l),
(30,460,l),
(30,368,l),
(113,368,l),
(113,269,l),
(30,269,l),
(30,187,l),
(113,187,l),
(113,0,l)
);
}
);
width = 343;
}
);
metricLeft = t;
metricWidth = t;
unicode = 359;
userData = {
com.typemytype.robofont.mark = (
0.967,
0.6,
1,
1
);
};
},
{
glyphname = u;
lastChange = "2023-10-18 16:45:24 +0000";
layers = (
{
anchors = (
{
name = bottom;
pos = (288,0);
},
{
name = ogonek;
pos = (500,10);
},
{
name = top;
pos = (268,459);
},
{
name = topright;
pos = (536,459);
}
);
layerId = "12ECCE5E-04E9-4725-8BD5-31F21F15BB81";
shapes = (
{
closed = 1;
nodes = (
(302,-10,o),
(350,16,o),
(383,67,c),
(395,0,l),
(483,0,l),
(483,459,l),
(376,459,l),
(376,199,ls),
(376,130,o),
(318,79,o),
(263,79,cs),
(184,79,o),
(172,123,o),
(172,229,cs),
(172,459,l),
(64,459,l),
(64,202,ls),
(64,86,o),
(92,-10,o),
(230,-10,cs)
);
}
);
width = 556;
}
);
unicode = 117;
userData = {
com.typemytype.robofont.mark = (
0.656,
1,
0.6,
1
);
};
changeCount = 1;
},
{
glyphname = uhorn;
lastChange = "2023-10-15 03:30:17 +0000";
layers = (
{
anchors = (
{
name = bottom;
pos = (278,0);
},
{
name = ogonek;
pos = (500,10);
},
{
name = top;
pos = (273,459);
},
{
name = topright;
pos = (536,459);
}
);
layerId = "12ECCE5E-04E9-4725-8BD5-31F21F15BB81";
shapes = (
{
closed = 1;
nodes = (
(509,410,o),
(576,455,o),
(576,505,cs),
(576,546,o),
(574,561,o),
(569,577,c),
(475,577,l),
(481,562,o),
(483,547,o),
(483,520,cs),
(483,473,o),
(442,459,o),
(376,459,c),
(473,410,l)
);
},
{
closed = 1;
nodes = (
(302,-10,o),
(350,16,o),
(383,67,c),
(395,0,l),
(483,0,l),
(483,459,l),
(376,459,l),
(376,199,ls),
(376,130,o),
(318,79,o),
(263,79,cs),
(184,79,o),
(172,123,o),
(172,229,cs),
(172,459,l),
(64,459,l),
(64,202,ls),
(64,86,o),
(92,-10,o),
(230,-10,cs)
);
}
);
width = 556;
}
);
unicode = 432;
userData = {
com.typemytype.robofont.mark = (
1,
0.6,
0.6,
1
);
};
},
{
glyphname = uogonek;
lastChange = "2019-11-08 02:17:09 +0000";
layers = (
{
.lastUpdate = 719340325.933;
background = {
shapes = (
{
closed = 1;
nodes = (
(565,-134,l),
(541,-146,o),
(517,-149,o),
(497,-149,cs),
(458,-149,o),
(435,-135,o),
(435,-101,cs),
(435,-58,o),
(468,-4,o),
(538,13,c),
(492,46,l),
(435,19,l),
(339,-5,o),
(322,-78,o),
(322,-128,cs),
(322,-199,o),
(377,-250,o),
(481,-250,cs),
(516,-250,o),
(545,-244,o),
(565,-234,c)
);
}
);
};
layerId = "12ECCE5E-04E9-4725-8BD5-31F21F15BB81";
shapes = (
{
closed = 1;
nodes = (
(441,-253,o),
(459,-250,o),
(471,-248,c),
(471,-165,l),
(464,-166,o),
(447,-167,o),
(438,-167,cs),
(386,-167,o),
(368,-134,o),
(368,-107,cs),
(368,-44,o),
(435,-13,o),
(480,0,c),
(427,31,l),
(401,24,l),
(358,5,o),
(271,-50,o),
(271,-129,cs),
(271,-216,o),
(334,-253,o),
(422,-253,cs)
);
},
{
ref = u;
}
);
width = 556;
}
);
metricLeft = u;
metricRight = u;
unicode = 371;
userData = {
com.typemytype.robofont.mark = (
0.967,
0.6,
1,
1
);
};
},
{
glyphname = "upsilon-latin";
lastChange = "2023-10-18 16:43:43 +0000";
layers = (
{
.lastUpdate = 719340223.406;
layerId = "12ECCE5E-04E9-4725-8BD5-31F21F15BB81";
shapes = (
{
closed = 1;
nodes = (
(305,459,l),
(305,397,l),
(384,331,o),
(392,270,o),
(392,206,cs),
(392,140,o),
(357,78,o),
(274,78,cs),
(190,78,o),
(155,140,o),
(155,206,cs),
(155,270,o),
(163,331,o),
(242,397,c),
(242,459,l),
(29,459,l),
(29,371,l),
(112,371,l),
(73,328,o),
(43,278,o),
(43,206,cs),
(43,64,o),
(157,-10,o),
(274,-10,cs),
(389,-10,o),
(504,64,o),
(504,206,cs),
(504,278,o),
(473,329,o),
(435,371,c),
(518,371,l),
(518,459,l)
);
}
);
width = 547;
}
);
unicode = 650;
},
{
color = 10;
glyphname = v;
lastChange = "2023-10-18 16:45:24 +0000";
layers = (
{
anchors = (
{
name = bottom;
pos = (250,0);
},
{
name = top;
pos = (256,459);
}
);
background = {
shapes = (
{
closed = 1;
nodes = (
(502,459,l),
(382,459,l),
(284,255,l),
(252,176,l),
(220,255,l),
(121,459,l),
(-2,459,l),
(251,-18,l)
);
},
{
closed = 1;
nodes = (
(502,459,l),
(382,459,l),
(284,255,l),
(252,176,l),
(220,255,l),
(121,459,l),
(-2,459,l),
(250,-18,l),
(251,-18,l)
);
}
);
};
layerId = "12ECCE5E-04E9-4725-8BD5-31F21F15BB81";
shapes = (
{
closed = 1;
nodes = (
(261,0,l),
(502,459,l),
(382,459,l),
(284,252,l),
(252,169,l),
(220,252,l),
(121,459,l),
(-2,459,l),
(240,0,l)
);
}
);
width = 500;
}
);
metricRight = "=|";
unicode = 118;
userData = {
com.typemytype.robofont.mark = (
0.656,
1,
0.6,
1
);
};
changeCount = 1;
},
{
color = 4;
glyphname = vturned;
lastChange = "2023-10-15 01:13:32 +0000";
layers = (
{
anchors = (
{
name = bottom;
pos = (250,0);
},
{
name = top;
pos = (250,459);
}
);
layerId = "12ECCE5E-04E9-4725-8BD5-31F21F15BB81";
shapes = (
{
closed = 1;
nodes = (
(-2,0,l),
(121,0,l),
(220,207,l),
(252,290,l),
(284,207,l),
(382,0,l),
(502,0,l),
(261,459,l),
(240,459,l)
);
}
);
width = 500;
}
);
unicode = 652;
},
{
color = 10;
glyphname = w;
lastChange = "2023-10-18 16:45:24 +0000";
layers = (
{
anchors = (
{
name = bottom;
pos = (351,0);
},
{
name = top;
pos = (351,459);
}
);
background = {
shapes = (
{
closed = 1;
nodes = (
(350,255,l),
(479,-4,l),
(498,-4,l),
(698,459,l),
(582,459,l),
(480,192,l),
(350,459,l),
(346,459,l),
(213,194,l),
(117,459,l),
(3,459,l),
(195,-4,l),
(214,-4,l)
);
}
);
};
layerId = "12ECCE5E-04E9-4725-8BD5-31F21F15BB81";
shapes = (
{
closed = 1;
nodes = (
(506,0,l),
(698,459,l),
(584,459,l),
(485,194,l),
(353,459,l),
(349,459,l),
(218,192,l),
(119,459,l),
(3,459,l),
(196,0,l),
(215,0,l),
(351,255,l),
(487,0,l)
);
}
);
width = 701;
}
);
metricRight = "=|";
unicode = 119;
userData = {
com.typemytype.robofont.mark = (
0.656,
1,
0.6,
1
);
};
changeCount = 1;
},
{
glyphname = x;
lastChange = "2023-10-18 16:45:24 +0000";
layers = (
{
anchors = (
{
name = bottom;
pos = (245,0);
},
{
name = top;
pos = (245,459);
}
);
layerId = "12ECCE5E-04E9-4725-8BD5-31F21F15BB81";
shapes = (
{
closed = 1;
nodes = (
(141,0,l),
(245,162,l),
(354,0,l),
(478,0,l),
(302,244,l),
(464,459,l),
(333,459,l),
(244,317,l),
(150,459,l),
(22,459,l),
(183,238,l),
(11,0,l)
);
}
);
width = 490;
}
);
unicode = 120;
userData = {
com.typemytype.robofont.mark = (
0.656,
1,
0.6,
1
);
};
changeCount = 1;
},
{
glyphname = y;
lastChange = "2023-10-18 16:45:24 +0000";
layers = (
{
anchors = (
{
name = bottom;
pos = (249,0);
},
{
name = top;
pos = (256,459);
}
);
layerId = "12ECCE5E-04E9-4725-8BD5-31F21F15BB81";
shapes = (
{
closed = 1;
nodes = (
(216,-252,l),
(498,459,l),
(380,459,l),
(277,167,l),
(255,96,l),
(233,167,l),
(135,459,l),
(13,459,l),
(203,-14,l),
(104,-252,l)
);
}
);
width = 497;
}
);
unicode = 121;
userData = {
com.typemytype.robofont.mark = (
0.656,
1,
0.6,
1
);
};
changeCount = 1;
},
{
glyphname = yhook;
lastChange = "2023-10-15 02:01:20 +0000";
layers = (
{
anchors = (
{
name = bottom;
pos = (383,0);
},
{
name = top;
pos = (256,459);
}
);
layerId = "12ECCE5E-04E9-4725-8BD5-31F21F15BB81";
shapes = (
{
closed = 1;
nodes = (
(216,-252,l),
(446,340,ls),
(469,400,o),
(484,447,o),
(533,447,cs),
(559,447,o),
(580,432,o),
(587,424,c),
(608,526,l),
(599,530,o),
(580,545,o),
(530,545,cs),
(413,545,o),
(374,454,o),
(334,336,cs),
(277,167,l),
(255,96,l),
(233,167,l),
(135,459,l),
(13,459,l),
(203,-14,l),
(104,-252,l)
);
}
);
width = 497;
}
);
unicode = 436;
},
{
glyphname = z;
lastChange = "2023-10-18 16:45:24 +0000";
layers = (
{
anchors = (
{
name = bottom;
pos = (226,0);
},
{
name = center;
pos = (226,230);
},
{
name = top;
pos = (231,459);
}
);
layerId = "12ECCE5E-04E9-4725-8BD5-31F21F15BB81";
shapes = (
{
closed = 1;
nodes = (
(413,0,l),
(413,89,l),
(297,87,l),
(189,83,l),
(214,121,l),
(421,459,l),
(64,459,l),
(64,370,l),
(143,370,l),
(254,373,l),
(229,337,l),
(20,0,l)
);
}
);
width = 452;
}
);
unicode = 122;
userData = {
com.typemytype.robofont.mark = (
0.656,
1,
0.6,
1
);
};
changeCount = 1;
},
{
glyphname = saltillo;
lastChange = "2023-10-15 01:24:07 +0000";
layers = (
{
layerId = "12ECCE5E-04E9-4725-8BD5-31F21F15BB81";
shapes = (
{
closed = 1;
nodes = (
(203,459,l),
(203,843,l),
(91,843,l),
(91,459,l)
);
}
);
width = 294;
}
);
unicode = 42892;
},
{
glyphname = ordfeminine;
lastChange = "2023-10-15 03:37:05 +0000";
layers = (
{
layerId = "12ECCE5E-04E9-4725-8BD5-31F21F15BB81";
shapes = (
{
closed = 1;
nodes = (
(289,434,o),
(335,450,o),
(348,486,c),
(353,486,l),
(353,439,l),
(454,439,l),
(454,807,l),
(353,807,l),
(353,750,l),
(348,750,l),
(340,787,o),
(289,815,o),
(241,815,cs),
(138,815,o),
(83,738,o),
(83,620,cs),
(83,512,o),
(145,434,o),
(242,434,cs)
);
},
{
closed = 1;
nodes = (
(214,515,o),
(178,559,o),
(178,619,cs),
(178,689,o),
(212,731,o),
(263,731,cs),
(324,731,o),
(354,659,o),
(354,620,c),
(354,577,o),
(324,515,o),
(263,515,cs)
);
}
);
width = 562;
}
);
unicode = 170;
userData = {
KernOnSpecialSpacing = {
L = superiors;
R = superiors;
};
com.typemytype.robofont.mark = (
0.656,
1,
0.6,
1
);
};
},
{
glyphname = ordmasculine;
lastChange = "2023-10-15 03:37:05 +0000";
layers = (
{
layerId = "12ECCE5E-04E9-4725-8BD5-31F21F15BB81";
shapes = (
{
closed = 1;
nodes = (
(375,433,o),
(459,500,o),
(459,623,cs),
(459,744,o),
(377,816,o),
(272,816,cs),
(169,816,o),
(85,744,o),
(85,623,cs),
(85,500,o),
(170,433,o),
(272,433,cs)
);
},
{
closed = 1;
nodes = (
(223,516,o),
(184,553,o),
(184,623,cs),
(184,692,o),
(223,731,o),
(271,731,cs),
(322,731,o),
(360,690,o),
(360,623,cs),
(360,554,o),
(322,516,o),
(271,516,cs)
);
}
);
width = 543;
}
);
unicode = 186;
userData = {
KernOnSpecialSpacing = {
L = superiors;
R = superiors;
};
com.typemytype.robofont.mark = (
0.656,
1,
0.6,
1
);
};
},
{
color = 10;
glyphname = Delta;
lastChange = "2019-11-08 04:08:19 +0000";
layers = (
{
layerId = "12ECCE5E-04E9-4725-8BD5-31F21F15BB81";
shapes = (
{
closed = 1;
nodes = (
(406,736,l),
(69,0,l),
(761,0,l),
(426,736,l)
);
},
{
closed = 1;
nodes = (
(416,521,l),
(602,96,l),
(228,96,l)
);
}
);
width = 830;
}
);
unicode = (916,948);
userData = {
com.typemytype.robofont.guides = (
{
angle = 0;
isGlobal = 0;
magnetic = 5;
x = 0;
y = 52;
}
);
};
},
{
glyphname = Omega;
lastChange = "2018-06-22 18:32:31 +0000";
layers = (
{
layerId = "12ECCE5E-04E9-4725-8BD5-31F21F15BB81";
shapes = (
{
closed = 1;
nodes = (
(402,0,l),
(402,79,l),
(272,180,o),
(246,290,o),
(246,394,cs),
(246,541,o),
(310,641,o),
(461,641,cs),
(613,641,o),
(678,541,o),
(678,394,cs),
(678,290,o),
(651,180,o),
(521,79,c),
(521,0,l),
(817,0,l),
(817,99,l),
(678,99,l),
(750,164,o),
(804,264,o),
(804,394,cs),
(804,630,o),
(637,747,o),
(461,747,cs),
(287,747,o),
(119,630,o),
(119,394,cs),
(119,264,o),
(174,164,o),
(246,99,c),
(106,99,l),
(106,0,l)
);
}
);
width = 923;
}
);
unicode = (937,969);
},
{
glyphname = mu;
lastChange = "2018-06-22 18:32:31 +0000";
layers = (
{
layerId = "12ECCE5E-04E9-4725-8BD5-31F21F15BB81";
shapes = (
{
closed = 1;
nodes = (
(217,-173,l),
(217,9,l),
(238,-7,o),
(266,-15,o),
(294,-15,cs),
(352,-15,o),
(399,17,o),
(429,56,c),
(429,-7,l),
(541,-7,l),
(541,463,l),
(429,463,l),
(429,228,ls),
(429,123,o),
(389,81,o),
(313,81,cs),
(233,81,o),
(219,129,o),
(217,216,cs),
(213,463,l),
(103,463,l),
(106,-173,l)
);
}
);
width = 646;
}
);
unicode = 956;
},
{
glyphname = pi;
lastChange = "2018-06-22 18:32:31 +0000";
layers = (
{
layerId = "12ECCE5E-04E9-4725-8BD5-31F21F15BB81";
shapes = (
{
closed = 1;
nodes = (
(253,0,l),
(276,37,o),
(296,140,o),
(296,459,c),
(439,459,l),
(439,140,o),
(453,37,o),
(460,0,c),
(572,0,l),
(561,37,o),
(551,151,o),
(551,459,c),
(643,459,l),
(643,552,l),
(208,552,ls),
(171,552,o),
(109,545,o),
(92,541,c),
(92,449,l),
(108,452,o),
(140,458,o),
(185,459,c),
(185,162,o),
(166,37,o),
(142,0,c)
);
}
);
width = 737;
}
);
unicode = 960;
userData = {
com.typemytype.robofont.mark = (
0.6,
0.986,
1,
1
);
};
},
{
color = 11;
glyphname = zero;
lastChange = "2019-10-31 01:33:28 +0000";
layers = (
{
background = {
shapes = (
{
closed = 1;
nodes = (
(517,-9,o),
(591,157,o),
(591,370,cs),
(591,589,o),
(523,747,o),
(324,747,cs),
(124,747,o),
(56,583,o),
(56,370,cs),
(56,163,o),
(129,-9,o),
(324,-9,cs)
);
},
{
closed = 1;
nodes = (
(203,93,o),
(178,236,o),
(178,370,cs),
(178,516,o),
(203,646,o),
(324,646,cs),
(445,646,o),
(469,516,o),
(469,370,cs),
(469,235,o),
(445,93,o),
(324,93,cs)
);
}
);
};
layerId = "12ECCE5E-04E9-4725-8BD5-31F21F15BB81";
shapes = (
{
closed = 1;
nodes = (
(517,-15,o),
(591,152,o),
(591,367,cs),
(591,588,o),
(523,747,o),
(324,747,cs),
(124,747,o),
(56,582,o),
(56,367,cs),
(56,158,o),
(129,-15,o),
(324,-15,cs)
);
},
{
closed = 1;
nodes = (
(203,87,o),
(178,232,o),
(178,367,cs),
(178,515,o),
(203,646,o),
(324,646,cs),
(445,646,o),
(469,515,o),
(469,367,cs),
(469,231,o),
(445,87,o),
(324,87,cs)
);
}
);
width = 647;
}
);
unicode = 48;
userData = {
com.typemytype.robofont.mark = (
0.656,
1,
0.6,
1
);
};
},
{
glyphname = one;
lastChange = "2018-06-22 18:32:31 +0000";
layers = (
{
layerId = "12ECCE5E-04E9-4725-8BD5-31F21F15BB81";
shapes = (
{
closed = 1;
nodes = (
(242,0,l),
(242,756,l),
(129,724,l),
(129,0,l)
);
}
);
width = 370;
}
);
unicode = 49;
userData = {
com.typemytype.robofont.mark = (
0.656,
1,
0.6,
1
);
};
},
{
color = 11;
glyphname = two;
lastChange = "2019-10-31 01:33:28 +0000";
layers = (
{
background = {
shapes = (
{
closed = 1;
nodes = (
(571,0,l),
(571,99,l),
(286,99,l),
(422,271,l),
(498,364,o),
(542,453,o),
(542,539,cs),
(542,670,o),
(454,747,o),
(313,747,cs),
(173,747,o),
(95,641,o),
(75,588,c),
(168,538,l),
(188,577,o),
(227,643,o),
(307,643,cs),
(393,643,o),
(428,598,o),
(428,526,cs),
(428,455,o),
(357,361,o),
(318,309,c),
(71,0,l)
);
}
);
};
layerId = "12ECCE5E-04E9-4725-8BD5-31F21F15BB81";
shapes = (
{
closed = 1;
nodes = (
(571,0,l),
(571,99,l),
(286,99,l),
(422,271,l),
(498,364,o),
(542,453,o),
(542,539,cs),
(542,659,o),
(465,747,o),
(313,747,cs),
(182,747,o),
(112,660,o),
(75,588,c),
(168,538,l),
(188,576,o),
(227,641,o),
(310,641,cs),
(389,641,o),
(428,599,o),
(428,526,cs),
(428,455,o),
(357,361,o),
(318,309,c),
(71,0,l)
);
}
);
width = 646;
}
);
unicode = 50;
userData = {
com.typemytype.robofont.mark = (
0.656,
1,
0.6,
1
);
};
},
{
color = 11;
glyphname = three;
lastChange = "2019-10-31 01:33:28 +0000";
layers = (
{
background = {
shapes = (
{
closed = 1;
nodes = (
(461,-10,o),
(565,95,o),
(565,234,cs),
(565,344,o),
(483,433,o),
(353,438,c),
(561,735,l),
(86,735,l),
(86,637,l),
(362,637,l),
(178,351,l),
(203,355,o),
(239,357,o),
(271,357,cs),
(376,357,o),
(443,305,o),
(443,226,cs),
(443,117,o),
(360,90,o),
(271,90,cs),
(202,90,o),
(134,121,o),
(102,146,c),
(55,51,l),
(111,8,o),
(200,-10,o),
(277,-10,cs)
);
}
);
};
layerId = "12ECCE5E-04E9-4725-8BD5-31F21F15BB81";
shapes = (
{
closed = 1;
nodes = (
(461,-15,o),
(565,92,o),
(565,234,cs),
(565,344,o),
(483,433,o),
(353,438,c),
(561,735,l),
(86,735,l),
(86,637,l),
(362,637,l),
(178,351,l),
(203,355,o),
(239,357,o),
(271,357,cs),
(376,357,o),
(443,305,o),
(443,226,cs),
(443,115,o),
(360,87,o),
(272,87,cs),
(203,87,o),
(137,119,o),
(102,146,c),
(55,51,l),
(95,12,o),
(194,-15,o),
(277,-15,cs)
);
}
);
width = 637;
}
);
unicode = 51;
userData = {
com.typemytype.robofont.mark = (
0.656,
1,
0.6,
1
);
};
},
{
color = 11;
glyphname = four;
lastChange = "2023-10-18 16:45:24 +0000";
layers = (
{
layerId = "12ECCE5E-04E9-4725-8BD5-31F21F15BB81";
shapes = (
{
closed = 1;
nodes = (
(498,0,l),
(498,184,l),
(600,184,l),
(600,289,l),
(498,289,l),
(498,456,l),
(387,456,l),
(381,289,l),
(201,289,l),
(360,721,l),
(256,760,l),
(45,184,l),
(381,184,l),
(381,0,l)
);
}
);
width = 654;
}
);
unicode = 52;
userData = {
com.typemytype.robofont.mark = (
0.656,
1,
0.6,
1
);
};
changeCount = 1;
},
{
color = 11;
glyphname = five;
lastChange = "2019-10-31 01:33:28 +0000";
layers = (
{
background = {
shapes = (
{
closed = 1;
nodes = (
(475,-10,o),
(567,98,o),
(567,244,cs),
(567,385,o),
(472,471,o),
(318,471,cs),
(279,471,o),
(252,468,o),
(234,463,c),
(244,637,l),
(512,637,l),
(512,735,l),
(135,735,l),
(120,349,l),
(147,364,o),
(224,376,o),
(283,376,cs),
(409,376,o),
(450,307,o),
(450,233,cs),
(450,145,o),
(384,92,o),
(295,92,cs),
(214,92,o),
(152,132,o),
(134,146,c),
(83,50,l),
(119,15,o),
(210,-10,o),
(298,-10,cs)
);
}
);
};
layerId = "12ECCE5E-04E9-4725-8BD5-31F21F15BB81";
shapes = (
{
closed = 1;
nodes = (
(470,-15,o),
(567,92,o),
(567,244,cs),
(567,385,o),
(472,471,o),
(318,471,cs),
(279,471,o),
(252,468,o),
(234,463,c),
(244,637,l),
(512,637,l),
(512,735,l),
(135,735,l),
(120,349,l),
(147,364,o),
(224,376,o),
(283,376,cs),
(409,376,o),
(450,307,o),
(450,233,cs),
(450,144,o),
(384,90,o),
(295,90,cs),
(214,90,o),
(152,131,o),
(134,146,c),
(83,52,l),
(134,8,o),
(210,-15,o),
(298,-15,cs)
);
}
);
width = 646;
}
);
unicode = 53;
userData = {
com.typemytype.robofont.mark = (
0.656,
1,
0.6,
1
);
};
},
{
color = 11;
glyphname = six;
lastChange = "2019-10-31 01:33:28 +0000";
layers = (
{
background = {
shapes = (
{
closed = 1;
nodes = (
(470,-10,o),
(578,81,o),
(578,229,cs),
(578,361,o),
(492,465,o),
(355,465,cs),
(305,465,o),
(270,450,o),
(250,432,c),
(262,446,o),
(278,491,o),
(423,717,c),
(327,773,l),
(86,369,o),
(74,318,o),
(74,234,cs),
(74,82,o),
(184,-10,o),
(320,-10,cs)
);
},
{
closed = 1;
nodes = (
(248,86,o),
(189,146,o),
(189,231,cs),
(189,318,o),
(251,369,o),
(330,369,cs),
(405,369,o),
(463,321,o),
(463,229,cs),
(463,147,o),
(412,86,o),
(327,86,cs)
);
}
);
};
layerId = "12ECCE5E-04E9-4725-8BD5-31F21F15BB81";
shapes = (
{
closed = 1;
nodes = (
(470,-15,o),
(578,76,o),
(578,236,cs),
(578,356,o),
(492,465,o),
(355,465,cs),
(305,465,o),
(270,450,o),
(250,432,c),
(262,446,o),
(275,486,o),
(420,704,c),
(324,760,l),
(98,388,o),
(74,324,o),
(74,229,cs),
(74,77,o),
(184,-15,o),
(320,-15,cs)
);
},
{
closed = 1;
nodes = (
(248,83,o),
(189,142,o),
(189,224,cs),
(189,314,o),
(245,369,o),
(330,369,cs),
(405,369,o),
(463,316,o),
(463,226,cs),
(463,143,o),
(412,83,o),
(327,83,cs)
);
}
);
width = 646;
}
);
unicode = 54;
userData = {
com.typemytype.robofont.mark = (
0.656,
1,
0.6,
1
);
};
},
{
glyphname = seven;
lastChange = "2018-06-22 18:32:31 +0000";
layers = (
{
layerId = "12ECCE5E-04E9-4725-8BD5-31F21F15BB81";
shapes = (
{
closed = 1;
nodes = (
(245,0,l),
(503,735,l),
(20,735,l),
(20,637,l),
(362,637,l),
(117,0,l)
);
}
);
width = 533;
}
);
unicode = 55;
userData = {
com.typemytype.robofont.mark = (
0.656,
1,
0.6,
1
);
};
},
{
color = 11;
glyphname = eight;
lastChange = "2019-10-31 01:33:28 +0000";
layers = (
{
background = {
shapes = (
{
closed = 1;
nodes = (
(460,-10,o),
(576,77,o),
(576,214,cs),
(576,310,o),
(515,363,o),
(453,389,c),
(503,416,o),
(545,465,o),
(545,540,cs),
(545,659,o),
(449,735,o),
(322,735,cs),
(196,735,o),
(99,661,o),
(99,540,cs),
(99,471,o),
(138,418,o),
(187,390,c),
(126,365,o),
(68,311,o),
(68,214,cs),
(68,77,o),
(183,-10,o),
(322,-10,cs)
);
},
{
closed = 1;
nodes = (
(235,86,o),
(181,141,o),
(181,214,cs),
(181,290,o),
(242,341,o),
(322,341,cs),
(402,341,o),
(462,288,o),
(462,214,cs),
(462,141,o),
(408,86,o),
(322,86,cs)
);
},
{
closed = 1;
nodes = (
(257,436,o),
(212,483,o),
(212,543,cs),
(212,604,o),
(255,647,o),
(322,647,cs),
(387,647,o),
(431,604,o),
(431,543,cs),
(431,483,o),
(381,436,o),
(322,436,cs)
);
}
);
};
layerId = "12ECCE5E-04E9-4725-8BD5-31F21F15BB81";
shapes = (
{
closed = 1;
nodes = (
(460,-15,o),
(576,73,o),
(576,212,cs),
(576,313,o),
(515,369,o),
(453,396,c),
(503,424,o),
(545,474,o),
(545,550,cs),
(545,670,o),
(449,747,o),
(322,747,cs),
(196,747,o),
(99,671,o),
(99,548,cs),
(99,479,o),
(138,426,o),
(187,397,c),
(126,371,o),
(68,314,o),
(68,212,cs),
(68,73,o),
(183,-15,o),
(322,-15,cs)
);
},
{
closed = 1;
nodes = (
(235,83,o),
(181,140,o),
(181,215,cs),
(181,294,o),
(242,347,o),
(322,347,cs),
(402,347,o),
(462,292,o),
(462,215,cs),
(462,140,o),
(408,83,o),
(322,83,cs)
);
},
{
closed = 1;
nodes = (
(257,443,o),
(212,492,o),
(212,553,cs),
(212,615,o),
(255,659,o),
(322,659,cs),
(387,659,o),
(431,615,o),
(431,553,cs),
(431,492,o),
(381,443,o),
(322,443,cs)
);
}
);
width = 646;
}
);
unicode = 56;
userData = {
com.typemytype.robofont.guides = (
{
angle = 90;
isGlobal = 0;
magnetic = 5;
x = 215;
y = 0;
},
{
angle = 90;
isGlobal = 0;
magnetic = 5;
x = 101;
y = 0;
},
{
angle = 90;
isGlobal = 0;
magnetic = 5;
x = 322;
y = 0;
}
);
com.typemytype.robofont.mark = (
0.656,
1,
0.6,
1
);
};
},
{
color = 11;
glyphname = nine;
lastChange = "2019-10-31 01:33:28 +0000";
layers = (
{
background = {
shapes = (
{
closed = 1;
nodes = (
(355,0,l),
(567,366,o),
(579,418,o),
(579,502,cs),
(579,655,o),
(470,747,o),
(334,747,cs),
(176,747,o),
(71,650,o),
(71,507,cs),
(71,375,o),
(162,271,o),
(297,271,cs),
(354,271,o),
(385,287,o),
(404,304,c),
(392,290,o),
(369,250,o),
(354,225,c),
(225,0,l)
);
},
{
closed = 1;
nodes = (
(251,367,o),
(186,415,o),
(186,506,cs),
(186,588,o),
(240,650,o),
(327,650,cs),
(406,650,o),
(464,590,o),
(464,505,cs),
(464,417,o),
(403,367,o),
(324,367,cs)
);
}
);
};
layerId = "12ECCE5E-04E9-4725-8BD5-31F21F15BB81";
shapes = (
{
closed = 1;
nodes = (
(355,0,l),
(567,366,o),
(579,418,o),
(579,502,cs),
(579,655,o),
(470,747,o),
(334,747,cs),
(176,747,o),
(71,650,o),
(71,507,cs),
(71,375,o),
(162,271,o),
(297,271,cs),
(354,271,o),
(385,287,o),
(404,304,c),
(392,290,o),
(369,250,o),
(354,225,c),
(225,0,l)
);
},
{
closed = 1;
nodes = (
(251,367,o),
(186,415,o),
(186,506,cs),
(186,588,o),
(240,650,o),
(327,650,cs),
(406,650,o),
(464,590,o),
(464,505,cs),
(464,417,o),
(403,367,o),
(324,367,cs)
);
}
);
width = 646;
}
);
unicode = 57;
userData = {
com.typemytype.robofont.mark = (
0.656,
1,
0.6,
1
);
};
},
{
glyphname = zero.zero;
lastChange = "2018-06-22 18:32:31 +0000";
layers = (
{
.lastUpdate = 719340314.969;
layerId = "12ECCE5E-04E9-4725-8BD5-31F21F15BB81";
shapes = (
{
closed = 1;
nodes = (
(257,91,l),
(464,673,l),
(385,673,l),
(177,91,l)
);
},
{
ref = zero;
}
);
width = 647;
}
);
},
{
glyphname = zero.osf;
lastChange = "2018-06-22 18:32:31 +0000";
layers = (
{
background = {
shapes = (
{
closed = 0;
nodes = (
(544,341,ls),
(544,483,o),
(483,584,o),
(301,584,cs),
(119,584,o),
(58,478,o),
(58,341,cs)
);
},
{
closed = 0;
nodes = (
(180,341,ls),
(180,423,o),
(200,483,o),
(301,483,cs),
(403,483,o),
(422,423,o),
(422,341,cs)
);
}
);
};
layerId = "12ECCE5E-04E9-4725-8BD5-31F21F15BB81";
shapes = (
{
closed = 1;
nodes = (
(478,-9,o),
(547,145,o),
(547,294,cs),
(547,446,o),
(483,584,o),
(301,584,cs),
(119,584,o),
(55,441,o),
(55,294,cs),
(55,145,o),
(124,-9,o),
(301,-9,cs)
);
},
{
closed = 1;
nodes = (
(200,93,o),
(177,213,o),
(177,294,cs),
(177,386,o),
(200,483,o),
(301,483,cs),
(403,483,o),
(425,386,o),
(425,294,cs),
(425,212,o),
(403,93,o),
(301,93,cs)
);
}
);
width = 602;
}
);
},
{
glyphname = one.osf;
lastChange = "2018-06-22 18:32:31 +0000";
layers = (
{
layerId = "12ECCE5E-04E9-4725-8BD5-31F21F15BB81";
shapes = (
{
closed = 1;
nodes = (
(242,0,l),
(242,584,l),
(129,552,l),
(129,0,l)
);
}
);
width = 370;
}
);
},
{
glyphname = two.osf;
lastChange = "2018-06-22 18:32:31 +0000";
layers = (
{
layerId = "12ECCE5E-04E9-4725-8BD5-31F21F15BB81";
shapes = (
{
closed = 1;
nodes = (
(510,0,l),
(510,99,l),
(299,99,l),
(382,166,o),
(487,267,o),
(487,375,cs),
(487,506,o),
(413,584,o),
(273,584,cs),
(133,584,o),
(77,492,o),
(57,439,c),
(150,389,l),
(170,428,o),
(187,480,o),
(267,480,cs),
(353,480,o),
(373,424,o),
(373,382,cs),
(373,285,o),
(263,198,o),
(50,0,c)
);
}
);
width = 560;
}
);
},
{
glyphname = three.osf;
lastChange = "2018-06-22 22:17:12 +0000";
layers = (
{
layerId = "12ECCE5E-04E9-4725-8BD5-31F21F15BB81";
shapes = (
{
closed = 1;
nodes = (
(451,-152,o),
(547,-42,o),
(547,97,cs),
(547,207,o),
(471,291,o),
(341,297,c),
(549,574,l),
(84,574,l),
(84,476,l),
(350,476,l),
(166,209,l),
(191,214,o),
(227,216,o),
(259,216,cs),
(364,216,o),
(423,168,o),
(423,89,cs),
(423,-20,o),
(360,-51,o),
(261,-51,cs),
(192,-51,o),
(129,-21,o),
(97,5,c),
(50,-91,l),
(106,-133,o),
(190,-152,o),
(267,-152,cs)
);
}
);
width = 599;
}
);
},
{
color = 8;
glyphname = four.osf;
lastChange = "2018-06-22 22:17:12 +0000";
layers = (
{
layerId = "12ECCE5E-04E9-4725-8BD5-31F21F15BB81";
shapes = (
{
closed = 1;
nodes = (
(470,-184,l),
(470,0,l),
(575,0,l),
(575,102,l),
(470,102,l),
(470,272,l),
(365,272,l),
(356,102,l),
(174,102,l),
(335,552,l),
(223,583,l),
(20,0,l),
(356,0,l),
(356,-184,l)
);
}
);
width = 623;
}
);
},
{
color = 9;
glyphname = five.osf;
lastChange = "2019-11-07 22:10:30 +0000";
layers = (
{
layerId = "12ECCE5E-04E9-4725-8BD5-31F21F15BB81";
shapes = (
{
closed = 1;
nodes = (
(427,-146,o),
(513,-35,o),
(513,112,cs),
(513,256,o),
(416,330,o),
(285,330,cs),
(246,330,o),
(219,326,o),
(201,322,c),
(211,476,l),
(479,476,l),
(479,574,l),
(102,574,l),
(87,207,l),
(114,223,o),
(201,235,o),
(250,235,cs),
(343,235,o),
(396,184,o),
(396,101,cs),
(396,-1,o),
(325,-38,o),
(248,-38,cs),
(167,-38,o),
(117,0,o),
(99,15,c),
(50,-79,l),
(86,-114,o),
(174,-146,o),
(262,-146,cs)
);
}
);
width = 563;
}
);
},
{
glyphname = six.osf;
lastChange = "2018-06-22 22:17:12 +0000";
layers = (
{
layerId = "12ECCE5E-04E9-4725-8BD5-31F21F15BB81";
shapes = (
{
closed = 1;
nodes = (
(451,-10,o),
(559,81,o),
(559,229,cs),
(559,361,o),
(473,465,o),
(336,465,cs),
(286,465,o),
(251,450,o),
(231,432,c),
(243,446,o),
(259,491,o),
(404,717,c),
(308,773,l),
(67,369,o),
(55,318,o),
(55,234,cs),
(55,82,o),
(165,-10,o),
(301,-10,cs)
);
},
{
closed = 1;
nodes = (
(229,86,o),
(170,146,o),
(170,231,cs),
(170,318,o),
(232,369,o),
(311,369,cs),
(386,369,o),
(444,321,o),
(444,229,cs),
(444,147,o),
(393,86,o),
(308,86,cs)
);
}
);
width = 614;
}
);
},
{
glyphname = seven.osf;
lastChange = "2023-10-18 16:45:24 +0000";
layers = (
{
layerId = "12ECCE5E-04E9-4725-8BD5-31F21F15BB81";
shapes = (
{
closed = 1;
nodes = (
(265,-141,l),
(523,574,l),
(40,574,l),
(40,476,l),
(382,476,l),
(137,-141,l)
);
}
);
width = 553;
}
);
changeCount = 1;
},
{
color = 9;
glyphname = nine.osf;
lastChange = "2019-11-07 22:09:35 +0000";
layers = (
{
.lastUpdate = 719340297.213;
background = {
shapes = (
{
closed = 1;
nodes = (
(339,-139,l),
(551,227,o),
(563,256,o),
(563,339,cs),
(563,492,o),
(454,584,o),
(318,584,cs),
(160,584,o),
(55,487,o),
(55,344,cs),
(55,212,o),
(146,108,o),
(281,108,cs),
(338,108,o),
(369,124,o),
(388,141,c),
(376,127,o),
(353,87,o),
(338,62,c),
(209,-139,l)
);
},
{
closed = 1;
nodes = (
(235,204,o),
(170,252,o),
(170,343,cs),
(170,425,o),
(224,487,o),
(311,487,cs),
(390,487,o),
(448,427,o),
(448,342,cs),
(448,255,o),
(387,204,o),
(308,204,cs)
);
}
);
};
layerId = "12ECCE5E-04E9-4725-8BD5-31F21F15BB81";
shapes = (
{
pos = (0,-161);
ref = nine;
}
);
width = 646;
}
);
},
{
color = 3;
glyphname = zero.tf;
lastChange = "2023-10-15 03:37:05 +0000";
layers = (
{
layerId = "12ECCE5E-04E9-4725-8BD5-31F21F15BB81";
shapes = (
{
closed = 1;
nodes = (
(502,-9,o),
(575,157,o),
(575,370,cs),
(575,589,o),
(507,747,o),
(308,747,cs),
(108,747,o),
(42,583,o),
(42,370,cs),
(42,163,o),
(114,-9,o),
(308,-9,cs)
);
},
{
closed = 1;
nodes = (
(187,93,o),
(163,236,o),
(163,370,cs),
(163,516,o),
(187,646,o),
(308,646,cs),
(430,646,o),
(453,516,o),
(453,370,cs),
(453,235,o),
(430,93,o),
(308,93,cs)
);
}
);
width = 617;
}
);
userData = {
KernOnSpecialSpacing = {
L = NoKerning;
R = NoKerning;
};
};
},
{
color = 3;
glyphname = one.tf;
lastChange = "2023-10-15 03:37:05 +0000";
layers = (
{
layerId = "12ECCE5E-04E9-4725-8BD5-31F21F15BB81";
shapes = (
{
closed = 1;
nodes = (
(388,21,l),
(388,744,l),
(275,712,l),
(275,21,l)
);
},
{
closed = 1;
nodes = (
(527,0,l),
(527,89,l),
(115,89,l),
(115,0,l)
);
},
{
closed = 1;
nodes = (
(378,648,l),
(388,744,l),
(108,680,l),
(128,576,l)
);
}
);
width = 617;
}
);
userData = {
KernOnSpecialSpacing = {
L = NoKerning;
R = NoKerning;
};
};
},
{
color = 3;
glyphname = two.tf;
lastChange = "2023-10-15 03:37:05 +0000";
layers = (
{
layerId = "12ECCE5E-04E9-4725-8BD5-31F21F15BB81";
shapes = (
{
closed = 1;
nodes = (
(551,0,l),
(551,99,l),
(266,99,l),
(402,271,l),
(478,364,o),
(522,453,o),
(522,539,cs),
(522,670,o),
(434,747,o),
(293,747,cs),
(153,747,o),
(75,641,o),
(55,588,c),
(148,538,l),
(168,577,o),
(207,643,o),
(287,643,cs),
(373,643,o),
(408,598,o),
(408,526,cs),
(408,455,o),
(337,361,o),
(298,309,c),
(51,0,l)
);
}
);
width = 617;
}
);
userData = {
KernOnSpecialSpacing = {
L = NoKerning;
R = NoKerning;
};
};
},
{
color = 3;
glyphname = three.tf;
lastChange = "2023-10-15 03:37:05 +0000";
layers = (
{
layerId = "12ECCE5E-04E9-4725-8BD5-31F21F15BB81";
shapes = (
{
closed = 1;
nodes = (
(466,-14,o),
(570,95,o),
(570,234,cs),
(570,344,o),
(488,433,o),
(358,438,c),
(566,735,l),
(94,735,l),
(94,637,l),
(367,637,l),
(183,351,l),
(208,355,o),
(243,357,o),
(276,357,cs),
(381,357,o),
(446,305,o),
(446,226,cs),
(446,117,o),
(366,86,o),
(276,86,cs),
(207,86,o),
(138,121,o),
(107,146,c),
(60,51,l),
(116,8,o),
(205,-14,o),
(282,-14,cs)
);
}
);
width = 617;
}
);
userData = {
KernOnSpecialSpacing = {
L = NoKerning;
R = NoKerning;
};
};
},
{
color = 3;
glyphname = four.tf;
lastChange = "2023-10-15 03:37:05 +0000";
layers = (
{
layerId = "12ECCE5E-04E9-4725-8BD5-31F21F15BB81";
shapes = (
{
closed = 1;
nodes = (
(484,0,l),
(484,184,l),
(586,184,l),
(586,289,l),
(484,289,l),
(484,456,l),
(373,456,l),
(367,289,l),
(188,289,l),
(344,722,l),
(241,761,l),
(31,184,l),
(367,184,l),
(367,0,l)
);
}
);
width = 617;
}
);
userData = {
KernOnSpecialSpacing = {
L = NoKerning;
R = NoKerning;
};
};
},
{
color = 3;
glyphname = five.tf;
lastChange = "2023-10-15 03:37:05 +0000";
layers = (
{
layerId = "12ECCE5E-04E9-4725-8BD5-31F21F15BB81";
shapes = (
{
closed = 1;
nodes = (
(463,-15,o),
(555,98,o),
(555,244,cs),
(555,385,o),
(459,471,o),
(306,471,cs),
(266,471,o),
(240,468,o),
(222,463,c),
(231,637,l),
(500,637,l),
(500,735,l),
(123,735,l),
(108,349,l),
(135,364,o),
(211,376,o),
(271,376,cs),
(396,376,o),
(438,307,o),
(438,233,cs),
(438,145,o),
(373,90,o),
(283,90,cs),
(203,90,o),
(140,132,o),
(122,146,c),
(71,50,l),
(107,15,o),
(198,-15,o),
(285,-15,cs)
);
}
);
width = 617;
}
);
userData = {
KernOnSpecialSpacing = {
L = NoKerning;
R = NoKerning;
};
};
},
{
color = 3;
glyphname = six.tf;
lastChange = "2023-10-15 03:37:05 +0000";
layers = (
{
layerId = "12ECCE5E-04E9-4725-8BD5-31F21F15BB81";
shapes = (
{
closed = 1;
nodes = (
(470,-15,o),
(578,76,o),
(578,236,cs),
(578,356,o),
(492,465,o),
(355,465,cs),
(305,465,o),
(270,450,o),
(250,432,c),
(262,446,o),
(275,486,o),
(420,704,c),
(324,760,l),
(98,388,o),
(74,324,o),
(74,229,cs),
(74,77,o),
(184,-15,o),
(320,-15,cs)
);
},
{
closed = 1;
nodes = (
(248,83,o),
(189,142,o),
(189,224,cs),
(189,314,o),
(245,369,o),
(330,369,cs),
(405,369,o),
(463,316,o),
(463,226,cs),
(463,143,o),
(412,83,o),
(327,83,cs)
);
}
);
width = 646;
}
);
userData = {
KernOnSpecialSpacing = {
L = NoKerning;
R = NoKerning;
};
};
},
{
color = 3;
glyphname = seven.tf;
lastChange = "2023-10-15 03:37:05 +0000";
layers = (
{
layerId = "12ECCE5E-04E9-4725-8BD5-31F21F15BB81";
shapes = (
{
closed = 1;
nodes = (
(306,0,l),
(564,735,l),
(81,735,l),
(81,637,l),
(423,637,l),
(179,0,l)
);
}
);
width = 617;
}
);
userData = {
KernOnSpecialSpacing = {
L = NoKerning;
R = NoKerning;
};
};
},
{
color = 3;
glyphname = eight.tf;
lastChange = "2023-10-15 03:37:05 +0000";
layers = (
{
layerId = "12ECCE5E-04E9-4725-8BD5-31F21F15BB81";
shapes = (
{
closed = 1;
nodes = (
(447,-15,o),
(562,77,o),
(562,214,cs),
(562,310,o),
(501,370,o),
(439,396,c),
(489,423,o),
(532,477,o),
(532,552,cs),
(532,671,o),
(436,747,o),
(309,747,cs),
(183,747,o),
(86,673,o),
(86,552,cs),
(86,483,o),
(126,425,o),
(175,397,c),
(114,372,o),
(55,311,o),
(55,214,cs),
(55,77,o),
(170,-15,o),
(309,-15,cs)
);
},
{
closed = 1;
nodes = (
(222,81,o),
(168,140,o),
(168,213,cs),
(168,289,o),
(229,347,o),
(309,347,cs),
(389,347,o),
(448,287,o),
(448,213,cs),
(448,140,o),
(395,81,o),
(309,81,cs)
);
},
{
closed = 1;
nodes = (
(244,443,o),
(199,496,o),
(199,556,cs),
(199,617,o),
(242,659,o),
(309,659,cs),
(374,659,o),
(418,617,o),
(418,556,cs),
(418,496,o),
(368,443,o),
(309,443,cs)
);
}
);
width = 617;
}
);
userData = {
KernOnSpecialSpacing = {
L = NoKerning;
R = NoKerning;
};
};
},
{
color = 3;
glyphname = nine.tf;
lastChange = "2023-10-15 03:37:05 +0000";
layers = (
{
layerId = "12ECCE5E-04E9-4725-8BD5-31F21F15BB81";
shapes = (
{
closed = 1;
nodes = (
(338,0,l),
(549,366,o),
(561,418,o),
(561,502,cs),
(561,655,o),
(452,747,o),
(316,747,cs),
(158,747,o),
(53,650,o),
(53,507,cs),
(53,375,o),
(144,271,o),
(279,271,cs),
(336,271,o),
(367,287,o),
(386,304,c),
(374,290,o),
(351,250,o),
(336,225,c),
(207,0,l)
);
},
{
closed = 1;
nodes = (
(234,367,o),
(168,415,o),
(168,506,cs),
(168,588,o),
(222,650,o),
(309,650,cs),
(388,650,o),
(446,590,o),
(446,505,cs),
(446,417,o),
(385,367,o),
(306,367,cs)
);
}
);
width = 617;
}
);
userData = {
KernOnSpecialSpacing = {
L = NoKerning;
R = NoKerning;
};
};
},
{
glyphname = zero.tosf;
lastChange = "2023-10-15 03:37:05 +0000";
layers = (
{
background = {
shapes = (
{
closed = 0;
nodes = (
(542,341,ls),
(542,483,o),
(481,584,o),
(299,584,cs),
(117,584,o),
(56,478,o),
(56,341,cs)
);
},
{
closed = 0;
nodes = (
(178,341,ls),
(178,423,o),
(198,483,o),
(299,483,cs),
(401,483,o),
(420,423,o),
(420,341,cs)
);
}
);
};
layerId = "12ECCE5E-04E9-4725-8BD5-31F21F15BB81";
shapes = (
{
closed = 1;
nodes = (
(485,-9,o),
(551,145,o),
(551,294,cs),
(551,446,o),
(490,584,o),
(308,584,cs),
(126,584,o),
(66,441,o),
(66,294,cs),
(66,145,o),
(131,-9,o),
(308,-9,cs)
);
},
{
closed = 1;
nodes = (
(207,93,o),
(188,213,o),
(188,294,cs),
(188,386,o),
(207,483,o),
(308,483,cs),
(410,483,o),
(429,386,o),
(429,294,cs),
(429,212,o),
(410,93,o),
(308,93,cs)
);
}
);
width = 617;
}
);
userData = {
KernOnSpecialSpacing = {
L = NoKerning;
R = NoKerning;
};
};
},
{
glyphname = one.tosf;
lastChange = "2023-10-15 03:37:05 +0000";
layers = (
{
layerId = "12ECCE5E-04E9-4725-8BD5-31F21F15BB81";
shapes = (
{
closed = 1;
nodes = (
(380,21,l),
(380,584,l),
(267,552,l),
(267,21,l)
);
},
{
closed = 1;
nodes = (
(527,0,l),
(527,89,l),
(115,89,l),
(115,0,l)
);
},
{
closed = 1;
nodes = (
(370,488,l),
(380,584,l),
(100,520,l),
(120,416,l)
);
}
);
width = 617;
}
);
userData = {
KernOnSpecialSpacing = {
L = NoKerning;
R = NoKerning;
};
};
},
{
glyphname = two.tosf;
lastChange = "2023-10-15 03:37:05 +0000";
layers = (
{
layerId = "12ECCE5E-04E9-4725-8BD5-31F21F15BB81";
shapes = (
{
closed = 1;
nodes = (
(559,0,l),
(559,99,l),
(318,99,l),
(401,166,o),
(516,255,o),
(516,363,cs),
(516,494,o),
(442,584,o),
(302,584,cs),
(162,584,o),
(103,492,o),
(83,439,c),
(176,389,l),
(196,428,o),
(216,480,o),
(296,480,cs),
(382,480,o),
(402,412,o),
(402,370,cs),
(402,273,o),
(302,218,o),
(59,0,c)
);
}
);
width = 617;
}
);
userData = {
KernOnSpecialSpacing = {
L = NoKerning;
R = NoKerning;
};
};
},
{
color = 8;
glyphname = three.tosf;
lastChange = "2023-10-15 03:37:05 +0000";
layers = (
{
layerId = "12ECCE5E-04E9-4725-8BD5-31F21F15BB81";
shapes = (
{
closed = 1;
nodes = (
(463,-152,o),
(551,-47,o),
(551,92,cs),
(551,202,o),
(475,291,o),
(345,297,c),
(553,574,l),
(91,574,l),
(91,476,l),
(354,476,l),
(170,209,l),
(195,214,o),
(231,216,o),
(263,216,cs),
(368,216,o),
(427,163,o),
(427,84,cs),
(427,-25,o),
(362,-51,o),
(273,-51,cs),
(204,-51,o),
(136,-21,o),
(104,5,c),
(57,-91,l),
(113,-133,o),
(202,-152,o),
(279,-152,cs)
);
}
);
width = 613;
}
);
userData = {
KernOnSpecialSpacing = {
L = NoKerning;
R = NoKerning;
};
};
},
{
color = 8;
glyphname = four.tosf;
lastChange = "2023-10-15 03:37:05 +0000";
layers = (
{
layerId = "12ECCE5E-04E9-4725-8BD5-31F21F15BB81";
shapes = (
{
closed = 1;
nodes = (
(473,-184,l),
(473,0,l),
(579,0,l),
(579,105,l),
(473,105,l),
(473,272,l),
(365,272,l),
(360,105,l),
(180,105,l),
(331,552,l),
(227,590,l),
(24,0,l),
(360,0,l),
(360,-184,l)
);
}
);
width = 617;
}
);
userData = {
KernOnSpecialSpacing = {
L = NoKerning;
R = NoKerning;
};
};
},
{
color = 9;
glyphname = five.tosf;
lastChange = "2023-10-15 03:37:05 +0000";
layers = (
{
layerId = "12ECCE5E-04E9-4725-8BD5-31F21F15BB81";
shapes = (
{
closed = 1;
nodes = (
(465,-145,o),
(557,-32,o),
(557,115,cs),
(557,256,o),
(462,330,o),
(308,330,cs),
(269,330,o),
(242,326,o),
(224,322,c),
(234,476,l),
(502,476,l),
(502,574,l),
(125,574,l),
(110,207,l),
(137,223,o),
(214,235,o),
(273,235,cs),
(399,235,o),
(440,177,o),
(440,104,cs),
(440,15,o),
(374,-38,o),
(285,-38,cs),
(204,-38,o),
(142,2,o),
(124,17,c),
(73,-79,l),
(109,-114,o),
(200,-145,o),
(288,-145,cs)
);
}
);
width = 617;
}
);
userData = {
KernOnSpecialSpacing = {
L = NoKerning;
R = NoKerning;
};
};
},
{
color = 9;
glyphname = six.tosf;
lastChange = "2023-10-15 03:37:05 +0000";
layers = (
{
.lastUpdate = 719340297.228;
background = {
shapes = (
{
closed = 1;
nodes = (
(457,-10,o),
(565,81,o),
(565,229,cs),
(565,361,o),
(479,465,o),
(342,465,cs),
(292,465,o),
(257,450,o),
(237,432,c),
(249,446,o),
(265,491,o),
(410,717,c),
(314,773,l),
(73,369,o),
(61,318,o),
(61,234,cs),
(61,82,o),
(171,-10,o),
(307,-10,cs)
);
},
{
closed = 1;
nodes = (
(235,86,o),
(176,146,o),
(176,231,cs),
(176,318,o),
(238,369,o),
(317,369,cs),
(392,369,o),
(450,321,o),
(450,229,cs),
(450,147,o),
(399,86,o),
(314,86,cs)
);
}
);
};
layerId = "12ECCE5E-04E9-4725-8BD5-31F21F15BB81";
shapes = (
{
ref = six;
}
);
width = 646;
}
);
userData = {
KernOnSpecialSpacing = {
L = NoKerning;
R = NoKerning;
};
};
},
{
glyphname = seven.tosf;
lastChange = "2023-10-15 03:37:05 +0000";
layers = (
{
layerId = "12ECCE5E-04E9-4725-8BD5-31F21F15BB81";
shapes = (
{
closed = 1;
nodes = (
(306,-141,l),
(564,574,l),
(81,574,l),
(81,476,l),
(423,476,l),
(178,-141,l)
);
}
);
width = 617;
}
);
userData = {
KernOnSpecialSpacing = {
L = NoKerning;
R = NoKerning;
};
};
},
{
color = 8;
glyphname = eight.tosf;
lastChange = "2023-10-15 03:37:05 +0000";
layers = (
{
layerId = "12ECCE5E-04E9-4725-8BD5-31F21F15BB81";
shapes = (
{
closed = 1;
nodes = (
(447,-10,o),
(562,77,o),
(562,214,cs),
(562,310,o),
(500,363,o),
(438,389,c),
(488,416,o),
(532,465,o),
(532,540,cs),
(532,659,o),
(436,735,o),
(309,735,cs),
(183,735,o),
(86,661,o),
(86,540,cs),
(86,471,o),
(127,418,o),
(176,390,c),
(115,365,o),
(55,311,o),
(55,214,cs),
(55,77,o),
(170,-10,o),
(309,-10,cs)
);
},
{
closed = 1;
nodes = (
(222,86,o),
(168,140,o),
(168,213,cs),
(168,289,o),
(229,342,o),
(309,342,cs),
(389,342,o),
(448,287,o),
(448,213,cs),
(448,140,o),
(395,86,o),
(309,86,cs)
);
},
{
closed = 1;
nodes = (
(244,436,o),
(199,484,o),
(199,544,cs),
(199,605,o),
(242,647,o),
(309,647,cs),
(374,647,o),
(418,605,o),
(418,544,cs),
(418,484,o),
(368,436,o),
(309,436,cs)
);
}
);
width = 617;
}
);
userData = {
KernOnSpecialSpacing = {
L = NoKerning;
R = NoKerning;
};
com.typemytype.robofont.guides = (
{
angle = 90;
isGlobal = 0;
magnetic = 5;
x = 215;
y = 0;
},
{
angle = 90;
isGlobal = 0;
magnetic = 5;
x = 101;
y = 0;
},
{
angle = 90;
isGlobal = 0;
magnetic = 5;
x = 322;
y = 0;
}
);
};
},
{
glyphname = nine.tosf;
lastChange = "2023-10-15 03:37:05 +0000";
layers = (
{
layerId = "12ECCE5E-04E9-4725-8BD5-31F21F15BB81";
shapes = (
{
closed = 1;
nodes = (
(341,-139,l),
(543,201,o),
(565,256,o),
(565,339,cs),
(565,492,o),
(456,584,o),
(320,584,cs),
(162,584,o),
(57,487,o),
(57,344,cs),
(57,212,o),
(148,108,o),
(283,108,cs),
(340,108,o),
(371,124,o),
(390,141,c),
(378,127,o),
(355,87,o),
(340,62,cs),
(211,-139,l)
);
},
{
closed = 1;
nodes = (
(237,204,o),
(172,252,o),
(172,343,cs),
(172,425,o),
(226,487,o),
(313,487,cs),
(392,487,o),
(450,427,o),
(450,342,cs),
(450,255,o),
(389,204,o),
(310,204,cs)
);
}
);
width = 617;
}
);
userData = {
KernOnSpecialSpacing = {
L = NoKerning;
R = NoKerning;
};
};
},
{
glyphname = zero.osf.zero;
lastChange = "2018-06-22 18:32:31 +0000";
layers = (
{
.lastUpdate = 719340297.164;
layerId = "12ECCE5E-04E9-4725-8BD5-31F21F15BB81";
shapes = (
{
closed = 1;
nodes = (
(257,91,l),
(434,500,l),
(355,500,l),
(177,91,l)
);
},
{
ref = zero.osf;
}
);
width = 602;
}
);
metricLeft = zero.osf;
metricWidth = zero.osf;
},
{
color = 3;
glyphname = zero.tf.zero;
lastChange = "2023-10-15 03:20:36 +0000";
layers = (
{
layerId = "12ECCE5E-04E9-4725-8BD5-31F21F15BB81";
shapes = (
{
closed = 1;
nodes = (
(502,-9,o),
(575,157,o),
(575,370,cs),
(575,589,o),
(507,747,o),
(308,747,cs),
(108,747,o),
(42,583,o),
(42,370,cs),
(42,163,o),
(114,-9,o),
(308,-9,cs)
);
},
{
closed = 1;
nodes = (
(183,85,o),
(159,232,o),
(159,370,cs),
(159,520,o),
(183,654,o),
(308,654,cs),
(434,654,o),
(457,520,o),
(457,370,cs),
(457,231,o),
(434,85,o),
(308,85,cs)
);
},
{
closed = 1;
nodes = (
(245,91,l),
(452,673,l),
(373,673,l),
(166,91,l)
);
}
);
width = 617;
}
);
},
{
glyphname = zero.tosf.zero;
lastChange = "2018-06-22 18:32:31 +0000";
layers = (
{
.lastUpdate = 719340297.153;
layerId = "12ECCE5E-04E9-4725-8BD5-31F21F15BB81";
shapes = (
{
closed = 1;
nodes = (
(273,91,l),
(450,500,l),
(371,500,l),
(193,91,l)
);
},
{
ref = zero.tosf;
}
);
width = 617;
}
);
metricLeft = zero.tosf;
metricWidth = zero.tosf;
},
{
glyphname = zero.dnom;
lastChange = "2019-11-07 22:11:43 +0000";
layers = (
{
layerId = "12ECCE5E-04E9-4725-8BD5-31F21F15BB81";
shapes = (
{
closed = 1;
nodes = (
(359,-6,o),
(411,97,o),
(411,228,cs),
(411,362,o),
(364,468,o),
(222,468,cs),
(76,468,o),
(30,359,o),
(30,228,cs),
(30,100,o),
(80,-6,o),
(222,-6,cs)
);
},
{
closed = 1;
nodes = (
(152,82,o),
(140,156,o),
(140,228,cs),
(140,303,o),
(152,380,o),
(222,380,cs),
(289,380,o),
(300,303,o),
(300,228,cs),
(300,155,o),
(289,82,o),
(222,82,cs)
);
}
);
width = 441;
}
);
userData = {
com.typemytype.robofont.mark = (
0.6,
0.986,
1,
1
);
};
},
{
glyphname = one.dnom;
lastChange = "2018-06-22 21:17:00 +0000";
layers = (
{
layerId = "12ECCE5E-04E9-4725-8BD5-31F21F15BB81";
shapes = (
{
closed = 1;
nodes = (
(183,0,l),
(183,468,l),
(81,443,l),
(81,0,l)
);
}
);
width = 264;
}
);
userData = {
com.typemytype.robofont.mark = (
0.6,
0.986,
1,
1
);
};
},
{
glyphname = two.dnom;
lastChange = "2019-11-07 22:11:50 +0000";
layers = (
{
layerId = "12ECCE5E-04E9-4725-8BD5-31F21F15BB81";
shapes = (
{
closed = 1;
nodes = (
(403,0,l),
(403,86,l),
(234,86,l),
(257,112,o),
(279,136,o),
(302,162,cs),
(351,217,o),
(383,279,o),
(383,331,cs),
(383,413,o),
(320,465,o),
(220,465,cs),
(120,465,o),
(59,389,o),
(43,348,c),
(130,309,l),
(145,334,o),
(171,375,o),
(216,375,cs),
(262,375,o),
(282,354,o),
(282,324,cs),
(282,294,o),
(238,233,o),
(212,199,c),
(28,0,l)
);
}
);
width = 450;
}
);
userData = {
com.typemytype.robofont.mark = (
0.6,
0.986,
1,
1
);
};
},
{
glyphname = three.dnom;
lastChange = "2019-11-07 22:11:54 +0000";
layers = (
{
layerId = "12ECCE5E-04E9-4725-8BD5-31F21F15BB81";
shapes = (
{
closed = 1;
nodes = (
(318,-7,o),
(391,59,o),
(391,149,cs),
(391,213,o),
(344,266,o),
(266,278,c),
(405,458,l),
(52,458,l),
(52,372,l),
(217,372,l),
(92,195,l),
(136,201,o),
(168,205,o),
(185,205,cs),
(245,205,o),
(281,182,o),
(281,144,cs),
(281,93,o),
(234,80,o),
(185,80,cs),
(142,80,o),
(94,102,o),
(69,119,c),
(25,38,l),
(70,8,o),
(136,-7,o),
(189,-7,cs)
);
}
);
width = 440;
}
);
userData = {
com.typemytype.robofont.mark = (
0.6,
0.986,
1,
1
);
};
},
{
glyphname = four.dnom;
lastChange = "2019-08-21 00:24:53 +0000";
layers = (
{
layerId = "12ECCE5E-04E9-4725-8BD5-31F21F15BB81";
shapes = (
{
closed = 1;
nodes = (
(356,0,l),
(356,107,l),
(423,107,l),
(423,195,l),
(356,195,l),
(356,291,l),
(250,291,l),
(250,195,l),
(169,195,l),
(265,447,l),
(168,481,l),
(20,107,l),
(250,107,l),
(250,0,l)
);
}
);
width = 453;
}
);
userData = {
com.typemytype.robofont.mark = (
0.6,
0.986,
1,
1
);
};
},
{
glyphname = five.dnom;
lastChange = "2019-11-07 22:12:10 +0000";
layers = (
{
layerId = "12ECCE5E-04E9-4725-8BD5-31F21F15BB81";
shapes = (
{
closed = 1;
nodes = (
(323,-7,o),
(389,61,o),
(389,155,cs),
(389,246,o),
(321,300,o),
(213,300,cs),
(195,300,o),
(180,300,o),
(170,299,c),
(177,372,l),
(355,372,l),
(355,459,l),
(75,459,l),
(67,191,l),
(96,207,o),
(150,216,o),
(189,216,cs),
(260,216,o),
(284,183,o),
(284,149,cs),
(284,107,o),
(246,81,o),
(198,81,cs),
(147,81,o),
(102,109,o),
(87,119,c),
(40,40,l),
(71,15,o),
(139,-7,o),
(200,-7,cs)
);
}
);
width = 434;
}
);
userData = {
com.typemytype.robofont.mark = (
0.6,
0.986,
1,
1
);
};
},
{
glyphname = six.dnom;
lastChange = "2019-11-07 22:13:39 +0000";
layers = (
{
layerId = "12ECCE5E-04E9-4725-8BD5-31F21F15BB81";
shapes = (
{
closed = 1;
nodes = (
(323,-6,o),
(399,54,o),
(399,149,cs),
(399,234,o),
(337,303,o),
(238,303,cs),
(225,303,o),
(217,303,o),
(207,301,c),
(222,325,o),
(250,362,o),
(304,430,c),
(216,478,l),
(48,233,o),
(39,202,o),
(39,152,cs),
(39,55,o),
(118,-6,o),
(217,-6,cs)
);
},
{
closed = 1;
nodes = (
(177,78,o),
(144,111,o),
(144,150,cs),
(144,191,o),
(178,220,o),
(221,220,cs),
(263,220,o),
(294,192,o),
(294,149,cs),
(294,112,o),
(268,78,o),
(221,78,cs)
);
}
);
width = 440;
}
);
userData = {
com.typemytype.robofont.mark = (
0.6,
0.986,
1,
1
);
};
},
{
glyphname = seven.dnom;
lastChange = "2019-11-07 22:12:16 +0000";
layers = (
{
layerId = "12ECCE5E-04E9-4725-8BD5-31F21F15BB81";
shapes = (
{
closed = 1;
nodes = (
(199,0,l),
(380,459,l),
(25,459,l),
(25,373,l),
(242,373,l),
(80,0,l)
);
}
);
width = 400;
}
);
userData = {
com.typemytype.robofont.mark = (
0.6,
0.986,
1,
1
);
};
},
{
glyphname = eight.dnom;
lastChange = "2019-11-07 22:13:01 +0000";
layers = (
{
layerId = "12ECCE5E-04E9-4725-8BD5-31F21F15BB81";
shapes = (
{
closed = 1;
nodes = (
(325,-6,o),
(407,50,o),
(407,138,cs),
(407,186,o),
(373,220,o),
(333,242,c),
(367,260,o),
(387,299,o),
(387,337,cs),
(387,420,o),
(317,466,o),
(228,466,cs),
(136,466,o),
(66,421,o),
(66,337,cs),
(66,299,o),
(85,261,o),
(119,242,c),
(78,221,o),
(45,186,o),
(45,138,cs),
(45,50,o),
(126,-6,o),
(228,-6,cs)
);
},
{
closed = 1;
nodes = (
(177,79,o),
(150,105,o),
(150,138,cs),
(150,174,o),
(181,196,o),
(228,196,cs),
(271,196,o),
(302,173,o),
(302,138,cs),
(302,105,o),
(274,79,o),
(228,79,cs)
);
},
{
closed = 1;
nodes = (
(192,280,o),
(167,303,o),
(167,334,cs),
(167,370,o),
(191,386,o),
(228,386,cs),
(260,386,o),
(284,370,o),
(284,334,cs),
(284,303,o),
(256,280,o),
(228,280,cs)
);
}
);
width = 452;
}
);
userData = {
com.typemytype.robofont.guides = (
{
angle = 90;
isGlobal = 0;
magnetic = 5;
x = 147;
y = 0;
},
{
angle = 90;
isGlobal = 0;
magnetic = 5;
x = 69;
y = 0;
},
{
angle = 90;
isGlobal = 0;
magnetic = 5;
x = 221;
y = 0;
}
);
com.typemytype.robofont.mark = (
0.6,
0.986,
1,
1
);
};
},
{
glyphname = nine.dnom;
lastChange = "2019-11-07 22:13:24 +0000";
layers = (
{
layerId = "12ECCE5E-04E9-4725-8BD5-31F21F15BB81";
shapes = (
{
closed = 1;
nodes = (
(249,0,l),
(394,216,o),
(402,251,o),
(402,300,cs),
(402,398,o),
(325,460,o),
(226,460,cs),
(115,460,o),
(40,396,o),
(40,304,cs),
(40,218,o),
(105,147,o),
(204,147,cs),
(214,147,o),
(224,147,o),
(231,148,c),
(130,0,l)
);
},
{
closed = 1;
nodes = (
(181,232,o),
(145,258,o),
(145,303,cs),
(145,341,o),
(174,375,o),
(223,375,cs),
(266,375,o),
(297,342,o),
(297,302,cs),
(297,260,o),
(264,232,o),
(222,232,cs)
);
}
);
width = 442;
}
);
userData = {
com.typemytype.robofont.mark = (
0.6,
0.986,
1,
1
);
};
},
{
color = 4;
glyphname = fraction;
lastChange = "2023-10-15 03:37:05 +0000";
layers = (
{
layerId = "12ECCE5E-04E9-4725-8BD5-31F21F15BB81";
shapes = (
{
closed = 1;
nodes = (
(-37,0,l),
(365,748,l),
(265,748,l),
(-138,0,l)
);
}
);
width = 233;
}
);
unicode = 8260;
userData = {
KernOnSpecialSpacing = {
L = fraction;
R = fraction;
};
com.typemytype.robofont.mark = (
0.656,
1,
0.6,
1
);
};
},
{
glyphname = .notdef;
lastChange = "2018-06-22 18:32:31 +0000";
layers = (
{
layerId = "12ECCE5E-04E9-4725-8BD5-31F21F15BB81";
shapes = (
{
closed = 1;
nodes = (
(778,0,l),
(778,691,l),
(86,691,l),
(86,0,l)
);
},
{
closed = 1;
nodes = (
(215,189,l),
(382,344,l),
(214,509,l),
(270,566,l),
(433,394,l),
(593,565,l),
(651,509,l),
(481,346,l),
(651,178,l),
(596,123,l),
(431,295,l),
(273,123,l)
);
}
);
width = 864;
}
);
},
{
glyphname = "leftanglebracket-math";
lastChange = "2018-06-22 18:32:31 +0000";
layers = (
{
layerId = "12ECCE5E-04E9-4725-8BD5-31F21F15BB81";
shapes = (
{
closed = 1;
nodes = (
(323,-226,l),
(153,249,l),
(323,723,l),
(221,723,l),
(60,249,l),
(222,-226,l)
);
}
);
width = 383;
}
);
unicode = 10216;
},
{
glyphname = "rightanglebracket-math";
lastChange = "2018-06-22 22:17:12 +0000";
layers = (
{
layerId = "12ECCE5E-04E9-4725-8BD5-31F21F15BB81";
shapes = (
{
closed = 1;
nodes = (
(192,-226,l),
(353,248,l),
(201,723,l),
(90,723,l),
(260,249,l),
(90,-226,l)
);
}
);
width = 413;
}
);
unicode = 10217;
},
{
glyphname = period;
lastChange = "2023-10-18 16:45:24 +0000";
layers = (
{
layerId = "12ECCE5E-04E9-4725-8BD5-31F21F15BB81";
shapes = (
{
closed = 1;
nodes = (
(133,-10,o),
(164,21,o),
(164,61,cs),
(164,102,o),
(134,133,o),
(92,133,cs),
(51,133,o),
(20,102,o),
(20,61,cs),
(20,21,o),
(52,-10,o),
(92,-10,cs)
);
}
);
width = 184;
}
);
unicode = 46;
userData = {
KernOnSpecialSpacing = {
L = period;
R = period;
};
com.typemytype.robofont.mark = (
0.656,
1,
0.6,
1
);
};
changeCount = 1;
},
{
glyphname = comma;
lastChange = "2023-10-18 16:45:24 +0000";
layers = (
{
layerId = "12ECCE5E-04E9-4725-8BD5-31F21F15BB81";
shapes = (
{
closed = 1;
nodes = (
(117,-167,l),
(155,-114,o),
(208,-25,o),
(208,42,cs),
(208,103,o),
(179,133,o),
(138,133,cs),
(97,133,o),
(66,102,o),
(66,61,cs),
(66,36,o),
(73,5,o),
(113,-8,c),
(96,-68,o),
(74,-120,o),
(52,-167,c)
);
}
);
width = 277;
}
);
unicode = 44;
userData = {
KernOnSpecialSpacing = {
L = period;
R = period;
};
com.typemytype.robofont.mark = (
0.656,
1,
0.6,
1
);
};
changeCount = 1;
},
{
glyphname = colon;
lastChange = "2023-10-18 16:44:45 +0000";
layers = (
{
.lastUpdate = 719340285.151;
layerId = "12ECCE5E-04E9-4725-8BD5-31F21F15BB81";
shapes = (
{
closed = 1;
nodes = (
(148,328,o),
(179,359,o),
(179,399,cs),
(179,440,o),
(149,471,o),
(107,471,cs),
(66,471,o),
(35,440,o),
(35,399,cs),
(35,359,o),
(67,328,o),
(107,328,cs)
);
},
{
closed = 1;
nodes = (
(148,-10,o),
(179,21,o),
(179,61,cs),
(179,102,o),
(149,133,o),
(107,133,cs),
(66,133,o),
(35,102,o),
(35,61,cs),
(35,21,o),
(67,-10,o),
(107,-10,cs)
);
}
);
width = 214;
}
);
metricRight = "=|";
unicode = 58;
userData = {
KernOnSpecialSpacing = {
L = "spaced-off";
R = "spaced-off";
};
com.typemytype.robofont.mark = (
0.656,
1,
0.6,
1
);
};
},
{
glyphname = semicolon;
lastChange = "2023-10-18 16:44:55 +0000";
layers = (
{
.lastUpdate = 719340295.633;
layerId = "12ECCE5E-04E9-4725-8BD5-31F21F15BB81";
shapes = (
{
closed = 1;
nodes = (
(75,-167,l),
(113,-114,o),
(166,-25,o),
(166,42,cs),
(166,103,o),
(137,133,o),
(96,133,cs),
(55,133,o),
(24,102,o),
(24,61,cs),
(24,36,o),
(31,5,o),
(71,-8,c),
(54,-68,o),
(32,-120,o),
(10,-167,c)
);
},
{
closed = 1;
nodes = (
(134,328,o),
(165,359,o),
(165,399,cs),
(165,440,o),
(135,471,o),
(93,471,cs),
(52,471,o),
(21,440,o),
(21,399,cs),
(21,359,o),
(53,328,o),
(93,328,cs)
);
}
);
width = 196;
}
);
unicode = 59;
userData = {
KernOnSpecialSpacing = {
L = "spaced-off";
R = "spaced-off";
};
com.typemytype.robofont.mark = (
0.656,
1,
0.6,
1
);
};
},
{
glyphname = ellipsis;
lastChange = "2018-06-22 22:17:12 +0000";
layers = (
{
layerId = "12ECCE5E-04E9-4725-8BD5-31F21F15BB81";
shapes = (
{
closed = 1;
nodes = (
(767,-10,o),
(798,21,o),
(798,61,cs),
(798,102,o),
(768,133,o),
(726,133,cs),
(686,133,o),
(654,102,o),
(654,61,cs),
(654,21,o),
(686,-10,o),
(726,-10,cs)
);
},
{
closed = 1;
nodes = (
(186,-10,o),
(217,21,o),
(217,61,cs),
(217,102,o),
(187,133,o),
(145,133,cs),
(104,133,o),
(73,102,o),
(73,61,cs),
(73,21,o),
(105,-10,o),
(145,-10,cs)
);
},
{
closed = 1;
nodes = (
(476,-10,o),
(508,21,o),
(508,61,cs),
(508,102,o),
(477,133,o),
(436,133,cs),
(395,133,o),
(364,102,o),
(364,61,cs),
(364,21,o),
(396,-10,o),
(436,-10,cs)
);
}
);
width = 872;
}
);
unicode = 8230;
userData = {
com.typemytype.robofont.mark = (
0.656,
1,
0.6,
1
);
};
},
{
glyphname = exclam;
lastChange = "2023-10-15 03:37:05 +0000";
layers = (
{
layerId = "12ECCE5E-04E9-4725-8BD5-31F21F15BB81";
shapes = (
{
closed = 1;
nodes = (
(192,261,l),
(211,759,l),
(83,759,l),
(102,261,l)
);
},
{
closed = 1;
nodes = (
(186,-11,o),
(217,20,o),
(217,61,cs),
(217,101,o),
(187,133,o),
(145,133,cs),
(104,133,o),
(73,101,o),
(73,61,cs),
(73,20,o),
(105,-11,o),
(145,-11,cs)
);
}
);
width = 291;
}
);
unicode = 33;
userData = {
KernOnSpecialSpacing = {
L = "spaced-off";
};
com.typemytype.robofont.mark = (
0.656,
1,
0.6,
1
);
};
},
{
glyphname = question;
lastChange = "2023-10-15 03:37:05 +0000";
layers = (
{
layerId = "12ECCE5E-04E9-4725-8BD5-31F21F15BB81";
shapes = (
{
closed = 1;
nodes = (
(278,227,l),
(278,227,o),
(276,249,o),
(276,270,cs),
(276,375,o),
(465,384,o),
(465,562,cs),
(465,664,o),
(376,747,o),
(244,747,cs),
(85,747,o),
(40,643,o),
(30,625,c),
(130,575,l),
(136,596,o),
(171,646,o),
(238,646,cs),
(308,646,o),
(346,604,o),
(346,552,cs),
(346,425,o),
(167,413,o),
(167,273,cs),
(167,247,o),
(173,227,o),
(173,227,c)
);
},
{
closed = 1;
nodes = (
(275,-10,o),
(307,21,o),
(307,61,cs),
(307,102,o),
(275,133,o),
(235,133,cs),
(193,133,o),
(163,102,o),
(163,61,cs),
(163,21,o),
(193,-10,o),
(235,-10,cs)
);
}
);
width = 519;
}
);
unicode = 63;
userData = {
KernOnSpecialSpacing = {
L = "spaced-off";
};
com.typemytype.robofont.mark = (
0.656,
1,
0.6,
1
);
};
},
{
glyphname = periodcentered;
lastChange = "2023-10-15 03:37:05 +0000";
layers = (
{
layerId = "12ECCE5E-04E9-4725-8BD5-31F21F15BB81";
shapes = (
{
closed = 1;
nodes = (
(271,275,o),
(303,306,o),
(303,348,cs),
(303,388,o),
(271,419,o),
(229,419,cs),
(188,419,o),
(158,388,o),
(158,348,cs),
(158,306,o),
(189,275,o),
(229,275,cs)
);
}
);
width = 460;
}
);
unicode = 183;
userData = {
KernOnSpecialSpacing = {
L = NoKerning;
R = NoKerning;
};
com.typemytype.robofont.mark = (
0.656,
1,
0.6,
1
);
};
},
{
glyphname = bullet;
lastChange = "2023-10-15 03:37:05 +0000";
layers = (
{
layerId = "12ECCE5E-04E9-4725-8BD5-31F21F15BB81";
shapes = (
{
closed = 1;
nodes = (
(337,228,o),
(387,277,o),
(387,337,cs),
(387,396,o),
(338,446,o),
(277,446,cs),
(217,446,o),
(168,396,o),
(168,337,cs),
(168,277,o),
(217,228,o),
(277,228,cs)
);
}
);
width = 555;
}
);
unicode = 8226;
userData = {
KernOnSpecialSpacing = {
L = NoKerning;
R = NoKerning;
};
com.typemytype.robofont.mark = (
0.656,
1,
0.6,
1
);
};
},
{
glyphname = asterisk;
lastChange = "2023-10-15 03:37:05 +0000";
layers = (
{
layerId = "12ECCE5E-04E9-4725-8BD5-31F21F15BB81";
shapes = (
{
closed = 1;
nodes = (
(380,362,l),
(335,563,l),
(491,427,l),
(556,537,l),
(354,600,l),
(556,665,l),
(490,776,l),
(335,637,l),
(380,840,l),
(252,840,l),
(293,636,l),
(144,776,l),
(78,665,l),
(271,600,l),
(78,537,l),
(143,427,l),
(293,562,l),
(253,362,l)
);
}
);
width = 635;
}
);
unicode = 42;
userData = {
KernOnSpecialSpacing = {
L = quotes;
R = quotes;
};
com.typemytype.robofont.mark = (
0.656,
1,
0.6,
1
);
};
},
{
glyphname = numbersign;
lastChange = "2018-06-22 18:32:31 +0000";
layers = (
{
layerId = "12ECCE5E-04E9-4725-8BD5-31F21F15BB81";
shapes = (
{
closed = 1;
nodes = (
(272,2,l),
(304,177,l),
(457,177,l),
(425,2,l),
(528,2,l),
(560,177,l),
(696,177,l),
(696,271,l),
(576,271,l),
(609,449,l),
(734,449,l),
(734,542,l),
(626,542,l),
(659,722,l),
(557,722,l),
(524,542,l),
(370,542,l),
(403,722,l),
(300,722,l),
(268,542,l),
(134,542,l),
(134,449,l),
(250,449,l),
(218,271,l),
(96,271,l),
(96,177,l),
(201,177,l),
(169,2,l)
);
},
{
closed = 1;
nodes = (
(353,449,l),
(507,449,l),
(474,271,l),
(321,271,l)
);
}
);
width = 830;
}
);
unicode = 35;
userData = {
com.typemytype.robofont.mark = (
0.656,
1,
0.6,
1
);
};
},
{
glyphname = slash;
lastChange = "2023-10-15 03:37:05 +0000";
layers = (
{
layerId = "12ECCE5E-04E9-4725-8BD5-31F21F15BB81";
shapes = (
{
closed = 1;
nodes = (
(171,-92,l),
(387,827,l),
(290,827,l),
(74,-92,l)
);
}
);
width = 461;
}
);
unicode = 47;
userData = {
KernOnSpecialSpacing = {
L = slash;
R = slash;
};
com.typemytype.robofont.mark = (
0.656,
1,
0.6,
1
);
};
},
{
glyphname = backslash;
lastChange = "2023-10-15 03:37:05 +0000";
layers = (
{
layerId = "12ECCE5E-04E9-4725-8BD5-31F21F15BB81";
shapes = (
{
closed = 1;
nodes = (
(387,-92,l),
(171,827,l),
(74,827,l),
(290,-92,l)
);
}
);
width = 461;
}
);
unicode = 92;
userData = {
KernOnSpecialSpacing = {
L = "spaced-off";
R = "spaced-off";
};
com.typemytype.robofont.mark = (
0.656,
1,
0.6,
1
);
};
},
{
glyphname = periodcentered.case;
lastChange = "2023-10-15 03:37:05 +0000";
layers = (
{
layerId = "12ECCE5E-04E9-4725-8BD5-31F21F15BB81";
shapes = (
{
closed = 1;
nodes = (
(271,317,o),
(303,349,o),
(303,390,cs),
(303,430,o),
(271,461,o),
(229,461,cs),
(188,461,o),
(158,430,o),
(158,390,cs),
(158,349,o),
(189,317,o),
(229,317,cs)
);
}
);
width = 460;
}
);
userData = {
KernOnSpecialSpacing = {
L = NoKerning;
R = NoKerning;
};
};
},
{
glyphname = bullet.case;
lastChange = "2023-10-15 03:37:05 +0000";
layers = (
{
layerId = "12ECCE5E-04E9-4725-8BD5-31F21F15BB81";
shapes = (
{
closed = 1;
nodes = (
(337,264,o),
(387,313,o),
(387,374,cs),
(387,433,o),
(338,483,o),
(277,483,cs),
(217,483,o),
(168,433,o),
(168,374,cs),
(168,313,o),
(217,264,o),
(277,264,cs)
);
}
);
width = 555;
}
);
userData = {
KernOnSpecialSpacing = {
L = NoKerning;
R = NoKerning;
};
};
},
{
glyphname = periodcentered.loclCAT;
lastChange = "2018-06-22 18:32:31 +0000";
layers = (
{
layerId = "12ECCE5E-04E9-4725-8BD5-31F21F15BB81";
shapes = (
{
closed = 1;
nodes = (
(7,275,o),
(39,306,o),
(39,348,cs),
(39,388,o),
(7,419,o),
(-35,419,cs),
(-76,419,o),
(-106,388,o),
(-106,348,cs),
(-106,306,o),
(-75,275,o),
(-35,275,cs)
);
}
);
width = 49;
}
);
userData = {
com.typemytype.robofont.mark = (
0.967,
0.6,
1,
1
);
};
},
{
glyphname = hyphen;
lastChange = "2023-10-18 16:45:24 +0000";
layers = (
{
layerId = "12ECCE5E-04E9-4725-8BD5-31F21F15BB81";
shapes = (
{
closed = 1;
nodes = (
(453,203,l),
(453,299,l),
(110,299,l),
(110,203,l)
);
}
);
width = 563;
}
);
unicode = 45;
userData = {
KernOnSpecialSpacing = {
L = hyphen;
R = hyphen;
};
com.typemytype.robofont.mark = (
0.656,
1,
0.6,
1
);
};
changeCount = 1;
},
{
color = 0;
glyphname = softhyphen;
lastChange = "2023-10-15 03:37:05 +0000";
layers = (
{
layerId = "12ECCE5E-04E9-4725-8BD5-31F21F15BB81";
shapes = (
{
closed = 1;
nodes = (
(453,271,l),
(453,368,l),
(110,368,l),
(110,271,l)
);
}
);
width = 563;
}
);
metricLeft = hyphen;
metricRight = hyphen;
unicode = 173;
userData = {
KernOnSpecialSpacing = {
L = hyphen;
R = hyphen;
};
com.typemytype.robofont.mark = (
0.656,
1,
0.6,
1
);
};
},
{
glyphname = endash;
lastChange = "2023-10-15 03:37:05 +0000";
layers = (
{
layerId = "12ECCE5E-04E9-4725-8BD5-31F21F15BB81";
shapes = (
{
closed = 1;
nodes = (
(721,203,l),
(721,299,l),
(110,299,l),
(110,203,l)
);
}
);
width = 831;
}
);
metricLeft = hyphen;
metricRight = hyphen;
unicode = 8211;
userData = {
KernOnSpecialSpacing = {
L = dashes;
R = dashes;
};
com.typemytype.robofont.mark = (
0.656,
1,
0.6,
1
);
};
},
{
glyphname = emdash;
lastChange = "2023-10-15 03:37:05 +0000";
layers = (
{
layerId = "12ECCE5E-04E9-4725-8BD5-31F21F15BB81";
shapes = (
{
closed = 1;
nodes = (
(900,203,l),
(900,299,l),
(110,299,l),
(110,203,l)
);
}
);
width = 1010;
}
);
metricLeft = hyphen;
metricRight = hyphen;
unicode = 8212;
userData = {
KernOnSpecialSpacing = {
L = dashes;
R = dashes;
};
com.typemytype.robofont.mark = (
0.656,
1,
0.6,
1
);
};
},
{
glyphname = figuredash;
lastChange = "2018-06-22 21:15:16 +0000";
layers = (
{
layerId = "12ECCE5E-04E9-4725-8BD5-31F21F15BB81";
shapes = (
{
closed = 1;
nodes = (
(870,203,l),
(870,299,l),
(110,299,l),
(110,203,l)
);
}
);
width = 980;
}
);
metricLeft = hyphen;
metricRight = hyphen;
unicode = 8210;
userData = {
com.typemytype.robofont.mark = (
0.6,
0.609,
1,
1
);
};
},
{
glyphname = underscore;
lastChange = "2023-10-15 03:37:05 +0000";
layers = (
{
layerId = "12ECCE5E-04E9-4725-8BD5-31F21F15BB81";
shapes = (
{
closed = 1;
nodes = (
(750,-173,l),
(750,-102,l),
(-11,-102,l),
(-11,-173,l)
);
}
);
width = 739;
}
);
unicode = 95;
userData = {
KernOnSpecialSpacing = {
L = underscore;
R = underscore;
};
com.typemytype.robofont.mark = (
0.656,
1,
0.6,
1
);
};
},
{
color = 8;
glyphname = parenleft;
lastChange = "2023-10-18 16:45:24 +0000";
layers = (
{
layerId = "12ECCE5E-04E9-4725-8BD5-31F21F15BB81";
shapes = (
{
closed = 1;
nodes = (
(398,-152,l),
(313,-89,o),
(186,79,o),
(186,334,cs),
(186,589,o),
(313,758,o),
(398,820,c),
(340,886,l),
(285,857,o),
(85,667,o),
(85,334,cs),
(85,1,o),
(285,-189,o),
(340,-217,c)
);
}
);
width = 461;
}
);
unicode = 40;
userData = {
KernOnSpecialSpacing = {
R = parenthesis;
};
com.typemytype.robofont.mark = (
0.656,
1,
0.6,
1
);
};
changeCount = 1;
},
{
color = 8;
glyphname = braceleft;
lastChange = "2023-10-15 03:37:05 +0000";
layers = (
{
layerId = "12ECCE5E-04E9-4725-8BD5-31F21F15BB81";
shapes = (
{
closed = 1;
nodes = (
(357,-224,o),
(375,-222,o),
(391,-221,c),
(393,-136,l),
(383,-140,o),
(368,-143,o),
(352,-143,cs),
(321,-143,o),
(288,-131,o),
(288,-93,cs),
(288,167,ls),
(288,243,o),
(244,296,o),
(187,302,c),
(244,309,o),
(288,380,o),
(288,451,cs),
(288,728,ls),
(288,765,o),
(319,776,o),
(349,776,cs),
(366,776,o),
(382,772,o),
(393,768,c),
(391,852,l),
(375,854,o),
(357,855,o),
(334,855,cs),
(245,855,o),
(186,814,o),
(186,703,cs),
(186,479,ls),
(186,359,o),
(132,348,o),
(73,348,c),
(73,265,l),
(132,265,o),
(186,250,o),
(186,127,cs),
(186,-68,ls),
(186,-180,o),
(241,-221,o),
(334,-224,cs)
);
}
);
width = 461;
}
);
unicode = 123;
userData = {
KernOnSpecialSpacing = {
R = parenthesis;
};
com.typemytype.robofont.mark = (
0.656,
1,
0.6,
1
);
};
},
{
color = 8;
glyphname = bracketleft;
lastChange = "2023-10-15 03:37:05 +0000";
layers = (
{
layerId = "12ECCE5E-04E9-4725-8BD5-31F21F15BB81";
shapes = (
{
closed = 1;
nodes = (
(382,-202,l),
(382,-119,l),
(276,-119,l),
(276,759,l),
(382,759,l),
(382,842,l),
(167,842,l),
(167,-202,l)
);
}
);
width = 459;
}
);
unicode = 91;
userData = {
KernOnSpecialSpacing = {
L = NoKerning;
R = parenthesis;
};
com.typemytype.robofont.mark = (
0.656,
1,
0.6,
1
);
};
},
{
glyphname = parenleft.case;
lastChange = "2023-10-15 03:37:05 +0000";
layers = (
{
layerId = "12ECCE5E-04E9-4725-8BD5-31F21F15BB81";
shapes = (
{
closed = 1;
nodes = (
(398,-132,l),
(313,-70,o),
(187,99,o),
(187,354,cs),
(187,608,o),
(313,777,o),
(398,840,c),
(340,906,l),
(285,877,o),
(85,687,o),
(85,354,cs),
(85,21,o),
(285,-169,o),
(340,-198,c)
);
}
);
width = 461;
}
);
userData = {
KernOnSpecialSpacing = {
R = parenthesis;
};
};
},
{
glyphname = braceleft.case;
lastChange = "2023-10-15 03:37:05 +0000";
layers = (
{
layerId = "12ECCE5E-04E9-4725-8BD5-31F21F15BB81";
shapes = (
{
closed = 1;
nodes = (
(357,-205,o),
(375,-203,o),
(391,-202,c),
(393,-117,l),
(383,-121,o),
(369,-124,o),
(353,-124,cs),
(322,-124,o),
(288,-112,o),
(288,-73,cs),
(288,186,ls),
(288,263,o),
(244,316,o),
(187,322,c),
(244,328,o),
(288,399,o),
(288,470,cs),
(288,747,ls),
(288,784,o),
(319,795,o),
(349,795,cs),
(366,795,o),
(382,791,o),
(393,787,c),
(391,872,l),
(375,873,o),
(357,875,o),
(334,875,cs),
(245,875,o),
(186,834,o),
(186,723,cs),
(186,499,ls),
(186,378,o),
(132,367,o),
(73,367,c),
(73,284,l),
(132,284,o),
(186,269,o),
(186,147,cs),
(186,-49,ls),
(186,-160,o),
(241,-202,o),
(334,-205,cs)
);
}
);
width = 461;
}
);
userData = {
KernOnSpecialSpacing = {
R = parenthesis;
};
};
},
{
glyphname = bracketleft.case;
lastChange = "2023-10-15 03:37:05 +0000";
layers = (
{
layerId = "12ECCE5E-04E9-4725-8BD5-31F21F15BB81";
shapes = (
{
closed = 1;
nodes = (
(382,-183,l),
(382,-99,l),
(276,-99,l),
(276,778,l),
(382,778,l),
(382,862,l),
(167,862,l),
(167,-183,l)
);
}
);
width = 459;
}
);
userData = {
KernOnSpecialSpacing = {
R = parenthesis;
};
};
},
{
color = 8;
glyphname = quoteleft;
lastChange = "2023-10-15 03:37:05 +0000";
layers = (
{
layerId = "12ECCE5E-04E9-4725-8BD5-31F21F15BB81";
shapes = (
{
closed = 1;
nodes = (
(165,520,o),
(198,558,o),
(198,600,c),
(198,626,o),
(177,656,o),
(157,668,c),
(160,729,o),
(177,797,o),
(203,844,c),
(140,844,l),
(96,807,o),
(40,692,o),
(40,610,cs),
(40,568,o),
(72,520,o),
(119,520,cs)
);
}
);
width = 273;
}
);
unicode = 8216;
userData = {
KernOnSpecialSpacing = {
L = quotes;
R = quotes;
};
com.typemytype.robofont.mark = (
0.656,
1,
0.6,
1
);
};
},
{
color = 8;
glyphname = quoteright;
lastChange = "2023-10-15 03:37:05 +0000";
layers = (
{
layerId = "12ECCE5E-04E9-4725-8BD5-31F21F15BB81";
shapes = (
{
closed = 1;
nodes = (
(133,520,l),
(177,557,o),
(233,672,o),
(233,754,cs),
(233,796,o),
(201,844,o),
(154,844,cs),
(108,844,o),
(75,806,o),
(75,764,c),
(75,738,o),
(96,708,o),
(116,696,c),
(113,610,o),
(96,567,o),
(70,520,c)
);
}
);
width = 273;
}
);
unicode = 8217;
userData = {
KernOnSpecialSpacing = {
L = quotes;
R = quotes;
};
com.typemytype.robofont.mark = (
0.656,
1,
0.6,
1
);
};
},
{
color = 8;
glyphname = quotereversed;
lastChange = "2018-06-22 22:17:12 +0000";
layers = (
{
layerId = "12ECCE5E-04E9-4725-8BD5-31F21F15BB81";
shapes = (
{
closed = 1;
nodes = (
(203,525,l),
(177,572,o),
(160,635,o),
(157,696,c),
(177,708,o),
(198,738,o),
(198,764,c),
(198,806,o),
(165,844,o),
(119,844,cs),
(72,844,o),
(40,796,o),
(40,754,cs),
(40,672,o),
(96,562,o),
(140,525,c)
);
}
);
width = 273;
}
);
metricLeft = quoteleft;
metricRight = quoteleft;
unicode = 8219;
},
{
glyphname = guilsinglleft;
lastChange = "2023-10-15 03:37:05 +0000";
layers = (
{
layerId = "12ECCE5E-04E9-4725-8BD5-31F21F15BB81";
shapes = (
{
closed = 1;
nodes = (
(370,126,l),
(205,308,l),
(374,487,l),
(312,562,l),
(60,309,l),
(312,57,l)
);
}
);
width = 454;
}
);
unicode = 8249;
userData = {
KernOnSpecialSpacing = {
L = quotes;
R = quotes;
};
com.typemytype.robofont.mark = (
0.656,
1,
0.6,
1
);
};
},
{
color = 8;
glyphname = quotesingle;
lastChange = "2023-10-18 16:45:24 +0000";
layers = (
{
layerId = "12ECCE5E-04E9-4725-8BD5-31F21F15BB81";
shapes = (
{
closed = 1;
nodes = (
(144,545,l),
(174,844,l),
(68,844,l),
(45,545,l)
);
}
);
width = 219;
}
);
unicode = 39;
userData = {
KernOnSpecialSpacing = {
L = quotes;
R = quotes;
};
com.typemytype.robofont.mark = (
0.656,
1,
0.6,
1
);
};
changeCount = 1;
},
{
glyphname = florin;
lastChange = "2023-10-15 03:37:05 +0000";
layers = (
{
layerId = "12ECCE5E-04E9-4725-8BD5-31F21F15BB81";
shapes = (
{
closed = 1;
nodes = (
(194,-92,l),
(243,368,l),
(358,368,l),
(367,459,l),
(252,459,l),
(264,562,ls),
(272,638,o),
(311,650,o),
(348,650,cs),
(379,650,o),
(394,637,o),
(408,629,c),
(438,728,l),
(429,732,o),
(398,747,o),
(358,747,cs),
(237,747,o),
(168,680,o),
(156,561,cs),
(145,459,l),
(65,459,l),
(55,368,l),
(135,368,l),
(85,-92,l)
);
}
);
width = 462;
}
);
unicode = 402;
userData = {
KernOnSpecialSpacing = {
L = NoKerning;
R = NoKerning;
};
com.typemytype.robofont.mark = (
0.967,
0.6,
1,
1
);
};
},
{
glyphname = baht;
lastChange = "2023-10-15 03:30:27 +0000";
layers = (
{
anchors = (
{
name = bottom;
pos = (312,0);
},
{
name = center;
pos = (312,368);
},
{
name = top;
pos = (296,735);
}
);
layerId = "12ECCE5E-04E9-4725-8BD5-31F21F15BB81";
shapes = (
{
closed = 1;
nodes = (
(327,0,ls),
(582,0,o),
(612,119,o),
(612,224,cs),
(612,300,o),
(574,368,o),
(474,393,c),
(543,425,o),
(566,495,o),
(566,554,cs),
(566,625,o),
(543,735,o),
(304,735,cs),
(77,735,l),
(77,0,l)
);
},
{
closed = 1;
nodes = (
(187,334,l),
(351,334,ls),
(451,334,o),
(496,292,o),
(496,223,cs),
(496,165,o),
(478,94,o),
(342,94,cs),
(187,94,l)
);
},
{
closed = 1;
nodes = (
(187,640,l),
(317,640,ls),
(425,640,o),
(453,596,o),
(453,545,cs),
(453,483,o),
(425,423,o),
(322,423,cs),
(187,423,l)
);
},
{
closed = 1;
nodes = (
(358,-126,l),
(358,875,l),
(262,875,l),
(262,-126,l)
);
}
);
width = 665;
}
);
metricLeft = H;
metricRight = B;
unicode = 3647;
},
{
color = 4;
glyphname = at;
lastChange = "2023-10-15 03:37:05 +0000";
layers = (
{
layerId = "12ECCE5E-04E9-4725-8BD5-31F21F15BB81";
shapes = (
{
closed = 1;
nodes = (
(573,-184,o),
(651,-155,o),
(699,-134,c),
(670,-72,l),
(626,-93,o),
(557,-115,o),
(467,-115,cs),
(264,-115,o),
(132,-4,o),
(132,194,cs),
(132,415,o),
(315,580,o),
(554,580,cs),
(752,580,o),
(840,474,o),
(840,333,cs),
(840,239,o),
(778,99,o),
(670,99,cs),
(651,99,o),
(640,105,o),
(640,128,cs),
(640,136,o),
(642,148,o),
(645,162,cs),
(707,433,l),
(613,433,l),
(600,378,l),
(588,413,o),
(559,437,o),
(492,437,cs),
(372,437,o),
(265,345,o),
(265,196,cs),
(265,86,o),
(334,24,o),
(423,24,cs),
(476,24,o),
(524,44,o),
(557,89,c),
(560,54,o),
(578,21,o),
(637,21,cs),
(799,21,o),
(915,168,o),
(915,340,cs),
(915,504,o),
(802,645,o),
(568,645,cs),
(278,645,o),
(54,455,o),
(54,182,cs),
(54,-31,o),
(206,-184,o),
(463,-184,cs)
);
},
{
closed = 1;
nodes = (
(393,106,o),
(366,147,o),
(366,201,cs),
(366,290,o),
(418,358,o),
(496,358,cs),
(552,358,o),
(575,321,o),
(575,267,cs),
(575,197,o),
(536,106,o),
(452,106,cs)
);
}
);
width = 969;
}
);
unicode = 64;
userData = {
KernOnSpecialSpacing = {
L = symbols;
R = symbols;
};
com.typemytype.robofont.mark = (
0.656,
1,
0.6,
1
);
};
},
{
glyphname = ampersand;
lastChange = "2023-10-15 03:37:05 +0000";
layers = (
{
layerId = "12ECCE5E-04E9-4725-8BD5-31F21F15BB81";
shapes = (
{
closed = 1;
nodes = (
(395,-15,o),
(456,11,o),
(508,50,c),
(533,20,o),
(549,0,o),
(549,0,c),
(669,0,l),
(669,0,o),
(626,52,o),
(573,119,c),
(644,176,o),
(688,240,o),
(688,240,c),
(605,308,l),
(605,308,o),
(573,253,o),
(511,198,c),
(457,266,o),
(403,335,o),
(371,377,c),
(470,460,o),
(503,517,o),
(503,597,cs),
(503,679,o),
(441,754,o),
(332,754,cs),
(231,754,o),
(151,687,o),
(151,583,cs),
(151,518,o),
(178,475,o),
(231,406,c),
(152,350,o),
(92,291,o),
(92,201,cs),
(92,53,o),
(207,-15,o),
(321,-15,cs)
);
},
{
closed = 1;
nodes = (
(250,84,o),
(212,133,o),
(212,197,cs),
(212,242,o),
(231,275,o),
(292,320,c),
(329,274,o),
(392,194,o),
(443,131,c),
(391,86,o),
(351,84,o),
(329,84,cs)
);
},
{
closed = 1;
nodes = (
(273,509,o),
(250,548,o),
(250,583,cs),
(250,638,o),
(290,664,o),
(328,664,cs),
(373,664,o),
(401,636,o),
(401,594,cs),
(401,542,o),
(375,509,o),
(312,459,c)
);
}
);
width = 749;
}
);
unicode = 38;
userData = {
KernOnSpecialSpacing = {
L = symbols;
R = symbols;
};
com.typemytype.robofont.mark = (
0.656,
1,
0.6,
1
);
};
},
{
glyphname = paragraph;
lastChange = "2023-10-15 03:37:05 +0000";
layers = (
{
layerId = "12ECCE5E-04E9-4725-8BD5-31F21F15BB81";
shapes = (
{
closed = 1;
nodes = (
(399,-93,l),
(399,642,l),
(536,642,l),
(536,-93,l),
(642,-93,l),
(642,642,l),
(732,642,l),
(732,736,l),
(293,736,ls),
(178,736,o),
(91,653,o),
(91,535,cs),
(91,425,o),
(170,334,o),
(293,330,c),
(293,-93,l)
);
}
);
width = 830;
}
);
unicode = 182;
userData = {
KernOnSpecialSpacing = {
L = NoKerning;
R = NoKerning;
};
com.typemytype.robofont.mark = (
0.656,
1,
0.6,
1
);
};
},
{
glyphname = section;
lastChange = "2023-10-15 03:37:05 +0000";
layers = (
{
layerId = "12ECCE5E-04E9-4725-8BD5-31F21F15BB81";
shapes = (
{
closed = 1;
nodes = (
(397,-189,o),
(498,-117,o),
(498,20,cs),
(498,80,o),
(472,128,o),
(436,161,cs),
(430,167,o),
(423,173,o),
(416,178,c),
(468,213,o),
(500,270,o),
(500,348,cs),
(500,412,o),
(474,464,o),
(438,499,c),
(349,580,o),
(187,607,o),
(187,711,cs),
(187,771,o),
(237,802,o),
(293,802,cs),
(349,802,o),
(397,776,o),
(421,752,c),
(473,845,l),
(446,868,o),
(393,904,o),
(298,904,cs),
(178,904,o),
(76,842,o),
(76,708,cs),
(76,627,o),
(112,575,o),
(157,541,c),
(106,509,o),
(73,456,o),
(73,380,cs),
(73,285,o),
(119,228,o),
(171,191,c),
(261,131,o),
(381,108,o),
(381,7,cs),
(381,-54,o),
(328,-84,o),
(264,-84,cs),
(203,-84,o),
(137,-49,o),
(115,-30,c),
(63,-127,l),
(95,-158,o),
(179,-189,o),
(264,-189,cs)
);
},
{
closed = 1;
nodes = (
(255,275,o),
(185,312,o),
(185,384,cs),
(185,436,o),
(208,468,o),
(251,483,c),
(320,446,o),
(383,412,o),
(383,335,cs),
(383,289,o),
(365,251,o),
(328,234,c)
);
}
);
width = 554;
}
);
unicode = 167;
userData = {
KernOnSpecialSpacing = {
R = symbols;
};
com.typemytype.robofont.mark = (
0.656,
1,
0.6,
1
);
};
},
{
glyphname = copyright;
lastChange = "2023-10-15 03:37:05 +0000";
layers = (
{
layerId = "12ECCE5E-04E9-4725-8BD5-31F21F15BB81";
shapes = (
{
closed = 1;
nodes = (
(626,-8,o),
(786,150,o),
(786,365,cs),
(786,580,o),
(625,732,o),
(423,732,cs),
(221,732,o),
(52,580,o),
(52,365,cs),
(52,150,o),
(221,-8,o),
(424,-8,cs)
);
},
{
closed = 1;
nodes = (
(484,164,o),
(531,170,o),
(544,182,c),
(542,264,l),
(531,257,o),
(494,249,o),
(449,249,cs),
(369,249,o),
(336,290,o),
(336,364,cs),
(336,435,o),
(367,473,o),
(449,473,cs),
(503,473,o),
(525,464,o),
(536,456,c),
(536,549,l),
(521,558,o),
(489,562,o),
(442,562,cs),
(320,562,o),
(234,476,o),
(234,363,cs),
(234,250,o),
(315,164,o),
(448,164,cs)
);
},
{
closed = 1;
nodes = (
(255,49,o),
(116,183,o),
(116,365,cs),
(116,547,o),
(254,675,o),
(423,675,c),
(590,675,o),
(723,547,o),
(723,365,cs),
(723,183,o),
(590,49,o),
(423,49,cs)
);
}
);
width = 838;
}
);
unicode = 169;
userData = {
KernOnSpecialSpacing = {
R = symbols;
};
com.typemytype.robofont.mark = (
0.656,
1,
0.6,
1
);
};
},
{
glyphname = registered;
lastChange = "2023-10-15 03:37:05 +0000";
layers = (
{
layerId = "12ECCE5E-04E9-4725-8BD5-31F21F15BB81";
shapes = (
{
closed = 1;
nodes = (
(626,-8,o),
(786,150,o),
(786,365,cs),
(786,580,o),
(625,732,o),
(423,732,cs),
(221,732,o),
(52,580,o),
(52,365,cs),
(52,150,o),
(221,-8,o),
(424,-8,cs)
);
},
{
closed = 1;
nodes = (
(255,49,o),
(116,183,o),
(116,365,cs),
(116,547,o),
(254,675,o),
(423,675,cs),
(590,675,o),
(723,547,o),
(723,365,cs),
(723,183,o),
(590,49,o),
(423,49,cs)
);
},
{
closed = 1;
nodes = (
(359,170,l),
(359,296,l),
(403,296,l),
(484,170,l),
(598,170,l),
(497,306,l),
(581,326,o),
(590,384,o),
(590,432,cs),
(590,516,o),
(538,563,o),
(428,563,cs),
(271,563,l),
(271,170,l)
);
},
{
closed = 1;
nodes = (
(359,498,l),
(422,498,ls),
(480,498,o),
(497,471,o),
(497,430,cs),
(497,389,o),
(480,366,o),
(420,366,cs),
(359,366,l)
);
}
);
width = 838;
}
);
metricLeft = copyright;
metricWidth = copyright;
unicode = 174;
userData = {
KernOnSpecialSpacing = {
L = superiors;
};
com.typemytype.robofont.mark = (
0.656,
1,
0.6,
1
);
};
},
{
color = 9;
glyphname = published;
lastChange = "2018-06-22 22:17:12 +0000";
layers = (
{
layerId = "12ECCE5E-04E9-4725-8BD5-31F21F15BB81";
shapes = (
{
closed = 1;
nodes = (
(626,-8,o),
(786,150,o),
(786,365,cs),
(786,580,o),
(625,732,o),
(423,732,cs),
(221,732,o),
(52,580,o),
(52,365,cs),
(52,150,o),
(221,-8,o),
(424,-8,cs)
);
},
{
closed = 1;
nodes = (
(255,49,o),
(116,183,o),
(116,365,cs),
(116,547,o),
(254,675,o),
(423,675,cs),
(590,675,o),
(723,547,o),
(723,365,cs),
(723,183,o),
(590,49,o),
(423,49,cs)
);
},
{
closed = 1;
nodes = (
(372,170,l),
(372,286,l),
(428,286,ls),
(542,286,o),
(591,316,o),
(591,427,cs),
(591,511,o),
(538,563,o),
(428,563,cs),
(284,563,l),
(284,170,l)
);
},
{
closed = 1;
nodes = (
(372,498,l),
(422,498,ls),
(480,498,o),
(498,466,o),
(498,425,cs),
(498,384,o),
(480,356,o),
(433,356,cs),
(372,356,l)
);
}
);
width = 838;
}
);
metricLeft = copyright;
metricWidth = copyright;
unicode = 8471;
},
{
color = 7;
glyphname = trademark;
lastChange = "2023-10-15 03:37:05 +0000";
layers = (
{
layerId = "12ECCE5E-04E9-4725-8BD5-31F21F15BB81";
shapes = (
{
closed = 1;
nodes = (
(817,718,l),
(659,435,l),
(495,718,l),
(490,718,l),
(404,287,l),
(487,287,l),
(528,501,l),
(659,280,l),
(785,502,l),
(830,287,l),
(914,287,l),
(821,718,l)
);
},
{
closed = 1;
nodes = (
(285,287,l),
(285,638,l),
(396,638,l),
(396,718,l),
(87,718,l),
(87,638,l),
(197,638,l),
(197,287,l)
);
}
);
width = 1012;
}
);
unicode = 8482;
userData = {
KernOnSpecialSpacing = {
L = superiors;
};
com.typemytype.robofont.mark = (
0.967,
0.6,
1,
1
);
};
},
{
glyphname = afii61248;
lastChange = "2018-06-22 22:17:12 +0000";
layers = (
{
layerId = "12ECCE5E-04E9-4725-8BD5-31F21F15BB81";
shapes = (
{
closed = 1;
nodes = (
(296,2,l),
(707,713,l),
(604,713,l),
(191,2,l)
);
},
{
closed = 1;
nodes = (
(298,357,o),
(345,379,o),
(373,420,c),
(297,468,l),
(286,449,o),
(267,438,o),
(243,438,cs),
(197,438,o),
(169,474,o),
(169,533,cs),
(169,593,o),
(197,630,o),
(243,630,cs),
(271,630,o),
(292,615,o),
(304,588,c),
(384,627,l),
(357,681,o),
(307,712,o),
(243,712,cs),
(145,712,o),
(78,643,o),
(78,533,cs),
(78,421,o),
(145,357,o),
(243,357,cs)
);
},
{
closed = 1;
nodes = (
(772,2,o),
(837,66,o),
(837,179,cs),
(837,289,o),
(772,357,o),
(676,357,cs),
(578,357,o),
(511,289,o),
(511,179,cs),
(511,66,o),
(578,2,o),
(676,2,cs)
);
},
{
closed = 1;
nodes = (
(630,83,o),
(603,119,o),
(603,179,cs),
(603,238,o),
(630,275,o),
(676,275,cs),
(721,275,o),
(747,238,o),
(747,179,cs),
(747,119,o),
(721,83,o),
(676,83,cs)
);
}
);
width = 923;
}
);
unicode = 8453;
},
{
glyphname = degree;
lastChange = "2023-10-18 16:45:24 +0000";
layers = (
{
layerId = "12ECCE5E-04E9-4725-8BD5-31F21F15BB81";
shapes = (
{
closed = 1;
nodes = (
(373,537,o),
(453,604,o),
(453,704,cs),
(453,802,o),
(373,872,o),
(277,872,cs),
(182,872,o),
(101,804,o),
(101,704,cs),
(101,603,o),
(182,537,o),
(277,537,cs)
);
},
{
closed = 1;
nodes = (
(229,616,o),
(201,651,o),
(201,704,cs),
(201,755,o),
(229,792,o),
(277,792,cs),
(323,792,o),
(354,755,o),
(354,704,cs),
(354,651,o),
(323,616,o),
(277,616,cs)
);
}
);
width = 553;
}
);
unicode = 176;
userData = {
KernOnSpecialSpacing = {
L = superiors;
R = superiors;
};
com.typemytype.robofont.mark = (
0.656,
1,
0.6,
1
);
};
changeCount = 1;
},
{
glyphname = minute;
lastChange = "2023-10-15 03:37:05 +0000";
layers = (
{
layerId = "12ECCE5E-04E9-4725-8BD5-31F21F15BB81";
shapes = (
{
closed = 1;
nodes = (
(355,417,l),
(452,756,l),
(330,756,l),
(281,417,l)
);
}
);
width = 460;
}
);
unicode = 8242;
userData = {
KernOnSpecialSpacing = {
L = quotes;
R = quotes;
};
com.typemytype.robofont.mark = (
0.6,
0.986,
1,
1
);
};
},
{
glyphname = bar;
lastChange = "2023-10-15 03:37:05 +0000";
layers = (
{
layerId = "12ECCE5E-04E9-4725-8BD5-31F21F15BB81";
shapes = (
{
closed = 1;
nodes = (
(279,-184,l),
(279,827,l),
(183,827,l),
(183,-184,l)
);
}
);
width = 461;
}
);
unicode = 124;
userData = {
KernOnSpecialSpacing = {
L = NoKerning;
R = NoKerning;
};
com.typemytype.robofont.mark = (
0.656,
1,
0.6,
1
);
};
},
{
glyphname = brokenbar;
lastChange = "2018-06-22 18:32:31 +0000";
layers = (
{
layerId = "12ECCE5E-04E9-4725-8BD5-31F21F15BB81";
shapes = (
{
closed = 1;
nodes = (
(279,385,l),
(279,827,l),
(183,827,l),
(183,385,l)
);
},
{
closed = 1;
nodes = (
(279,-184,l),
(279,258,l),
(183,258,l),
(183,-184,l)
);
}
);
width = 461;
}
);
unicode = 166;
userData = {
com.typemytype.robofont.mark = (
0.656,
1,
0.6,
1
);
};
},
{
glyphname = dagger;
lastChange = "2018-06-22 18:32:31 +0000";
layers = (
{
layerId = "12ECCE5E-04E9-4725-8BD5-31F21F15BB81";
shapes = (
{
closed = 1;
nodes = (
(373,-93,l),
(373,531,l),
(553,531,l),
(553,626,l),
(373,626,l),
(373,827,l),
(271,827,l),
(271,626,l),
(92,626,l),
(92,531,l),
(271,531,l),
(271,-93,l)
);
}
);
width = 646;
}
);
unicode = 8224;
userData = {
com.typemytype.robofont.mark = (
0.967,
0.6,
1,
1
);
};
},
{
glyphname = literSign;
lastChange = "2018-06-22 22:17:12 +0000";
layers = (
{
layerId = "12ECCE5E-04E9-4725-8BD5-31F21F15BB81";
shapes = (
{
closed = 1;
nodes = (
(499,-11,o),
(543,126,o),
(562,219,c),
(507,232,l),
(482,138,o),
(428,77,o),
(371,77,cs),
(349,77,o),
(310,83,o),
(287,135,c),
(459,295,o),
(592,499,o),
(592,692,cs),
(592,772,o),
(552,821,o),
(485,821,cs),
(320,821,o),
(183,539,o),
(183,257,cs),
(183,230,o),
(184,205,o),
(187,182,c),
(144,147,o),
(93,112,o),
(35,79,c),
(127,13,l),
(158,33,o),
(189,55,o),
(218,78,c),
(248,21,o),
(294,-11,o),
(354,-11,cs)
);
},
{
closed = 1;
nodes = (
(278,457,o),
(358,758,o),
(456,758,cs),
(472,758,o),
(485,740,o),
(485,704,cs),
(485,578,o),
(419,408,o),
(272,256,c)
);
}
);
width = 666;
}
);
unicode = 8467;
userData = {
com.typemytype.robofont.mark = (
0.6,
0.986,
1,
1
);
};
},
{
glyphname = daggerdbl;
lastChange = "2018-06-22 22:17:12 +0000";
layers = (
{
layerId = "12ECCE5E-04E9-4725-8BD5-31F21F15BB81";
shapes = (
{
closed = 1;
nodes = (
(373,-93,l),
(373,185,l),
(552,185,l),
(552,279,l),
(373,279,l),
(373,531,l),
(553,531,l),
(553,626,l),
(373,626,l),
(373,827,l),
(271,827,l),
(271,626,l),
(92,626,l),
(92,531,l),
(271,531,l),
(271,279,l),
(91,279,l),
(91,185,l),
(271,185,l),
(271,-93,l)
);
}
);
width = 646;
}
);
unicode = 8225;
userData = {
com.typemytype.robofont.mark = (
0.967,
0.6,
1,
1
);
};
},
{
glyphname = estimated;
lastChange = "2018-06-22 22:17:12 +0000";
layers = (
{
layerId = "12ECCE5E-04E9-4725-8BD5-31F21F15BB81";
shapes = (
{
closed = 1;
nodes = (
(443,-10,o),
(542,14,o),
(584,45,c),
(557,98,l),
(524,75,o),
(446,55,o),
(371,55,cs),
(306,55,o),
(247,78,o),
(208,128,c),
(208,310,l),
(629,310,l),
(635,335,o),
(635,369,o),
(635,413,c),
(629,574,o),
(520,673,o),
(378,673,cs),
(165,673,o),
(55,529,o),
(55,332,cs),
(55,133,o),
(186,-10,o),
(366,-10,cs)
);
},
{
closed = 1;
nodes = (
(208,546,l),
(242,597,o),
(294,615,o),
(366,615,cs),
(427,615,o),
(466,597,o),
(491,568,c),
(491,376,l),
(208,376,l)
);
}
);
width = 690;
}
);
unicode = 8494;
userData = {
com.typemytype.robofont.mark = (
0.6,
0.986,
1,
1
);
};
},
{
color = 10;
glyphname = numero;
lastChange = "2023-10-15 03:37:05 +0000";
layers = (
{
layerId = "12ECCE5E-04E9-4725-8BD5-31F21F15BB81";
shapes = (
{
closed = 1;
nodes = (
(1253,0,l),
(1253,98,l),
(795,98,l),
(795,0,l)
);
},
{
closed = 1;
nodes = (
(1174,262,o),
(1268,368,o),
(1268,503,cs),
(1268,636,o),
(1176,744,o),
(1028,744,cs),
(880,744,o),
(787,636,o),
(787,503,cs),
(787,368,o),
(882,262,o),
(1028,262,cs)
);
},
{
closed = 1;
nodes = (
(949,352,o),
(897,417,o),
(897,501,cs),
(897,586,o),
(949,654,o),
(1027,654,cs),
(1107,654,o),
(1159,586,o),
(1159,501,cs),
(1159,417,o),
(1107,352,o),
(1027,352,cs)
);
},
{
closed = 1;
nodes = (
(646,0,l),
(646,735,l),
(533,735,l),
(533,267,l),
(105,735,l),
(94,735,l),
(94,0,l),
(207,0,l),
(207,461,l),
(637,0,l)
);
}
);
width = 1315;
}
);
unicode = 8470;
userData = {
KernOnSpecialSpacing = {
R = symbols;
};
};
},
{
color = 7;
glyphname = servicemark;
lastChange = "2019-11-08 03:34:17 +0000";
layers = (
{
layerId = "12ECCE5E-04E9-4725-8BD5-31F21F15BB81";
shapes = (
{
closed = 1;
nodes = (
(327,272,o),
(396,315,o),
(396,398,cs),
(396,433,o),
(378,467,o),
(354,487,cs),
(293,538,o),
(186,552,o),
(186,610,cs),
(186,646,o),
(215,659,o),
(254,659,cs),
(292,659,o),
(326,644,o),
(342,630,c),
(378,690,l),
(359,704,o),
(322,726,o),
(257,726,cs),
(174,726,o),
(104,688,o),
(104,608,cs),
(104,554,o),
(135,516,o),
(171,495,cs),
(233,459,o),
(311,450,o),
(311,390,cs),
(311,353,o),
(280,340,o),
(235,340,cs),
(192,340,o),
(147,361,o),
(133,372,c),
(97,309,l),
(119,290,o),
(177,272,o),
(235,272,cs)
);
},
{
closed = 1;
nodes = (
(866,718,l),
(708,435,l),
(544,718,l),
(539,718,l),
(453,287,l),
(536,287,l),
(577,501,l),
(708,280,l),
(834,502,l),
(879,287,l),
(963,287,l),
(870,718,l)
);
}
);
width = 1059;
}
);
unicode = 8480;
},
{
glyphname = cedi;
lastChange = "2023-10-15 03:37:05 +0000";
layers = (
{
layerId = "12ECCE5E-04E9-4725-8BD5-31F21F15BB81";
shapes = (
{
closed = 1;
nodes = (
(525,-10,o),
(610,13,o),
(634,31,c),
(603,127,l),
(584,117,o),
(530,93,o),
(442,93,cs),
(290,93,o),
(185,201,o),
(185,374,cs),
(185,524,o),
(285,649,o),
(441,649,cs),
(521,649,o),
(581,617,o),
(597,602,c),
(640,702,l),
(625,713,o),
(555,747,o),
(441,747,c),
(223,747,o),
(64,585,o),
(64,368,cs),
(64,153,o),
(207,-10,o),
(449,-10,cs)
);
},
{
closed = 1;
nodes = (
(476,-126,l),
(476,855,l),
(380,855,l),
(380,-126,l)
);
}
);
width = 685;
}
);
metricLeft = colonsign;
metricRight = colonsign;
unicode = 8373;
userData = {
KernOnSpecialSpacing = {
L = symbols;
R = symbols;
};
};
},
{
glyphname = cent;
lastChange = "2023-10-15 03:37:05 +0000";
layers = (
{
layerId = "12ECCE5E-04E9-4725-8BD5-31F21F15BB81";
shapes = (
{
closed = 1;
nodes = (
(327,-184,l),
(327,-12,l),
(396,-11,o),
(434,7,o),
(474,32,c),
(425,117,l),
(398,95,o),
(369,80,o),
(327,79,c),
(327,377,l),
(381,375,o),
(413,350,o),
(423,333,c),
(484,418,l),
(459,439,o),
(407,467,o),
(327,469,c),
(327,643,l),
(263,643,l),
(263,463,l),
(146,440,o),
(71,350,o),
(71,227,cs),
(71,114,o),
(134,16,o),
(263,-6,c),
(263,-184,l)
);
},
{
closed = 1;
nodes = (
(212,111,o),
(186,163,o),
(186,233,cs),
(186,290,o),
(212,344,o),
(263,366,c),
(263,90,l)
);
}
);
width = 555;
}
);
unicode = 162;
userData = {
KernOnSpecialSpacing = {
L = symbols;
R = symbols;
};
com.typemytype.robofont.mark = (
0.656,
1,
0.6,
1
);
};
},
{
glyphname = colonsign;
lastChange = "2023-10-15 03:37:05 +0000";
layers = (
{
anchors = (
{
name = top;
pos = (411,725);
}
);
layerId = "12ECCE5E-04E9-4725-8BD5-31F21F15BB81";
shapes = (
{
closed = 1;
nodes = (
(525,-10,o),
(610,13,o),
(634,31,c),
(603,127,l),
(584,117,o),
(530,93,o),
(442,93,cs),
(290,93,o),
(185,201,o),
(185,374,cs),
(185,524,o),
(285,649,o),
(441,649,cs),
(521,649,o),
(581,617,o),
(597,602,c),
(640,702,l),
(625,713,o),
(555,747,o),
(441,747,c),
(223,747,o),
(64,585,o),
(64,368,cs),
(64,153,o),
(207,-10,o),
(449,-10,cs)
);
},
{
closed = 1;
nodes = (
(279,-68,l),
(439,827,l),
(362,827,l),
(202,-68,l)
);
},
{
closed = 1;
nodes = (
(417,-68,l),
(578,827,l),
(501,827,l),
(340,-68,l)
);
}
);
width = 685;
}
);
unicode = 8353;
userData = {
KernOnSpecialSpacing = {
L = symbols;
R = symbols;
};
com.typemytype.robofont.mark = (
0.967,
0.6,
1,
1
);
};
},
{
glyphname = currency;
lastChange = "2018-06-22 22:22:34 +0000";
layers = (
{
layerId = "12ECCE5E-04E9-4725-8BD5-31F21F15BB81";
shapes = (
{
closed = 1;
nodes = (
(226,72,l),
(255,56,o),
(289,47,o),
(323,47,cs),
(358,47,o),
(390,56,o),
(418,72,c),
(489,2,l),
(559,73,l),
(490,143,l),
(503,168,o),
(511,198,o),
(511,231,cs),
(511,264,o),
(502,295,o),
(487,321,c),
(559,394,l),
(489,465,l),
(414,390,l),
(387,404,o),
(355,412,o),
(323,412,cs),
(291,412,o),
(259,403,o),
(232,389,c),
(157,465,l),
(87,394,l),
(158,321,l),
(144,295,o),
(135,264,o),
(135,231,cs),
(135,198,o),
(142,168,o),
(156,143,c),
(87,73,l),
(157,2,l)
);
},
{
closed = 1;
nodes = (
(268,126,o),
(219,169,o),
(219,231,cs),
(219,292,o),
(269,333,o),
(323,333,cs),
(378,333,o),
(426,292,o),
(426,232,cs),
(426,169,o),
(378,126,o),
(323,126,cs)
);
}
);
width = 646;
}
);
unicode = 164;
userData = {
com.typemytype.robofont.mark = (
0.656,
1,
0.6,
1
);
};
},
{
glyphname = dollar;
lastChange = "2023-10-15 03:37:05 +0000";
layers = (
{
layerId = "12ECCE5E-04E9-4725-8BD5-31F21F15BB81";
shapes = (
{
closed = 1;
nodes = (
(349,-108,l),
(349,-6,l),
(458,9,o),
(534,81,o),
(534,202,cs),
(534,263,o),
(509,307,o),
(474,340,cs),
(438,374,o),
(392,396,o),
(349,420,c),
(349,642,l),
(396,637,o),
(436,615,o),
(456,594,c),
(509,687,l),
(483,708,o),
(433,742,o),
(349,745,c),
(349,844,l),
(286,844,l),
(286,742,l),
(187,728,o),
(112,664,o),
(112,549,cs),
(112,458,o),
(157,406,o),
(209,370,cs),
(234,353,o),
(261,339,o),
(286,326,c),
(286,95,l),
(230,101,o),
(173,132,o),
(153,149,c),
(101,52,l),
(131,23,o),
(207,-6,o),
(286,-9,c),
(286,-108,l)
);
},
{
closed = 1;
nodes = (
(349,291,l),
(389,266,o),
(417,236,o),
(417,187,cs),
(417,142,o),
(389,113,o),
(349,101,c)
);
},
{
closed = 1;
nodes = (
(250,481,o),
(224,510,o),
(224,552,cs),
(224,596,o),
(250,625,o),
(286,637,c),
(286,456,l)
);
}
);
width = 636;
}
);
unicode = 36;
userData = {
KernOnSpecialSpacing = {
L = symbols;
R = symbols;
};
com.typemytype.robofont.mark = (
0.656,
1,
0.6,
1
);
};
},
{
glyphname = dong;
lastChange = "2023-10-15 03:30:28 +0000";
layers = (
{
anchors = (
{
name = top;
pos = (234,725);
}
);
layerId = "12ECCE5E-04E9-4725-8BD5-31F21F15BB81";
shapes = (
{
closed = 1;
nodes = (
(348,129,o),
(409,160,o),
(439,211,c),
(439,139,l),
(547,139,l),
(547,760,l),
(439,760,l),
(439,475,l),
(422,516,o),
(359,561,o),
(277,561,cs),
(165,561,o),
(62,501,o),
(62,349,cs),
(62,200,o),
(172,129,o),
(282,129,cs)
);
},
{
closed = 1;
nodes = (
(604,0,l),
(604,78,l),
(92,78,l),
(92,0,l)
);
},
{
closed = 1;
nodes = (
(219,221,o),
(175,277,o),
(175,350,cs),
(175,422,o),
(213,470,o),
(286,470,cs),
(365,470,o),
(431,420,o),
(431,343,cs),
(431,266,o),
(368,221,o),
(291,221,cs)
);
},
{
closed = 1;
nodes = (
(623,609,l),
(642,679,l),
(356,679,l),
(337,609,l)
);
}
);
width = 646;
}
);
unicode = 8363;
userData = {
com.typemytype.robofont.mark = (
0.967,
0.6,
1,
1
);
};
},
{
glyphname = euro;
lastChange = "2023-10-15 03:37:05 +0000";
layers = (
{
layerId = "12ECCE5E-04E9-4725-8BD5-31F21F15BB81";
shapes = (
{
closed = 1;
nodes = (
(595,-8,o),
(667,15,o),
(694,47,c),
(690,154,l),
(644,108,o),
(591,92,o),
(525,92,cs),
(414,92,o),
(334,155,o),
(298,253,c),
(574,253,l),
(591,333,l),
(280,333,l),
(278,349,o),
(277,365,o),
(277,382,cs),
(277,392,o),
(277,401,o),
(278,412,c),
(615,412,l),
(633,491,l),
(292,491,l),
(322,584,o),
(394,649,o),
(516,649,cs),
(589,649,o),
(639,622,o),
(692,579,c),
(692,694,l),
(672,716,o),
(613,755,o),
(513,755,cs),
(342,755,o),
(212,646,o),
(168,491,c),
(75,491,l),
(56,412,l),
(154,412,l),
(152,397,o),
(152,384,o),
(152,369,cs),
(152,357,o),
(152,345,o),
(153,333,c),
(76,333,l),
(57,253,l),
(167,253,l),
(209,99,o),
(339,-8,o),
(523,-8,cs)
);
}
);
width = 797;
}
);
unicode = 8364;
userData = {
KernOnSpecialSpacing = {
L = symbols;
R = symbols;
};
com.typemytype.robofont.mark = (
0.656,
1,
0.6,
1
);
};
},
{
glyphname = franc;
lastChange = "2018-06-22 22:17:12 +0000";
layers = (
{
layerId = "12ECCE5E-04E9-4725-8BD5-31F21F15BB81";
shapes = (
{
closed = 1;
nodes = (
(245,0,l),
(245,334,l),
(425,334,l),
(425,438,l),
(245,438,l),
(245,637,l),
(478,637,l),
(478,735,l),
(133,735,l),
(133,0,l)
);
},
{
closed = 1;
nodes = (
(339,125,l),
(355,206,l),
(56,206,l),
(37,125,l)
);
}
);
width = 531;
}
);
unicode = 8355;
userData = {
com.typemytype.robofont.mark = (
0.967,
0.6,
1,
1
);
};
},
{
glyphname = guarani;
lastChange = "2023-10-15 03:37:05 +0000";
layers = (
{
.lastUpdate = 719340310.452;
layerId = "12ECCE5E-04E9-4725-8BD5-31F21F15BB81";
shapes = (
{
closed = 1;
nodes = (
(467,654,l),
(467,840,l),
(365,840,l),
(365,654,l)
);
},
{
closed = 1;
nodes = (
(467,-137,l),
(467,49,l),
(365,49,l),
(365,-137,l)
);
},
{
ref = G;
}
);
width = 744;
}
);
unicode = 8370;
userData = {
KernOnSpecialSpacing = {
L = symbols;
R = symbols;
};
};
},
{
glyphname = hryvnia;
lastChange = "2023-10-15 03:37:05 +0000";
layers = (
{
layerId = "12ECCE5E-04E9-4725-8BD5-31F21F15BB81";
shapes = (
{
closed = 1;
nodes = (
(453,-10,o),
(540,26,o),
(572,58,c),
(519,153,l),
(498,134,o),
(430,93,o),
(368,93,cs),
(300,93,o),
(248,126,o),
(248,187,cs),
(248,308,o),
(371,311,o),
(462,370,cs),
(514,405,o),
(559,459,o),
(559,550,cs),
(559,683,o),
(457,746,o),
(337,746,cs),
(242,746,o),
(189,709,o),
(162,687,c),
(215,596,l),
(238,620,o),
(286,645,o),
(342,645,cs),
(408,645,o),
(449,615,o),
(449,556,cs),
(449,419,o),
(286,422,o),
(197,340,cs),
(161,308,o),
(132,259,o),
(132,199,cs),
(132,62,o),
(235,-10,o),
(368,-10,cs)
);
},
{
closed = 1;
nodes = (
(603,226,l),
(620,306,l),
(76,306,l),
(57,226,l)
);
},
{
closed = 1;
nodes = (
(624,409,l),
(643,488,l),
(75,488,l),
(56,409,l)
);
}
);
width = 699;
}
);
metricLeft = lira;
metricRight = "=|";
unicode = 8372;
userData = {
KernOnSpecialSpacing = {
L = symbols;
R = symbols;
};
};
},
{
glyphname = kip;
lastChange = "2023-10-15 03:30:28 +0000";
layers = (
{
anchors = (
{
name = top;
pos = (350,725);
}
);
background = {
shapes = (
{
closed = 1;
nodes = (
(626,0,l),
(340,375,l),
(343,330,l),
(610,697,l),
(463,697,l),
(227,342,l),
(466,0,l)
);
},
{
closed = 1;
nodes = (
(236,0,l),
(236,697,l),
(114,697,l),
(114,0,l)
);
}
);
};
layerId = "12ECCE5E-04E9-4725-8BD5-31F21F15BB81";
shapes = (
{
closed = 1;
nodes = (
(657,0,l),
(353,403,l),
(360,372,l),
(621,735,l),
(487,735,l),
(241,369,l),
(221,335,l),
(303,363,l),
(275,338,l),
(520,0,l)
);
},
{
closed = 1;
nodes = (
(235,0,l),
(235,735,l),
(125,735,l),
(125,0,l)
);
},
{
closed = 1;
nodes = (
(591,335,l),
(591,433,l),
(29,433,l),
(29,335,l)
);
}
);
width = 652;
}
);
unicode = 8365;
},
{
glyphname = lira;
lastChange = "2023-10-15 03:37:05 +0000";
layers = (
{
layerId = "12ECCE5E-04E9-4725-8BD5-31F21F15BB81";
shapes = (
{
closed = 1;
nodes = (
(606,0,l),
(606,99,l),
(268,99,l),
(303,166,o),
(324,247,o),
(324,321,cs),
(324,444,o),
(279,513,o),
(279,558,cs),
(279,646,o),
(345,673,o),
(412,673,cs),
(468,673,o),
(515,648,o),
(542,612,c),
(597,712,l),
(561,749,o),
(491,780,o),
(405,780,cs),
(293,780,o),
(156,722,o),
(156,553,cs),
(156,496,o),
(201,446,o),
(211,308,cs),
(211,302,o),
(212,296,o),
(212,290,cs),
(212,191,o),
(151,79,o),
(101,0,c)
);
},
{
closed = 1;
nodes = (
(473,226,l),
(490,306,l),
(76,306,l),
(57,226,l)
);
},
{
closed = 1;
nodes = (
(494,409,l),
(513,488,l),
(75,488,l),
(56,409,l)
);
}
);
width = 692;
}
);
unicode = 8356;
userData = {
KernOnSpecialSpacing = {
L = symbols;
R = symbols;
};
com.typemytype.robofont.mark = (
0.967,
0.6,
1,
1
);
};
},
{
glyphname = liraTurkish;
lastChange = "2023-10-15 03:37:05 +0000";
layers = (
{
layerId = "12ECCE5E-04E9-4725-8BD5-31F21F15BB81";
shapes = (
{
closed = 1;
nodes = (
(263,0,ls),
(422,0,o),
(582,44,o),
(582,273,c),
(468,273,l),
(468,148,o),
(426,106,o),
(283,106,c),
(283,268,l),
(425,351,l),
(425,440,l),
(283,358,l),
(283,475,l),
(435,561,l),
(435,651,l),
(283,564,l),
(283,735,l),
(166,735,l),
(166,508,l),
(58,447,l),
(58,357,l),
(166,418,l),
(166,301,l),
(63,242,l),
(63,152,l),
(166,211,l),
(166,0,l)
);
}
);
width = 600;
}
);
unicode = 8378;
userData = {
KernOnSpecialSpacing = {
L = symbols;
R = symbols;
};
};
},
{
glyphname = manat;
lastChange = "2018-06-22 18:32:31 +0000";
layers = (
{
layerId = "12ECCE5E-04E9-4725-8BD5-31F21F15BB81";
shapes = (
{
closed = 1;
nodes = (
(172,0,l),
(172,445,ls),
(172,563,o),
(281,602,o),
(350,602,cs),
(420,602,o),
(531,563,o),
(531,445,cs),
(531,0,l),
(653,0,l),
(653,431,ls),
(653,631,o),
(495,697,o),
(348,697,cs),
(215,697,o),
(50,631,o),
(50,431,cs),
(50,0,l)
);
},
{
closed = 1;
nodes = (
(410,109,l),
(410,830,l),
(290,830,l),
(290,109,l)
);
}
);
width = 703;
}
);
unicode = 8380;
},
{
color = 10;
glyphname = naira;
lastChange = "2023-10-15 03:37:05 +0000";
layers = (
{
.lastUpdate = 719340310.45;
anchors = (
{
name = top;
pos = (412,725);
}
);
background = {
shapes = (
{
closed = 1;
nodes = (
(255,0,l),
(255,461,l),
(695,-18,l),
(695,735,l),
(582,735,l),
(582,267,l),
(143,753,l),
(143,0,l)
);
}
);
};
layerId = "12ECCE5E-04E9-4725-8BD5-31F21F15BB81";
shapes = (
{
closed = 1;
nodes = (
(801,461,l),
(820,541,l),
(49,541,l),
(30,461,l)
);
},
{
closed = 1;
nodes = (
(791,187,l),
(807,267,l),
(50,267,l),
(32,187,l)
);
},
{
pos = (66,0);
ref = N;
}
);
width = 838;
}
);
unicode = 8358;
userData = {
KernOnSpecialSpacing = {
L = symbols;
R = symbols;
};
com.typemytype.robofont.guides = (
{
angle = 0;
isGlobal = 0;
magnetic = 5;
x = 0;
y = 1146;
}
);
com.typemytype.robofont.mark = (
0.967,
0.6,
1,
1
);
};
},
{
glyphname = peseta;
lastChange = "2023-10-15 03:30:28 +0000";
layers = (
{
anchors = (
{
name = top;
pos = (385,725);
}
);
layerId = "12ECCE5E-04E9-4725-8BD5-31F21F15BB81";
shapes = (
{
closed = 1;
nodes = (
(250,0,l),
(250,224,l),
(270,224,ls),
(472,224,o),
(563,321,o),
(563,492,cs),
(563,634,o),
(479,735,o),
(271,735,cs),
(137,735,l),
(137,0,l)
);
},
{
closed = 1;
nodes = (
(250,637,l),
(294,637,ls),
(417,637,o),
(450,561,o),
(450,479,cs),
(450,412,o),
(423,322,o),
(292,322,cs),
(250,322,l)
);
},
{
closed = 1;
nodes = (
(643,443,l),
(661,522,l),
(65,522,l),
(46,443,l)
);
}
);
width = 689;
}
);
unicode = 8359;
userData = {
com.typemytype.robofont.mark = (
0.967,
0.6,
1,
1
);
};
},
{
glyphname = peso;
lastChange = "2023-10-15 03:37:05 +0000";
layers = (
{
anchors = (
{
name = top;
pos = (445,725);
}
);
layerId = "12ECCE5E-04E9-4725-8BD5-31F21F15BB81";
shapes = (
{
closed = 1;
nodes = (
(250,0,l),
(250,146,l),
(270,146,ls),
(472,146,o),
(563,281,o),
(563,452,cs),
(563,594,o),
(479,735,o),
(271,735,cs),
(137,735,l),
(137,0,l)
);
},
{
closed = 1;
nodes = (
(638,323,l),
(654,403,l),
(63,403,l),
(44,323,l)
);
},
{
closed = 1;
nodes = (
(250,637,l),
(294,637,ls),
(417,637,o),
(450,531,o),
(450,450,cs),
(450,352,o),
(423,245,o),
(292,245,cs),
(250,245,l)
);
},
{
closed = 1;
nodes = (
(648,489,l),
(667,569,l),
(62,569,l),
(43,489,l)
);
}
);
width = 689;
}
);
unicode = 8369;
userData = {
KernOnSpecialSpacing = {
L = symbols;
R = symbols;
};
com.typemytype.robofont.mark = (
0.967,
0.6,
1,
1
);
};
},
{
glyphname = ruble;
lastChange = "2023-10-15 03:37:05 +0000";
layers = (
{
layerId = "12ECCE5E-04E9-4725-8BD5-31F21F15BB81";
shapes = (
{
closed = 1;
nodes = (
(250,0,l),
(250,224,l),
(270,224,ls),
(472,224,o),
(563,321,o),
(563,492,cs),
(563,634,o),
(479,735,o),
(271,735,cs),
(137,735,l),
(137,0,l)
);
},
{
closed = 1;
nodes = (
(423,84,l),
(441,163,l),
(65,163,l),
(46,84,l)
);
},
{
closed = 1;
nodes = (
(191,232,l),
(209,321,l),
(53,321,l),
(34,232,l)
);
},
{
closed = 1;
nodes = (
(250,637,l),
(294,637,ls),
(417,637,o),
(450,561,o),
(450,479,cs),
(450,412,o),
(433,322,o),
(292,322,cs),
(250,322,l)
);
}
);
width = 600;
}
);
unicode = 8381;
userData = {
KernOnSpecialSpacing = {
L = symbols;
R = symbols;
};
};
},
{
glyphname = rupeeIndian;
lastChange = "2023-10-15 03:37:05 +0000";
layers = (
{
background = {
shapes = (
{
closed = 1;
nodes = (
(43,431,l),
(648,431,l),
(667,511,l),
(62,511,l)
);
}
);
};
layerId = "12ECCE5E-04E9-4725-8BD5-31F21F15BB81";
shapes = (
{
closed = 1;
nodes = (
(518,0,l),
(361,245,l),
(436,267,o),
(491,359,o),
(505,432,c),
(584,432,l),
(584,511,l),
(508,511,l),
(503,552,o),
(467,623,o),
(439,641,c),
(584,641,l),
(584,735,l),
(82,735,l),
(82,641,l),
(245,641,ls),
(327,641,o),
(366,574,o),
(378,511,c),
(82,511,l),
(82,432,l),
(376,432,l),
(362,385,o),
(325,323,o),
(267,317,c),
(82,317,l),
(82,226,l),
(233,226,l),
(367,0,l)
);
}
);
width = 634;
}
);
unicode = 8377;
userData = {
KernOnSpecialSpacing = {
L = symbols;
R = symbols;
};
};
},
{
color = 8;
glyphname = sheqel;
lastChange = "2023-10-15 03:37:05 +0000";
layers = (
{
layerId = "12ECCE5E-04E9-4725-8BD5-31F21F15BB81";
shapes = (
{
closed = 1;
nodes = (
(749,0,l),
(749,735,l),
(649,735,l),
(649,91,l),
(444,91,ls),
(360,91,o),
(355,130,o),
(355,200,cs),
(355,533,l),
(256,533,l),
(256,210,ls),
(256,55,o),
(276,0,o),
(401,0,cs)
);
},
{
closed = 1;
nodes = (
(160,0,l),
(160,644,l),
(365,644,l),
(449,644,o),
(454,605,o),
(454,535,cs),
(454,203,l),
(553,203,l),
(553,525,ls),
(553,681,o),
(513,735,o),
(408,735,c),
(60,735,l),
(60,0,l)
);
}
);
width = 809;
}
);
unicode = 8362;
userData = {
KernOnSpecialSpacing = {
L = symbols;
R = symbols;
};
};
},
{
glyphname = sterling;
lastChange = "2023-10-15 03:37:05 +0000";
layers = (
{
layerId = "12ECCE5E-04E9-4725-8BD5-31F21F15BB81";
shapes = (
{
closed = 1;
nodes = (
(607,0,l),
(607,99,l),
(269,99,l),
(303,166,o),
(325,247,o),
(325,321,c),
(513,321,l),
(513,417,l),
(310,417,l),
(298,461,o),
(280,516,o),
(280,558,cs),
(280,646,o),
(345,673,o),
(413,673,cs),
(469,673,o),
(515,648,o),
(542,612,c),
(597,712,l),
(561,749,o),
(491,780,o),
(406,780,cs),
(294,780,o),
(156,722,o),
(156,553,cs),
(156,498,o),
(173,460,o),
(188,417,c),
(100,417,l),
(100,321,l),
(210,321,l),
(211,308,ls),
(218,204,o),
(154,84,o),
(102,0,c)
);
}
);
width = 692;
}
);
unicode = 163;
userData = {
KernOnSpecialSpacing = {
L = symbols;
R = symbols;
};
com.typemytype.robofont.mark = (
0.656,
1,
0.6,
1
);
};
},
{
glyphname = tugrik;
lastChange = "2023-10-15 03:37:05 +0000";
layers = (
{
layerId = "12ECCE5E-04E9-4725-8BD5-31F21F15BB81";
shapes = (
{
closed = 1;
nodes = (
(320,0,l),
(320,164,l),
(422,211,l),
(422,302,l),
(320,254,l),
(320,359,l),
(432,413,l),
(432,502,l),
(320,449,l),
(320,622,l),
(481,622,l),
(481,735,l),
(30,735,l),
(30,622,l),
(194,622,l),
(194,389,l),
(86,338,l),
(86,248,l),
(194,299,l),
(194,192,l),
(91,143,l),
(91,53,l),
(194,102,l),
(194,0,l)
);
}
);
width = 511;
}
);
unicode = 8366;
userData = {
KernOnSpecialSpacing = {
L = symbols;
R = symbols;
};
};
},
{
color = 10;
glyphname = won;
lastChange = "2023-10-15 03:37:05 +0000";
layers = (
{
anchors = (
{
name = top;
pos = (592,725);
}
);
layerId = "12ECCE5E-04E9-4725-8BD5-31F21F15BB81";
shapes = (
{
closed = 1;
nodes = (
(1117,454,l),
(1135,533,l),
(69,533,l),
(50,454,l)
);
},
{
closed = 1;
nodes = (
(804,0,l),
(1092,735,l),
(977,735,l),
(796,254,l),
(598,735,l),
(586,735,l),
(388,254,l),
(207,735,l),
(92,735,l),
(381,0,l),
(392,0,l),
(592,493,l),
(792,0,l)
);
}
);
width = 1185;
}
);
unicode = 8361;
userData = {
KernOnSpecialSpacing = {
L = symbols;
R = symbols;
};
com.typemytype.robofont.guides = (
{
angle = 90;
isGlobal = 0;
magnetic = 5;
x = 558;
y = 0;
}
);
};
},
{
color = 9;
glyphname = yen;
lastChange = "2023-10-15 03:37:05 +0000";
layers = (
{
layerId = "12ECCE5E-04E9-4725-8BD5-31F21F15BB81";
shapes = (
{
closed = 1;
nodes = (
(399,0,l),
(399,132,l),
(599,132,l),
(599,213,l),
(399,213,l),
(399,322,l),
(599,322,l),
(599,401,l),
(447,401,l),
(653,735,l),
(517,735,l),
(343,424,l),
(169,735,l),
(32,735,l),
(240,401,l),
(87,401,l),
(87,322,l),
(287,322,l),
(287,213,l),
(87,213,l),
(87,132,l),
(287,132,l),
(287,0,l)
);
}
);
width = 686;
}
);
unicode = 165;
userData = {
KernOnSpecialSpacing = {
L = symbols;
R = symbols;
};
com.typemytype.robofont.mark = (
0.656,
1,
0.6,
1
);
};
},
{
glyphname = bulletoperator;
lastChange = "2018-06-22 18:32:31 +0000";
layers = (
{
layerId = "12ECCE5E-04E9-4725-8BD5-31F21F15BB81";
shapes = (
{
closed = 1;
nodes = (
(220,310,o),
(261,335,o),
(261,407,cs),
(261,476,o),
(219,505,o),
(168,505,cs),
(119,505,o),
(77,476,o),
(77,407,cs),
(77,335,o),
(118,310,o),
(168,310,cs)
);
}
);
width = 338;
}
);
unicode = 8729;
},
{
glyphname = commercialMinusSign;
lastChange = "2018-06-22 18:32:31 +0000";
layers = (
{
layerId = "12ECCE5E-04E9-4725-8BD5-31F21F15BB81";
shapes = (
{
closed = 1;
nodes = (
(250,0,l),
(452,735,l),
(354,735,l),
(152,0,l)
);
},
{
closed = 1;
nodes = (
(509,0,o),
(550,25,o),
(550,97,cs),
(550,166,o),
(508,195,o),
(457,195,cs),
(408,195,o),
(366,166,o),
(366,97,cs),
(366,25,o),
(407,0,o),
(457,0,cs)
);
},
{
closed = 1;
nodes = (
(193,540,o),
(234,565,o),
(234,637,cs),
(234,706,o),
(192,735,o),
(141,735,cs),
(92,735,o),
(50,706,o),
(50,637,cs),
(50,565,o),
(91,540,o),
(141,540,cs)
);
}
);
width = 600;
}
);
unicode = 8274;
},
{
glyphname = divisionslash;
lastChange = "2018-06-22 18:32:31 +0000";
layers = (
{
layerId = "12ECCE5E-04E9-4725-8BD5-31F21F15BB81";
shapes = (
{
closed = 1;
nodes = (
(304,735,l),
(206,735,l),
(34,1,l),
(132,0,l)
);
}
);
width = 338;
}
);
unicode = 8725;
},
{
glyphname = plus;
lastChange = "2023-10-15 03:37:05 +0000";
layers = (
{
layerId = "12ECCE5E-04E9-4725-8BD5-31F21F15BB81";
shapes = (
{
closed = 1;
nodes = (
(371,92,l),
(371,276,l),
(561,276,l),
(561,368,l),
(371,368,l),
(371,552,l),
(274,552,l),
(274,368,l),
(85,368,l),
(85,276,l),
(274,276,l),
(274,92,l)
);
}
);
width = 647;
}
);
unicode = 43;
userData = {
KernOnSpecialSpacing = {
L = math;
R = math;
};
com.typemytype.robofont.mark = (
0.656,
1,
0.6,
1
);
};
},
{
glyphname = minus;
lastChange = "2023-10-15 03:37:05 +0000";
layers = (
{
layerId = "12ECCE5E-04E9-4725-8BD5-31F21F15BB81";
shapes = (
{
closed = 1;
nodes = (
(463,203,l),
(463,299,l),
(106,299,l),
(106,203,l)
);
}
);
width = 569;
}
);
unicode = 8722;
userData = {
KernOnSpecialSpacing = {
L = math;
R = math;
};
com.typemytype.robofont.mark = (
0.656,
1,
0.6,
1
);
};
},
{
glyphname = multiply;
lastChange = "2023-10-15 03:37:05 +0000";
layers = (
{
layerId = "12ECCE5E-04E9-4725-8BD5-31F21F15BB81";
shapes = (
{
closed = 1;
nodes = (
(539,169,l),
(389,318,l),
(534,463,l),
(466,531,l),
(321,387,l),
(173,535,l),
(107,470,l),
(256,321,l),
(111,177,l),
(179,108,l),
(324,253,l),
(474,104,l)
);
}
);
width = 646;
}
);
unicode = 215;
userData = {
KernOnSpecialSpacing = {
L = math;
R = math;
};
com.typemytype.robofont.guides = (
{
angle = 90;
isGlobal = 0;
magnetic = 5;
x = 209;
y = 0;
}
);
com.typemytype.robofont.mark = (
0.656,
1,
0.6,
1
);
};
},
{
glyphname = divide;
lastChange = "2023-10-15 03:37:05 +0000";
layers = (
{
layerId = "12ECCE5E-04E9-4725-8BD5-31F21F15BB81";
shapes = (
{
closed = 1;
nodes = (
(463,276,l),
(463,368,l),
(91,368,l),
(91,276,l)
);
},
{
closed = 1;
nodes = (
(317,39,o),
(350,71,o),
(350,111,cs),
(350,151,o),
(318,184,o),
(277,184,cs),
(236,184,o),
(205,151,o),
(205,111,cs),
(205,71,o),
(236,39,o),
(277,39,cs)
);
},
{
closed = 1;
nodes = (
(317,459,o),
(350,493,o),
(350,531,cs),
(350,572,o),
(318,605,o),
(277,605,cs),
(236,605,o),
(205,572,o),
(205,531,cs),
(205,493,o),
(236,459,o),
(277,459,cs)
);
}
);
width = 555;
}
);
unicode = 247;
userData = {
KernOnSpecialSpacing = {
L = math;
R = math;
};
com.typemytype.robofont.mark = (
0.656,
1,
0.6,
1
);
};
},
{
glyphname = equal;
lastChange = "2023-10-15 03:37:05 +0000";
layers = (
{
layerId = "12ECCE5E-04E9-4725-8BD5-31F21F15BB81";
shapes = (
{
closed = 1;
nodes = (
(463,149,l),
(463,242,l),
(91,242,l),
(91,149,l)
);
},
{
closed = 1;
nodes = (
(463,368,l),
(463,459,l),
(91,459,l),
(91,368,l)
);
}
);
width = 555;
}
);
unicode = 61;
userData = {
KernOnSpecialSpacing = {
L = math;
R = math;
};
com.typemytype.robofont.mark = (
0.656,
1,
0.6,
1
);
};
},
{
glyphname = notequal;
lastChange = "2018-06-22 18:32:31 +0000";
layers = (
{
.lastUpdate = 719340310.536;
layerId = "12ECCE5E-04E9-4725-8BD5-31F21F15BB81";
shapes = (
{
closed = 1;
nodes = (
(233,60,l),
(280,184,l),
(300,227,l),
(361,390,l),
(383,440,l),
(425,552,l),
(329,552,l),
(282,440,l),
(263,390,l),
(203,227,l),
(183,184,l),
(135,60,l)
);
},
{
ref = equal;
}
);
width = 555;
}
);
unicode = 8800;
userData = {
com.typemytype.robofont.mark = (
0.967,
0.6,
1,
1
);
};
},
{
glyphname = less;
lastChange = "2023-10-15 03:37:05 +0000";
layers = (
{
layerId = "12ECCE5E-04E9-4725-8BD5-31F21F15BB81";
shapes = (
{
closed = 1;
nodes = (
(552,102,l),
(192,232,l),
(552,359,l),
(552,471,l),
(93,290,l),
(93,181,l),
(552,-9,l)
);
}
);
width = 646;
}
);
unicode = 60;
userData = {
KernOnSpecialSpacing = {
L = math;
R = math;
};
com.typemytype.robofont.mark = (
0.656,
1,
0.6,
1
);
};
},
{
glyphname = lessequal;
lastChange = "2018-06-22 22:17:12 +0000";
layers = (
{
layerId = "12ECCE5E-04E9-4725-8BD5-31F21F15BB81";
shapes = (
{
closed = 1;
nodes = (
(551,287,l),
(192,417,l),
(551,544,l),
(551,657,l),
(92,475,l),
(92,365,l),
(551,175,l)
);
},
{
closed = 1;
nodes = (
(552,0,l),
(552,98,l),
(94,98,l),
(94,0,l)
);
}
);
width = 646;
}
);
unicode = 8804;
userData = {
com.typemytype.robofont.mark = (
0.967,
0.6,
1,
1
);
};
},
{
glyphname = plusminus;
lastChange = "2023-10-15 03:37:05 +0000";
layers = (
{
layerId = "12ECCE5E-04E9-4725-8BD5-31F21F15BB81";
shapes = (
{
closed = 1;
nodes = (
(561,0,l),
(561,92,l),
(371,92,l),
(371,276,l),
(561,276,l),
(561,368,l),
(371,368,l),
(371,552,l),
(274,552,l),
(274,368,l),
(85,368,l),
(85,276,l),
(274,276,l),
(274,92,l),
(85,92,l),
(85,0,l)
);
}
);
width = 647;
}
);
unicode = 177;
userData = {
KernOnSpecialSpacing = {
L = math;
R = math;
};
com.typemytype.robofont.mark = (
0.656,
1,
0.6,
1
);
};
},
{
glyphname = logicalnot;
lastChange = "2018-06-22 22:17:12 +0000";
layers = (
{
layerId = "12ECCE5E-04E9-4725-8BD5-31F21F15BB81";
shapes = (
{
closed = 1;
nodes = (
(699,92,l),
(699,367,l),
(94,367,l),
(94,275,l),
(598,275,l),
(598,92,l)
);
}
);
width = 828;
}
);
unicode = 172;
userData = {
com.typemytype.robofont.mark = (
0.656,
1,
0.6,
1
);
};
},
{
glyphname = asciitilde;
lastChange = "2023-10-15 03:37:05 +0000";
layers = (
{
layerId = "12ECCE5E-04E9-4725-8BD5-31F21F15BB81";
shapes = (
{
closed = 1;
nodes = (
(436,182,o),
(487,227,o),
(500,267,c),
(454,333,l),
(430,295,o),
(391,281,o),
(362,281,cs),
(306,281,o),
(293,354,o),
(200,354,cs),
(120,354,o),
(70,303,o),
(57,271,c),
(103,204,l),
(127,243,o),
(166,255,o),
(195,255,cs),
(251,255,o),
(263,182,o),
(357,182,cs)
);
}
);
width = 554;
}
);
unicode = 126;
userData = {
KernOnSpecialSpacing = {
L = math;
R = math;
};
com.typemytype.robofont.mark = (
0.656,
1,
0.6,
1
);
};
},
{
glyphname = asciicircum;
lastChange = "2023-10-15 03:37:05 +0000";
layers = (
{
layerId = "12ECCE5E-04E9-4725-8BD5-31F21F15BB81";
shapes = (
{
closed = 1;
nodes = (
(161,276,l),
(323,602,l),
(485,276,l),
(589,276,l),
(371,747,l),
(273,747,l),
(56,276,l)
);
}
);
width = 646;
}
);
unicode = 94;
userData = {
KernOnSpecialSpacing = {
L = math;
R = math;
};
com.typemytype.robofont.mark = (
0.656,
1,
0.6,
1
);
};
},
{
glyphname = infinity;
lastChange = "2018-06-22 22:17:12 +0000";
layers = (
{
layerId = "12ECCE5E-04E9-4725-8BD5-31F21F15BB81";
shapes = (
{
closed = 1;
nodes = (
(428,145,o),
(506,207,o),
(555,276,c),
(617,206,o),
(688,145,o),
(784,145,cs),
(948,145,o),
(1019,258,o),
(1019,365,cs),
(1019,479,o),
(945,588,o),
(784,588,cs),
(692,588,o),
(604,518,o),
(556,443,c),
(493,519,o),
(420,588,o),
(318,588,cs),
(155,588,o),
(84,475,o),
(84,367,cs),
(84,253,o),
(158,145,o),
(318,145,cs)
);
},
{
closed = 1;
nodes = (
(242,247,o),
(195,304,o),
(195,361,cs),
(195,425,o),
(236,482,o),
(313,482,cs),
(380,482,o),
(435,420,o),
(493,349,c),
(455,292,o),
(376,247,o),
(318,247,cs)
);
},
{
closed = 1;
nodes = (
(723,250,o),
(671,303,o),
(618,367,c),
(649,429,o),
(722,486,o),
(784,486,cs),
(861,486,o),
(909,429,o),
(909,371,cs),
(909,307,o),
(866,250,o),
(790,250,cs)
);
}
);
width = 1103;
}
);
unicode = 8734;
userData = {
com.typemytype.robofont.mark = (
0.6,
0.986,
1,
1
);
};
},
{
glyphname = emptyset;
lastChange = "2018-06-22 22:17:12 +0000";
layers = (
{
layerId = "12ECCE5E-04E9-4725-8BD5-31F21F15BB81";
shapes = (
{
closed = 1;
nodes = (
(175,0,l),
(723,697,l),
(623,697,l),
(75,0,l)
);
},
{
closed = 1;
nodes = (
(583,27,o),
(720,167,o),
(720,349,cs),
(720,531,o),
(583,671,o),
(405,671,cs),
(227,671,o),
(89,531,o),
(89,349,cs),
(89,167,o),
(230,27,o),
(405,27,cs)
);
},
{
closed = 1;
nodes = (
(284,132,o),
(201,232,o),
(201,349,cs),
(201,466,o),
(284,566,o),
(405,566,cs),
(526,566,o),
(609,466,o),
(609,349,cs),
(609,232,o),
(526,132,o),
(405,132,cs)
);
}
);
width = 798;
}
);
unicode = 8709;
userData = {
com.typemytype.robofont.mark = (
0.6,
0.609,
1,
1
);
};
},
{
glyphname = integral;
lastChange = "2018-06-22 22:17:12 +0000";
layers = (
{
layerId = "12ECCE5E-04E9-4725-8BD5-31F21F15BB81";
shapes = (
{
closed = 1;
nodes = (
(210,-184,o),
(245,-86,o),
(252,5,cs),
(317,744,ls),
(322,805,o),
(342,838,o),
(409,838,cs),
(424,838,o),
(446,836,o),
(458,832,c),
(465,915,l),
(451,918,o),
(432,919,o),
(417,919,cs),
(250,919,o),
(216,820,o),
(208,730,cs),
(144,-9,l),
(138,-70,o),
(118,-104,o),
(51,-104,cs),
(37,-104,o),
(13,-101,o),
(2,-98,c),
(-5,-180,l),
(8,-183,o),
(29,-184,o),
(43,-184,cs)
);
}
);
width = 460;
}
);
unicode = 8747;
userData = {
com.typemytype.robofont.mark = (
0.6,
0.986,
1,
1
);
};
},
{
glyphname = Ohm;
lastChange = "2018-06-22 18:32:31 +0000";
layers = (
{
layerId = "12ECCE5E-04E9-4725-8BD5-31F21F15BB81";
shapes = (
{
closed = 1;
nodes = (
(402,0,l),
(402,79,l),
(272,180,o),
(246,290,o),
(246,394,cs),
(246,541,o),
(310,641,o),
(461,641,cs),
(613,641,o),
(678,541,o),
(678,394,cs),
(678,290,o),
(651,180,o),
(521,79,c),
(521,0,l),
(817,0,l),
(817,99,l),
(678,99,l),
(750,164,o),
(804,264,o),
(804,394,cs),
(804,630,o),
(637,747,o),
(461,747,cs),
(287,747,o),
(119,630,o),
(119,394,cs),
(119,264,o),
(174,164,o),
(246,99,c),
(106,99,l),
(106,0,l)
);
}
);
width = 923;
}
);
unicode = 8486;
},
{
color = 8;
glyphname = product;
lastChange = "2023-10-15 03:30:30 +0000";
layers = (
{
anchors = (
{
name = top;
pos = (323,725);
}
);
layerId = "12ECCE5E-04E9-4725-8BD5-31F21F15BB81";
shapes = (
{
closed = 1;
nodes = (
(196,-154,l),
(196,638,l),
(451,638,l),
(451,-154,l),
(563,-154,l),
(563,735,l),
(83,735,l),
(83,-154,l)
);
}
);
width = 647;
}
);
unicode = 8719;
userData = {
com.typemytype.robofont.mark = (
0.6,
0.986,
1,
1
);
};
},
{
color = 8;
glyphname = summation;
lastChange = "2023-10-15 03:27:25 +0000";
layers = (
{
layerId = "12ECCE5E-04E9-4725-8BD5-31F21F15BB81";
shapes = (
{
closed = 1;
nodes = (
(562,-154,l),
(562,-62,l),
(200,-62,l),
(386,295,l),
(210,643,l),
(562,643,l),
(562,735,l),
(30,735,l),
(271,295,l),
(30,-154,l)
);
}
);
width = 597;
}
);
metricRight = E;
unicode = 8721;
userData = {
com.typemytype.robofont.mark = (
0.6,
0.986,
1,
1
);
};
},
{
glyphname = radical;
lastChange = "2018-06-22 22:17:12 +0000";
layers = (
{
layerId = "12ECCE5E-04E9-4725-8BD5-31F21F15BB81";
shapes = (
{
closed = 1;
nodes = (
(733,919,l),
(623,919,l),
(376,171,l),
(255,459,l),
(66,459,l),
(66,353,l),
(188,353,l),
(389,-104,l)
);
}
);
width = 736;
}
);
unicode = 8730;
userData = {
com.typemytype.robofont.mark = (
0.6,
0.986,
1,
1
);
};
},
{
glyphname = micro;
lastChange = "2018-06-22 18:32:31 +0000";
layers = (
{
layerId = "12ECCE5E-04E9-4725-8BD5-31F21F15BB81";
shapes = (
{
closed = 1;
nodes = (
(217,-173,l),
(217,9,l),
(238,-7,o),
(266,-15,o),
(294,-15,cs),
(352,-15,o),
(399,17,o),
(429,56,c),
(429,-7,l),
(541,-7,l),
(541,463,l),
(429,463,l),
(429,228,ls),
(429,123,o),
(389,81,o),
(313,81,cs),
(233,81,o),
(219,129,o),
(217,216,cs),
(213,463,l),
(103,463,l),
(106,-173,l)
);
}
);
width = 646;
}
);
unicode = 181;
},
{
glyphname = partialdiff;
lastChange = "2018-06-22 22:17:12 +0000";
layers = (
{
layerId = "12ECCE5E-04E9-4725-8BD5-31F21F15BB81";
shapes = (
{
closed = 1;
nodes = (
(475,-9,o),
(569,108,o),
(569,314,cs),
(569,650,o),
(405,747,o),
(261,747,cs),
(207,747,o),
(157,733,o),
(118,714,c),
(158,638,l),
(184,648,o),
(215,654,o),
(247,654,cs),
(332,654,o),
(423,607,o),
(451,440,c),
(419,457,o),
(374,471,o),
(308,471,cs),
(179,471,o),
(65,378,o),
(65,229,c),
(65,88,o),
(169,-9,o),
(318,-9,cs)
);
},
{
closed = 1;
nodes = (
(243,83,o),
(180,138,o),
(180,229,c),
(180,320,o),
(233,379,o),
(309,379,cs),
(389,379,o),
(435,361,o),
(459,347,c),
(459,341,o),
(459,334,o),
(459,327,cs),
(459,151,o),
(395,83,o),
(318,83,cs)
);
}
);
width = 648;
}
);
unicode = 8706;
userData = {
com.typemytype.robofont.mark = (
0.6,
0.986,
1,
1
);
};
},
{
color = 8;
glyphname = percent;
lastChange = "2023-10-15 03:37:05 +0000";
layers = (
{
layerId = "12ECCE5E-04E9-4725-8BD5-31F21F15BB81";
shapes = (
{
closed = 1;
nodes = (
(308,2,l),
(719,713,l),
(616,713,l),
(203,2,l)
);
},
{
closed = 1;
nodes = (
(320,357,o),
(386,421,o),
(386,533,cs),
(386,643,o),
(320,712,o),
(225,712,cs),
(127,712,o),
(60,643,o),
(60,533,cs),
(60,421,o),
(127,357,o),
(225,357,cs)
);
},
{
closed = 1;
nodes = (
(179,438,o),
(151,474,o),
(151,533,cs),
(151,593,o),
(179,630,o),
(225,630,cs),
(269,630,o),
(295,593,o),
(295,533,cs),
(295,474,o),
(269,438,o),
(225,438,cs)
);
},
{
closed = 1;
nodes = (
(814,2,o),
(879,66,o),
(879,179,cs),
(879,289,o),
(814,357,o),
(718,357,cs),
(620,357,o),
(553,289,o),
(553,179,cs),
(553,66,o),
(620,2,o),
(718,2,cs)
);
},
{
closed = 1;
nodes = (
(672,83,o),
(645,119,o),
(645,179,cs),
(645,238,o),
(672,275,o),
(718,275,cs),
(763,275,o),
(789,238,o),
(789,179,cs),
(789,119,o),
(763,83,o),
(718,83,cs)
);
}
);
width = 939;
}
);
unicode = 37;
userData = {
KernOnSpecialSpacing = {
L = "spaced-off";
};
com.typemytype.robofont.mark = (
0.656,
1,
0.6,
1
);
};
},
{
color = 8;
glyphname = perthousand;
lastChange = "2018-06-22 22:17:12 +0000";
layers = (
{
layerId = "12ECCE5E-04E9-4725-8BD5-31F21F15BB81";
shapes = (
{
closed = 1;
nodes = (
(308,2,l),
(719,713,l),
(616,713,l),
(203,2,l)
);
},
{
closed = 1;
nodes = (
(320,357,o),
(386,421,o),
(386,533,cs),
(386,643,o),
(320,712,o),
(225,712,cs),
(127,712,o),
(60,643,o),
(60,533,cs),
(60,421,o),
(127,357,o),
(225,357,cs)
);
},
{
closed = 1;
nodes = (
(179,438,o),
(151,474,o),
(151,533,cs),
(151,593,o),
(179,630,o),
(225,630,cs),
(269,630,o),
(295,593,o),
(295,533,cs),
(295,474,o),
(269,438,o),
(225,438,cs)
);
},
{
closed = 1;
nodes = (
(814,2,o),
(879,66,o),
(879,179,cs),
(879,289,o),
(814,357,o),
(718,357,cs),
(620,357,o),
(553,289,o),
(553,179,cs),
(553,66,o),
(620,2,o),
(718,2,cs)
);
},
{
closed = 1;
nodes = (
(672,83,o),
(645,119,o),
(645,179,cs),
(645,238,o),
(672,275,o),
(718,275,cs),
(763,275,o),
(789,238,o),
(789,179,cs),
(789,119,o),
(763,83,o),
(718,83,cs)
);
},
{
closed = 1;
nodes = (
(1208,2,o),
(1273,66,o),
(1273,179,cs),
(1273,289,o),
(1208,357,o),
(1112,357,cs),
(1014,357,o),
(947,289,o),
(947,179,cs),
(947,66,o),
(1014,2,o),
(1112,2,cs)
);
},
{
closed = 1;
nodes = (
(1066,83,o),
(1039,119,o),
(1039,179,cs),
(1039,238,o),
(1066,275,o),
(1112,275,cs),
(1157,275,o),
(1183,238,o),
(1183,179,cs),
(1183,119,o),
(1157,83,o),
(1112,83,cs)
);
}
);
width = 1333;
}
);
metricLeft = percent;
metricRight = percent;
unicode = 8240;
userData = {
com.typemytype.robofont.mark = (
0.967,
0.6,
1,
1
);
};
},
{
glyphname = upArrow;
lastChange = "2023-10-15 03:37:05 +0000";
layers = (
{
layerId = "12ECCE5E-04E9-4725-8BD5-31F21F15BB81";
shapes = (
{
closed = 1;
nodes = (
(421,71,l),
(421,505,l),
(415,564,l),
(611,367,l),
(670,424,l),
(378,716,l),
(86,424,l),
(146,367,l),
(342,563,l),
(335,505,l),
(335,71,l)
);
}
);
width = 757;
}
);
unicode = 8593;
userData = {
KernOnSpecialSpacing = {
L = NoKerning;
R = NoKerning;
};
};
},
{
color = 8;
glyphname = northEastArrow;
lastChange = "2023-10-15 03:37:05 +0000";
layers = (
{
layerId = "12ECCE5E-04E9-4725-8BD5-31F21F15BB81";
shapes = (
{
closed = 1;
nodes = (
(487,442,l),
(525,488,l),
(524,210,l),
(606,209,l),
(606,622,l),
(193,622,l),
(195,539,l),
(472,539,l),
(426,503,l),
(120,196,l),
(180,135,l)
);
}
);
width = 757;
}
);
unicode = 8599;
userData = {
KernOnSpecialSpacing = {
L = NoKerning;
R = NoKerning;
};
};
},
{
glyphname = rightArrow;
lastChange = "2023-10-15 03:37:05 +0000";
layers = (
{
layerId = "12ECCE5E-04E9-4725-8BD5-31F21F15BB81";
shapes = (
{
closed = 1;
nodes = (
(702,379,l),
(410,671,l),
(352,612,l),
(549,416,l),
(491,422,l),
(56,422,l),
(57,337,l),
(491,337,l),
(549,343,l),
(352,146,l),
(410,87,l)
);
}
);
width = 757;
}
);
unicode = 8594;
userData = {
KernOnSpecialSpacing = {
L = NoKerning;
R = NoKerning;
};
};
},
{
color = 8;
glyphname = southEastArrow;
lastChange = "2023-10-15 03:37:05 +0000";
layers = (
{
layerId = "12ECCE5E-04E9-4725-8BD5-31F21F15BB81";
shapes = (
{
closed = 1;
nodes = (
(607,136,l),
(607,549,l),
(524,547,l),
(524,270,l),
(488,316,l),
(181,622,l),
(120,562,l),
(427,255,l),
(473,217,l),
(195,218,l),
(194,136,l)
);
}
);
width = 757;
}
);
unicode = 8600;
userData = {
KernOnSpecialSpacing = {
L = NoKerning;
R = NoKerning;
};
};
},
{
glyphname = downArrow;
lastChange = "2023-10-15 03:37:05 +0000";
layers = (
{
layerId = "12ECCE5E-04E9-4725-8BD5-31F21F15BB81";
shapes = (
{
closed = 1;
nodes = (
(670,363,l),
(611,420,l),
(415,223,l),
(421,282,l),
(421,716,l),
(335,716,l),
(335,282,l),
(342,223,l),
(146,420,l),
(86,363,l),
(378,71,l)
);
}
);
width = 757;
}
);
unicode = 8595;
userData = {
KernOnSpecialSpacing = {
L = NoKerning;
R = NoKerning;
};
};
},
{
color = 8;
glyphname = southWestArrow;
lastChange = "2023-10-15 03:37:05 +0000";
layers = (
{
layerId = "12ECCE5E-04E9-4725-8BD5-31F21F15BB81";
shapes = (
{
closed = 1;
nodes = (
(563,136,l),
(562,218,l),
(284,217,l),
(330,255,l),
(637,562,l),
(576,622,l),
(269,316,l),
(233,270,l),
(233,547,l),
(150,549,l),
(150,136,l)
);
}
);
width = 757;
}
);
unicode = 8601;
userData = {
KernOnSpecialSpacing = {
L = NoKerning;
R = NoKerning;
};
};
},
{
glyphname = leftArrow;
lastChange = "2023-10-15 03:37:05 +0000";
layers = (
{
layerId = "12ECCE5E-04E9-4725-8BD5-31F21F15BB81";
shapes = (
{
closed = 1;
nodes = (
(405,146,l),
(208,343,l),
(267,337,l),
(701,337,l),
(702,422,l),
(267,422,l),
(208,416,l),
(405,612,l),
(348,671,l),
(56,379,l),
(348,87,l)
);
}
);
width = 757;
}
);
unicode = 8592;
userData = {
KernOnSpecialSpacing = {
L = NoKerning;
R = NoKerning;
};
};
},
{
color = 8;
glyphname = northWestArrow;
lastChange = "2023-10-15 03:37:05 +0000";
layers = (
{
layerId = "12ECCE5E-04E9-4725-8BD5-31F21F15BB81";
shapes = (
{
closed = 1;
nodes = (
(637,196,l),
(330,503,l),
(284,541,l),
(562,540,l),
(563,622,l),
(150,622,l),
(150,209,l),
(233,211,l),
(233,488,l),
(269,442,l),
(576,136,l)
);
}
);
width = 757;
}
);
unicode = 8598;
userData = {
KernOnSpecialSpacing = {
L = NoKerning;
R = NoKerning;
};
};
},
{
glyphname = dottedCircle;
lastChange = "2023-10-15 03:16:11 +0000";
layers = (
{
anchors = (
{
name = bottom;
pos = (525,0);
},
{
name = top;
pos = (525,1100);
}
);
layerId = "12ECCE5E-04E9-4725-8BD5-31F21F15BB81";
shapes = (
{
closed = 1;
nodes = (
(564,889,o),
(593,918,o),
(593,957,cs),
(593,996,o),
(564,1025,o),
(525,1025,cs),
(486,1025,o),
(457,996,o),
(457,957,cs),
(457,918,o),
(486,889,o),
(525,889,cs)
);
},
{
closed = 1;
nodes = (
(768,835,o),
(796,863,o),
(796,902,cs),
(796,942,o),
(768,970,o),
(729,970,cs),
(689,970,o),
(661,942,o),
(661,902,cs),
(661,863,o),
(689,835,o),
(729,835,cs)
);
},
{
closed = 1;
nodes = (
(917,686,o),
(945,714,o),
(945,754,cs),
(945,793,o),
(917,821,o),
(877,821,cs),
(838,821,o),
(810,793,o),
(810,754,cs),
(810,714,o),
(838,686,o),
(877,686,cs)
);
},
{
closed = 1;
nodes = (
(971,482,o),
(1000,511,o),
(1000,550,cs),
(1000,589,o),
(971,618,o),
(932,618,cs),
(893,618,o),
(864,589,o),
(864,550,cs),
(864,511,o),
(893,482,o),
(932,482,cs)
);
},
{
closed = 1;
nodes = (
(917,279,o),
(945,307,o),
(945,347,cs),
(945,386,o),
(917,414,o),
(877,414,cs),
(838,414,o),
(810,386,o),
(810,347,cs),
(810,307,o),
(838,279,o),
(877,279,cs)
);
},
{
closed = 1;
nodes = (
(768,130,o),
(796,158,o),
(796,198,cs),
(796,237,o),
(768,265,o),
(729,265,cs),
(689,265,o),
(661,237,o),
(661,198,cs),
(661,158,o),
(689,130,o),
(729,130,cs)
);
},
{
closed = 1;
nodes = (
(564,75,o),
(593,104,o),
(593,143,cs),
(593,182,o),
(564,211,o),
(525,211,cs),
(486,211,o),
(457,182,o),
(457,143,cs),
(457,104,o),
(486,75,o),
(525,75,cs)
);
},
{
closed = 1;
nodes = (
(361,130,o),
(389,158,o),
(389,198,cs),
(389,237,o),
(361,265,o),
(322,265,cs),
(282,265,o),
(254,237,o),
(254,198,cs),
(254,158,o),
(282,130,o),
(322,130,cs)
);
},
{
closed = 1;
nodes = (
(212,279,o),
(240,307,o),
(240,347,cs),
(240,386,o),
(212,414,o),
(173,414,cs),
(133,414,o),
(105,386,o),
(105,347,cs),
(105,307,o),
(133,279,o),
(173,279,cs)
);
},
{
closed = 1;
nodes = (
(157,482,o),
(186,511,o),
(186,550,cs),
(186,589,o),
(157,618,o),
(118,618,cs),
(79,618,o),
(50,589,o),
(50,550,cs),
(50,511,o),
(79,482,o),
(118,482,cs)
);
},
{
closed = 1;
nodes = (
(212,686,o),
(240,714,o),
(240,754,cs),
(240,793,o),
(212,821,o),
(173,821,cs),
(133,821,o),
(105,793,o),
(105,754,cs),
(105,714,o),
(133,686,o),
(173,686,cs)
);
},
{
closed = 1;
nodes = (
(361,835,o),
(389,863,o),
(389,902,cs),
(389,942,o),
(361,970,o),
(322,970,cs),
(282,970,o),
(254,942,o),
(254,902,cs),
(254,863,o),
(282,835,o),
(322,835,cs)
);
}
);
width = 1050;
}
);
metricLeft = "=50";
metricRight = "=|";
unicode = 9676;
},
{
glyphname = lozenge;
lastChange = "2018-06-22 18:32:31 +0000";
layers = (
{
layerId = "12ECCE5E-04E9-4725-8BD5-31F21F15BB81";
shapes = (
{
closed = 1;
nodes = (
(372,-92,l),
(605,333,l),
(372,757,l),
(274,757,l),
(41,333,l),
(47,333,l),
(41,333,l),
(274,-92,l)
);
},
{
closed = 1;
nodes = (
(167,332,l),
(160,333,l),
(167,333,l),
(323,634,l),
(480,333,l),
(323,31,l)
);
}
);
width = 646;
}
);
unicode = 9674;
userData = {
com.typemytype.robofont.mark = (
0.6,
0.986,
1,
1
);
};
},
{
glyphname = mediumBlackSquare;
lastChange = "2018-06-22 22:17:12 +0000";
layers = (
{
layerId = "12ECCE5E-04E9-4725-8BD5-31F21F15BB81";
shapes = (
{
closed = 1;
nodes = (
(556,0,l),
(556,556,l),
(0,556,l),
(0,0,l)
);
}
);
width = 556;
}
);
unicode = 9724;
},
{
glyphname = dieresiscomb;
lastChange = "2023-10-15 03:37:05 +0000";
layers = (
{
anchors = (
{
name = _top;
pos = (0,459);
},
{
name = top;
pos = (0,656);
}
);
layerId = "12ECCE5E-04E9-4725-8BD5-31F21F15BB81";
shapes = (
{
closed = 1;
nodes = (
(161,545,o),
(193,577,o),
(193,617,cs),
(193,656,o),
(161,688,o),
(120,688,cs),
(79,688,o),
(48,656,o),
(48,617,cs),
(48,577,o),
(80,545,o),
(120,545,cs)
);
},
{
closed = 1;
nodes = (
(-80,545,o),
(-49,577,o),
(-49,617,cs),
(-49,656,o),
(-79,688,o),
(-121,688,cs),
(-162,688,o),
(-193,656,o),
(-193,617,cs),
(-193,577,o),
(-161,545,o),
(-121,545,cs)
);
}
);
width = 0;
}
);
unicode = 776;
userData = {
KernOnSpecialSpacing = {
L = NoKerning;
R = NoKerning;
};
};
},
{
glyphname = dotaccentcomb;
lastChange = "2023-10-18 16:38:29 +0000";
layers = (
{
.lastUpdate = 719339909.281;
anchors = (
{
name = _top;
pos = (0,459);
},
{
name = top;
pos = (0,638);
}
);
layerId = "12ECCE5E-04E9-4725-8BD5-31F21F15BB81";
shapes = (
{
closed = 1;
nodes = (
(41,545,o),
(72,577,o),
(72,618,cs),
(72,655,o),
(41,686,o),
(0,686,cs),
(-41,686,o),
(-72,655,o),
(-72,618,cs),
(-72,577,o),
(-41,545,o),
(0,545,cs)
);
}
);
width = 0;
}
);
unicode = 775;
userData = {
KernOnSpecialSpacing = {
L = NoKerning;
R = NoKerning;
};
com.typemytype.robofont.mark = (
1,
0.6,
0.6,
1
);
};
},
{
glyphname = gravecomb;
lastChange = "2023-10-15 03:37:05 +0000";
layers = (
{
anchors = (
{
name = _top;
pos = (-49,459);
},
{
name = top;
pos = (-49,728);
}
);
layerId = "12ECCE5E-04E9-4725-8BD5-31F21F15BB81";
shapes = (
{
closed = 1;
nodes = (
(27,582,l),
(-126,811,l),
(-221,750,l),
(-46,541,l)
);
}
);
width = 0;
}
);
unicode = 768;
userData = {
KernOnSpecialSpacing = {
L = NoKerning;
R = NoKerning;
};
com.typemytype.robofont.mark = (
1,
0.6,
0.6,
1
);
};
},
{
glyphname = acutecomb;
lastChange = "2023-10-15 03:37:05 +0000";
layers = (
{
anchors = (
{
name = _top;
pos = (49,459);
},
{
name = top;
pos = (39,727);
}
);
layerId = "12ECCE5E-04E9-4725-8BD5-31F21F15BB81";
shapes = (
{
closed = 1;
nodes = (
(223,744,l),
(128,805,l),
(-25,576,l),
(48,535,l)
);
}
);
width = 0;
}
);
unicode = 769;
userData = {
KernOnSpecialSpacing = {
L = NoKerning;
R = NoKerning;
};
com.typemytype.robofont.mark = (
1,
0.6,
0.6,
1
);
};
},
{
glyphname = hungarumlautcomb;
lastChange = "2023-10-15 03:37:05 +0000";
layers = (
{
anchors = (
{
name = _top;
pos = (66,459);
},
{
name = top;
pos = (66,816);
}
);
layerId = "12ECCE5E-04E9-4725-8BD5-31F21F15BB81";
shapes = (
{
closed = 1;
nodes = (
(325,766,l),
(227,815,l),
(115,576,l),
(187,545,l)
);
},
{
closed = 1;
nodes = (
(107,767,l),
(9,816,l),
(-93,576,l),
(-21,545,l)
);
}
);
width = 0;
}
);
unicode = 779;
userData = {
KernOnSpecialSpacing = {
L = NoKerning;
R = NoKerning;
};
};
},
{
glyphname = caroncomb.alt;
lastChange = "2023-10-15 03:37:05 +0000";
layers = (
{
anchors = (
{
name = _car;
pos = (0,725);
}
);
layerId = "12ECCE5E-04E9-4725-8BD5-31F21F15BB81";
shapes = (
{
closed = 1;
nodes = (
(70,490,l),
(98,735,l),
(0,735,l),
(0,490,l)
);
}
);
width = 0;
}
);
userData = {
KernOnSpecialSpacing = {
L = NoKerning;
R = NoKerning;
};
};
},
{
color = 4;
glyphname = circumflexcomb;
lastChange = "2023-10-15 03:37:05 +0000";
layers = (
{
anchors = (
{
name = _top;
pos = (0,459);
},
{
name = top;
pos = (0,795);
}
);
layerId = "12ECCE5E-04E9-4725-8BD5-31F21F15BB81";
shapes = (
{
closed = 1;
nodes = (
(0,674,l),
(115,535,l),
(179,589,l),
(0,795,l),
(-179,589,l),
(-114,535,l)
);
}
);
width = 0;
}
);
unicode = 770;
userData = {
KernOnSpecialSpacing = {
L = NoKerning;
R = NoKerning;
};
};
},
{
color = 4;
glyphname = caroncomb;
lastChange = "2023-10-15 03:37:05 +0000";
layers = (
{
anchors = (
{
name = _top;
pos = (0,459);
},
{
name = top;
pos = (0,986);
}
);
layerId = "12ECCE5E-04E9-4725-8BD5-31F21F15BB81";
shapes = (
{
closed = 1;
nodes = (
(179,741,l),
(115,795,l),
(0,646,l),
(-114,795,l),
(-179,741,l),
(0,525,l)
);
}
);
width = 0;
}
);
unicode = 780;
userData = {
KernOnSpecialSpacing = {
L = NoKerning;
R = NoKerning;
};
};
},
{
glyphname = brevecomb;
lastChange = "2023-10-15 03:37:05 +0000";
layers = (
{
anchors = (
{
name = _top;
pos = (0,459);
},
{
name = top;
pos = (0,920);
}
);
layerId = "12ECCE5E-04E9-4725-8BD5-31F21F15BB81";
shapes = (
{
closed = 1;
nodes = (
(113,539,o),
(181,614,o),
(181,717,c),
(86,717,l),
(86,673,o),
(54,626,o),
(0,626,cs),
(-65,626,o),
(-85,673,o),
(-85,717,c),
(-181,717,l),
(-181,614,o),
(-115,539,o),
(0,539,cs)
);
}
);
width = 0;
}
);
unicode = 774;
userData = {
KernOnSpecialSpacing = {
L = NoKerning;
R = NoKerning;
};
};
},
{
glyphname = brevecomb_acutecombcomb;
lastChange = "2018-06-22 18:32:31 +0000";
layers = (
{
anchors = (
{
name = _top;
pos = (0,725);
}
);
layerId = "12ECCE5E-04E9-4725-8BD5-31F21F15BB81";
shapes = (
{
closed = 1;
nodes = (
(104,566,o),
(167,635,o),
(167,730,c),
(79,730,l),
(79,689,o),
(50,646,o),
(0,646,cs),
(-60,646,o),
(-78,689,o),
(-78,730,c),
(-167,730,l),
(-167,635,o),
(-106,566,o),
(0,566,cs)
);
},
{
closed = 1;
nodes = (
(161,914,l),
(76,965,l),
(-43,795,l),
(30,758,l)
);
}
);
width = 0;
}
);
},
{
glyphname = brevecomb_gravecombcomb;
lastChange = "2018-06-22 18:32:31 +0000";
layers = (
{
anchors = (
{
name = _top;
pos = (0,725);
}
);
layerId = "12ECCE5E-04E9-4725-8BD5-31F21F15BB81";
shapes = (
{
closed = 1;
nodes = (
(104,566,o),
(167,635,o),
(167,730,c),
(79,730,l),
(79,689,o),
(50,646,o),
(0,646,cs),
(-60,646,o),
(-78,689,o),
(-78,730,c),
(-167,730,l),
(-167,635,o),
(-106,566,o),
(0,566,cs)
);
},
{
closed = 1;
nodes = (
(83,795,l),
(-36,965,l),
(-121,914,l),
(10,758,l)
);
}
);
width = 0;
}
);
},
